<svg width="467" height="413" viewBox="0 0 467 413" fill="none" xmlns="http://www.w3.org/2000/svg">
<rect x="67" width="400" height="413" rx="16" fill="#131316"/>
<line x1="103.5" y1="108" x2="103.5" y2="370" stroke="#494949"/>
<line x1="184.969" y1="108" x2="184.969" y2="370" stroke="#494949"/>
<line x1="267.562" y1="108" x2="267.563" y2="370" stroke="white"/>
<line x1="349.031" y1="108" x2="349.031" y2="370" stroke="#494949"/>
<line x1="430.5" y1="108" x2="430.5" y2="370" stroke="#494949"/>
<path d="M2 173.297C250.505 267.842 328.762 132.434 430 132.434" stroke="#F6FEE0" stroke-width="3" stroke-linecap="round" stroke-linejoin="round"/>
<path d="M2 225.719C140.986 225.719 172.731 94.6631 430 94.6631" stroke="#DAF4FE" stroke-width="3" stroke-linecap="round" stroke-linejoin="round"/>
<rect x="222" y="135" width="89" height="46" rx="4" fill="white"/>
<path d="M233.424 146.424V150.544C233.424 151.003 233.283 151.371 233 151.648C232.717 151.92 232.344 152.056 231.88 152.056C231.411 152.056 231.035 151.917 230.752 151.64C230.469 151.357 230.328 150.973 230.328 150.488H231.056C231.061 150.76 231.131 150.981 231.264 151.152C231.403 151.323 231.608 151.408 231.88 151.408C232.152 151.408 232.355 151.328 232.488 151.168C232.621 151.003 232.688 150.795 232.688 150.544V146.424H233.424ZM234.586 149.792C234.586 149.344 234.677 148.952 234.858 148.616C235.04 148.275 235.288 148.011 235.602 147.824C235.922 147.637 236.277 147.544 236.666 147.544C237.05 147.544 237.384 147.627 237.666 147.792C237.949 147.957 238.16 148.165 238.298 148.416V147.616H239.034V152H238.298V151.184C238.154 151.44 237.938 151.653 237.65 151.824C237.368 151.989 237.037 152.072 236.658 152.072C236.269 152.072 235.917 151.976 235.602 151.784C235.288 151.592 235.04 151.323 234.858 150.976C234.677 150.629 234.586 150.235 234.586 149.792ZM238.298 149.8C238.298 149.469 238.232 149.181 238.098 148.936C237.965 148.691 237.784 148.504 237.554 148.376C237.33 148.243 237.082 148.176 236.81 148.176C236.538 148.176 236.29 148.24 236.066 148.368C235.842 148.496 235.664 148.683 235.53 148.928C235.397 149.173 235.33 149.461 235.33 149.792C235.33 150.128 235.397 150.421 235.53 150.672C235.664 150.917 235.842 151.107 236.066 151.24C236.29 151.368 236.538 151.432 236.81 151.432C237.082 151.432 237.33 151.368 237.554 151.24C237.784 151.107 237.965 150.917 238.098 150.672C238.232 150.421 238.298 150.131 238.298 149.8ZM242.4 147.536C242.934 147.536 243.366 147.699 243.696 148.024C244.027 148.344 244.192 148.808 244.192 149.416V152H243.472V149.52C243.472 149.083 243.363 148.749 243.144 148.52C242.926 148.285 242.627 148.168 242.248 148.168C241.864 148.168 241.558 148.288 241.328 148.528C241.104 148.768 240.992 149.117 240.992 149.576V152H240.264V147.616H240.992V148.24C241.136 148.016 241.331 147.843 241.576 147.72C241.827 147.597 242.102 147.536 242.4 147.536ZM247.202 146.88V146.216H248.706V152H247.97V146.88H247.202ZM253.181 147.592C253.064 147 252.698 146.704 252.085 146.704C251.61 146.704 251.256 146.888 251.021 147.256C250.786 147.619 250.672 148.219 250.677 149.056C250.8 148.779 251.002 148.563 251.285 148.408C251.573 148.248 251.893 148.168 252.245 148.168C252.794 148.168 253.232 148.339 253.557 148.68C253.888 149.021 254.053 149.493 254.053 150.096C254.053 150.459 253.981 150.784 253.837 151.072C253.698 151.36 253.485 151.589 253.197 151.76C252.914 151.931 252.57 152.016 252.165 152.016C251.616 152.016 251.186 151.893 250.877 151.648C250.568 151.403 250.352 151.064 250.229 150.632C250.106 150.2 250.045 149.667 250.045 149.032C250.045 147.075 250.728 146.096 252.093 146.096C252.616 146.096 253.026 146.237 253.325 146.52C253.624 146.803 253.8 147.16 253.853 147.592H253.181ZM252.093 148.784C251.864 148.784 251.648 148.832 251.445 148.928C251.242 149.019 251.077 149.16 250.949 149.352C250.826 149.539 250.765 149.768 250.765 150.04C250.765 150.445 250.882 150.776 251.117 151.032C251.352 151.283 251.688 151.408 252.125 151.408C252.498 151.408 252.794 151.293 253.013 151.064C253.237 150.829 253.349 150.515 253.349 150.12C253.349 149.704 253.242 149.379 253.029 149.144C252.816 148.904 252.504 148.784 252.093 148.784Z" fill="#131316"/>
<path d="M235.27 167.09C235.27 167.41 235.19 167.717 235.03 168.01C234.87 168.297 234.633 168.537 234.32 168.73C234.013 168.923 233.643 169.033 233.21 169.06V169.87H232.67V169.06C232.063 169.007 231.57 168.813 231.19 168.48C230.81 168.14 230.617 167.71 230.61 167.19H231.58C231.607 167.47 231.71 167.713 231.89 167.92C232.077 168.127 232.337 168.257 232.67 168.31V165.81C232.223 165.697 231.863 165.58 231.59 165.46C231.317 165.34 231.083 165.153 230.89 164.9C230.697 164.647 230.6 164.307 230.6 163.88C230.6 163.34 230.787 162.893 231.16 162.54C231.54 162.187 232.043 161.99 232.67 161.95V161.12H233.21V161.95C233.777 161.997 234.233 162.18 234.58 162.5C234.927 162.813 235.127 163.223 235.18 163.73H234.21C234.177 163.497 234.073 163.287 233.9 163.1C233.727 162.907 233.497 162.78 233.21 162.72V165.16C233.65 165.273 234.007 165.39 234.28 165.51C234.56 165.623 234.793 165.807 234.98 166.06C235.173 166.313 235.27 166.657 235.27 167.09ZM231.53 163.83C231.53 164.157 231.627 164.407 231.82 164.58C232.013 164.753 232.297 164.897 232.67 165.01V162.7C232.323 162.733 232.047 162.847 231.84 163.04C231.633 163.227 231.53 163.49 231.53 163.83ZM233.21 168.32C233.57 168.28 233.85 168.15 234.05 167.93C234.257 167.71 234.36 167.447 234.36 167.14C234.36 166.813 234.26 166.563 234.06 166.39C233.86 166.21 233.577 166.067 233.21 165.96V168.32ZM236.601 162.6V161.77H238.481V169H237.561V162.6H236.601ZM239.934 168.27C240.78 167.59 241.444 167.033 241.924 166.6C242.404 166.16 242.807 165.703 243.134 165.23C243.467 164.75 243.634 164.28 243.634 163.82C243.634 163.387 243.527 163.047 243.314 162.8C243.107 162.547 242.77 162.42 242.304 162.42C241.85 162.42 241.497 162.563 241.244 162.85C240.997 163.13 240.864 163.507 240.844 163.98H239.964C239.99 163.233 240.217 162.657 240.644 162.25C241.07 161.843 241.62 161.64 242.294 161.64C242.98 161.64 243.524 161.83 243.924 162.21C244.33 162.59 244.534 163.113 244.534 163.78C244.534 164.333 244.367 164.873 244.034 165.4C243.707 165.92 243.334 166.38 242.914 166.78C242.494 167.173 241.957 167.633 241.304 168.16H244.744V168.92H239.934V168.27ZM245.796 165.31C245.796 164.163 245.982 163.27 246.356 162.63C246.729 161.983 247.382 161.66 248.316 161.66C249.242 161.66 249.892 161.983 250.266 162.63C250.639 163.27 250.826 164.163 250.826 165.31C250.826 166.477 250.639 167.383 250.266 168.03C249.892 168.677 249.242 169 248.316 169C247.382 169 246.729 168.677 246.356 168.03C245.982 167.383 245.796 166.477 245.796 165.31ZM249.926 165.31C249.926 164.73 249.886 164.24 249.806 163.84C249.732 163.433 249.576 163.107 249.336 162.86C249.102 162.613 248.762 162.49 248.316 162.49C247.862 162.49 247.516 162.613 247.276 162.86C247.042 163.107 246.886 163.433 246.806 163.84C246.732 164.24 246.696 164.73 246.696 165.31C246.696 165.91 246.732 166.413 246.806 166.82C246.886 167.227 247.042 167.553 247.276 167.8C247.516 168.047 247.862 168.17 248.316 168.17C248.762 168.17 249.102 168.047 249.336 167.8C249.576 167.553 249.732 167.227 249.806 166.82C249.886 166.413 249.926 165.91 249.926 165.31ZM258.291 159.58L255.551 170.7H254.651L257.381 159.58H258.291ZM262.143 163.59C262.19 162.977 262.426 162.497 262.853 162.15C263.28 161.803 263.833 161.63 264.513 161.63C264.966 161.63 265.356 161.713 265.683 161.88C266.016 162.04 266.266 162.26 266.433 162.54C266.606 162.82 266.693 163.137 266.693 163.49C266.693 163.903 266.573 164.26 266.333 164.56C266.1 164.86 265.793 165.053 265.413 165.14V165.19C265.846 165.297 266.19 165.507 266.443 165.82C266.696 166.133 266.823 166.543 266.823 167.05C266.823 167.43 266.736 167.773 266.563 168.08C266.39 168.38 266.13 168.617 265.783 168.79C265.436 168.963 265.02 169.05 264.533 169.05C263.826 169.05 263.246 168.867 262.793 168.5C262.34 168.127 262.086 167.6 262.033 166.92H262.913C262.96 167.32 263.123 167.647 263.403 167.9C263.683 168.153 264.056 168.28 264.523 168.28C264.99 168.28 265.343 168.16 265.583 167.92C265.83 167.673 265.953 167.357 265.953 166.97C265.953 166.47 265.786 166.11 265.453 165.89C265.12 165.67 264.616 165.56 263.943 165.56H263.713V164.8H263.953C264.566 164.793 265.03 164.693 265.343 164.5C265.656 164.3 265.813 163.993 265.813 163.58C265.813 163.227 265.696 162.943 265.463 162.73C265.236 162.517 264.91 162.41 264.483 162.41C264.07 162.41 263.736 162.517 263.483 162.73C263.23 162.943 263.08 163.23 263.033 163.59H262.143ZM273.078 169.07C272.618 169.07 272.204 168.99 271.838 168.83C271.478 168.663 271.194 168.437 270.988 168.15C270.781 167.857 270.674 167.52 270.668 167.14H271.638C271.671 167.467 271.804 167.743 272.038 167.97C272.278 168.19 272.624 168.3 273.078 168.3C273.511 168.3 273.851 168.193 274.098 167.98C274.351 167.76 274.478 167.48 274.478 167.14C274.478 166.873 274.404 166.657 274.258 166.49C274.111 166.323 273.928 166.197 273.708 166.11C273.488 166.023 273.191 165.93 272.818 165.83C272.358 165.71 271.988 165.59 271.708 165.47C271.434 165.35 271.198 165.163 270.998 164.91C270.804 164.65 270.708 164.303 270.708 163.87C270.708 163.49 270.804 163.153 270.998 162.86C271.191 162.567 271.461 162.34 271.808 162.18C272.161 162.02 272.564 161.94 273.018 161.94C273.671 161.94 274.204 162.103 274.618 162.43C275.038 162.757 275.274 163.19 275.328 163.73H274.328C274.294 163.463 274.154 163.23 273.908 163.03C273.661 162.823 273.334 162.72 272.928 162.72C272.548 162.72 272.238 162.82 271.998 163.02C271.758 163.213 271.638 163.487 271.638 163.84C271.638 164.093 271.708 164.3 271.848 164.46C271.994 164.62 272.171 164.743 272.378 164.83C272.591 164.91 272.888 165.003 273.268 165.11C273.728 165.237 274.098 165.363 274.378 165.49C274.658 165.61 274.898 165.8 275.098 166.06C275.298 166.313 275.398 166.66 275.398 167.1C275.398 167.44 275.308 167.76 275.128 168.06C274.948 168.36 274.681 168.603 274.328 168.79C273.974 168.977 273.558 169.07 273.078 169.07ZM276.397 166.24C276.397 165.68 276.51 165.19 276.737 164.77C276.963 164.343 277.273 164.013 277.667 163.78C278.067 163.547 278.51 163.43 278.997 163.43C279.477 163.43 279.893 163.533 280.247 163.74C280.6 163.947 280.863 164.207 281.037 164.52V163.52H281.957V169H281.037V167.98C280.857 168.3 280.587 168.567 280.227 168.78C279.873 168.987 279.46 169.09 278.987 169.09C278.5 169.09 278.06 168.97 277.667 168.73C277.273 168.49 276.963 168.153 276.737 167.72C276.51 167.287 276.397 166.793 276.397 166.24ZM281.037 166.25C281.037 165.837 280.953 165.477 280.787 165.17C280.62 164.863 280.393 164.63 280.107 164.47C279.827 164.303 279.517 164.22 279.177 164.22C278.837 164.22 278.527 164.3 278.247 164.46C277.967 164.62 277.743 164.853 277.577 165.16C277.41 165.467 277.327 165.827 277.327 166.24C277.327 166.66 277.41 167.027 277.577 167.34C277.743 167.647 277.967 167.883 278.247 168.05C278.527 168.21 278.837 168.29 279.177 168.29C279.517 168.29 279.827 168.21 280.107 168.05C280.393 167.883 280.62 167.647 280.787 167.34C280.953 167.027 281.037 166.663 281.037 166.25ZM284.405 161.6V169H283.495V161.6H284.405ZM290.956 166.05C290.956 166.223 290.946 166.407 290.926 166.6H286.546C286.579 167.14 286.762 167.563 287.096 167.87C287.436 168.17 287.846 168.32 288.326 168.32C288.719 168.32 289.046 168.23 289.306 168.05C289.572 167.863 289.759 167.617 289.866 167.31H290.846C290.699 167.837 290.406 168.267 289.966 168.6C289.526 168.927 288.979 169.09 288.326 169.09C287.806 169.09 287.339 168.973 286.926 168.74C286.519 168.507 286.199 168.177 285.966 167.75C285.732 167.317 285.616 166.817 285.616 166.25C285.616 165.683 285.729 165.187 285.956 164.76C286.182 164.333 286.499 164.007 286.906 163.78C287.319 163.547 287.792 163.43 288.326 163.43C288.846 163.43 289.306 163.543 289.706 163.77C290.106 163.997 290.412 164.31 290.626 164.71C290.846 165.103 290.956 165.55 290.956 166.05ZM290.016 165.86C290.016 165.513 289.939 165.217 289.786 164.97C289.632 164.717 289.422 164.527 289.156 164.4C288.896 164.267 288.606 164.2 288.286 164.2C287.826 164.2 287.432 164.347 287.106 164.64C286.786 164.933 286.602 165.34 286.556 165.86H290.016ZM294.097 169.09C293.677 169.09 293.3 169.02 292.967 168.88C292.633 168.733 292.37 168.533 292.177 168.28C291.983 168.02 291.877 167.723 291.857 167.39H292.797C292.823 167.663 292.95 167.887 293.177 168.06C293.41 168.233 293.713 168.32 294.087 168.32C294.433 168.32 294.707 168.243 294.907 168.09C295.107 167.937 295.207 167.743 295.207 167.51C295.207 167.27 295.1 167.093 294.887 166.98C294.673 166.86 294.343 166.743 293.897 166.63C293.49 166.523 293.157 166.417 292.897 166.31C292.643 166.197 292.423 166.033 292.237 165.82C292.057 165.6 291.967 165.313 291.967 164.96C291.967 164.68 292.05 164.423 292.217 164.19C292.383 163.957 292.62 163.773 292.927 163.64C293.233 163.5 293.583 163.43 293.977 163.43C294.583 163.43 295.073 163.583 295.447 163.89C295.82 164.197 296.02 164.617 296.047 165.15H295.137C295.117 164.863 295 164.633 294.787 164.46C294.58 164.287 294.3 164.2 293.947 164.2C293.62 164.2 293.36 164.27 293.167 164.41C292.973 164.55 292.877 164.733 292.877 164.96C292.877 165.14 292.933 165.29 293.047 165.41C293.167 165.523 293.313 165.617 293.487 165.69C293.667 165.757 293.913 165.833 294.227 165.92C294.62 166.027 294.94 166.133 295.187 166.24C295.433 166.34 295.643 166.493 295.817 166.7C295.997 166.907 296.09 167.177 296.097 167.51C296.097 167.81 296.013 168.08 295.847 168.32C295.68 168.56 295.443 168.75 295.137 168.89C294.837 169.023 294.49 169.09 294.097 169.09Z" fill="#131316"/>
<path d="M257 181H277L269.828 188.172C268.266 189.734 265.734 189.734 264.172 188.172L257 181Z" fill="white"/>
<circle cx="267" cy="210" r="8" fill="white"/>
<circle cx="267" cy="210" r="3" fill="#131316"/>
</svg>
