<svg width="406" height="206" viewBox="0 0 406 206" fill="none" xmlns="http://www.w3.org/2000/svg">
<rect x="0.015625" y="0.508789" width="405.575" height="204.815" rx="16" fill="#F4F4F6"/>
<path d="M30.4316 46.9833C29.4982 46.9833 28.6582 46.8233 27.9116 46.5033C27.1649 46.1699 26.5782 45.7033 26.1516 45.1033C25.7249 44.5033 25.5116 43.8033 25.5116 43.0033H27.9516C28.0049 43.6033 28.2382 44.0966 28.6516 44.4833C29.0782 44.8699 29.6716 45.0633 30.4316 45.0633C31.2182 45.0633 31.8316 44.8766 32.2716 44.5033C32.7116 44.1166 32.9316 43.6233 32.9316 43.0233C32.9316 42.5566 32.7916 42.1766 32.5116 41.8833C32.2449 41.5899 31.9049 41.3633 31.4916 41.2033C31.0916 41.0433 30.5316 40.8699 29.8116 40.6833C28.9049 40.4433 28.1649 40.2033 27.5916 39.9633C27.0316 39.7099 26.5516 39.3233 26.1516 38.8033C25.7516 38.2833 25.5516 37.5899 25.5516 36.7233C25.5516 35.9233 25.7516 35.2233 26.1516 34.6233C26.5516 34.0233 27.1116 33.5633 27.8316 33.2433C28.5516 32.9233 29.3849 32.7633 30.3316 32.7633C31.6782 32.7633 32.7782 33.1033 33.6316 33.7833C34.4982 34.4499 34.9782 35.3699 35.0716 36.5433H32.5516C32.5116 36.0366 32.2716 35.6033 31.8316 35.2433C31.3916 34.8833 30.8116 34.7033 30.0916 34.7033C29.4382 34.7033 28.9049 34.8699 28.4916 35.2033C28.0782 35.5366 27.8716 36.0166 27.8716 36.6433C27.8716 37.0699 27.9982 37.4233 28.2516 37.7033C28.5182 37.9699 28.8516 38.1833 29.2516 38.3433C29.6516 38.5033 30.1982 38.6766 30.8916 38.8633C31.8116 39.1166 32.5582 39.3699 33.1316 39.6233C33.7182 39.8766 34.2116 40.2699 34.6116 40.8033C35.0249 41.3233 35.2316 42.0233 35.2316 42.9033C35.2316 43.6099 35.0382 44.2766 34.6516 44.9033C34.2782 45.5299 33.7249 46.0366 32.9916 46.4233C32.2716 46.7966 31.4182 46.9833 30.4316 46.9833ZM47.9019 35.8233V46.8433H45.6219V45.5433C45.2619 45.9966 44.7885 46.3566 44.2019 46.6233C43.6285 46.8766 43.0152 47.0033 42.3619 47.0033C41.4952 47.0033 40.7152 46.8233 40.0219 46.4633C39.3419 46.1033 38.8019 45.5699 38.4019 44.8633C38.0152 44.1566 37.8219 43.3033 37.8219 42.3033V35.8233H40.0819V41.9633C40.0819 42.9499 40.3285 43.7099 40.8219 44.2433C41.3152 44.7633 41.9885 45.0233 42.8419 45.0233C43.6952 45.0233 44.3685 44.7633 44.8619 44.2433C45.3685 43.7099 45.6219 42.9499 45.6219 41.9633V35.8233H47.9019ZM53.1902 37.4633C53.5768 36.9299 54.1035 36.4966 54.7702 36.1633C55.4502 35.8166 56.2035 35.6433 57.0302 35.6433C58.0035 35.6433 58.8835 35.8766 59.6702 36.3433C60.4568 36.8099 61.0768 37.4766 61.5302 38.3433C61.9835 39.1966 62.2102 40.1766 62.2102 41.2833C62.2102 42.3899 61.9835 43.3833 61.5302 44.2633C61.0768 45.1299 60.4502 45.8099 59.6502 46.3033C58.8635 46.7833 57.9902 47.0233 57.0302 47.0233C56.1768 47.0233 55.4168 46.8566 54.7502 46.5233C54.0968 46.1899 53.5768 45.7633 53.1902 45.2433V46.8433H50.9102V32.0433H53.1902V37.4633ZM59.8902 41.2833C59.8902 40.5233 59.7302 39.8699 59.4102 39.3233C59.1035 38.7633 58.6902 38.3433 58.1702 38.0633C57.6635 37.7699 57.1168 37.6233 56.5302 37.6233C55.9568 37.6233 55.4102 37.7699 54.8902 38.0633C54.3835 38.3566 53.9702 38.7833 53.6502 39.3433C53.3435 39.9033 53.1902 40.5633 53.1902 41.3233C53.1902 42.0833 53.3435 42.7499 53.6502 43.3233C53.9702 43.8833 54.3835 44.3099 54.8902 44.6033C55.4102 44.8966 55.9568 45.0433 56.5302 45.0433C57.1168 45.0433 57.6635 44.8966 58.1702 44.6033C58.6902 44.2966 59.1035 43.8566 59.4102 43.2833C59.7302 42.7099 59.8902 42.0433 59.8902 41.2833ZM68.4648 47.0233C67.5982 47.0233 66.8182 46.8699 66.1248 46.5633C65.4448 46.2433 64.9048 45.8166 64.5048 45.2833C64.1048 44.7366 63.8915 44.1299 63.8648 43.4633H66.2248C66.2648 43.9299 66.4848 44.3233 66.8848 44.6433C67.2982 44.9499 67.8115 45.1033 68.4248 45.1033C69.0648 45.1033 69.5582 44.9833 69.9048 44.7433C70.2648 44.4899 70.4448 44.1699 70.4448 43.7833C70.4448 43.3699 70.2448 43.0633 69.8448 42.8633C69.4582 42.6633 68.8382 42.4433 67.9848 42.2033C67.1582 41.9766 66.4848 41.7566 65.9648 41.5433C65.4448 41.3299 64.9915 41.0033 64.6048 40.5633C64.2315 40.1233 64.0448 39.5433 64.0448 38.8233C64.0448 38.2366 64.2182 37.7033 64.5648 37.2233C64.9115 36.7299 65.4048 36.3433 66.0448 36.0633C66.6982 35.7833 67.4448 35.6433 68.2848 35.6433C69.5382 35.6433 70.5448 35.9633 71.3048 36.6033C72.0782 37.2299 72.4915 38.0899 72.5448 39.1833H70.2648C70.2248 38.6899 70.0248 38.2966 69.6648 38.0033C69.3048 37.7099 68.8182 37.5633 68.2048 37.5633C67.6048 37.5633 67.1448 37.6766 66.8248 37.9033C66.5048 38.1299 66.3448 38.4299 66.3448 38.8033C66.3448 39.0966 66.4515 39.3433 66.6648 39.5433C66.8782 39.7433 67.1382 39.9033 67.4448 40.0233C67.7515 40.1299 68.2048 40.2699 68.8048 40.4433C69.6048 40.6566 70.2582 40.8766 70.7648 41.1033C71.2848 41.3166 71.7315 41.6366 72.1048 42.0633C72.4782 42.4899 72.6715 43.0566 72.6848 43.7633C72.6848 44.3899 72.5115 44.9499 72.1648 45.4433C71.8182 45.9366 71.3248 46.3233 70.6848 46.6033C70.0582 46.8833 69.3182 47.0233 68.4648 47.0233ZM74.3884 41.3233C74.3884 40.1899 74.6151 39.1966 75.0684 38.3433C75.5351 37.4766 76.1751 36.8099 76.9884 36.3433C77.8018 35.8766 78.7351 35.6433 79.7884 35.6433C81.1218 35.6433 82.2218 35.9633 83.0884 36.6033C83.9684 37.2299 84.5618 38.1299 84.8684 39.3033H82.4084C82.2084 38.7566 81.8884 38.3299 81.4484 38.0233C81.0084 37.7166 80.4551 37.5633 79.7884 37.5633C78.8551 37.5633 78.1084 37.8966 77.5484 38.5633C77.0018 39.2166 76.7284 40.1366 76.7284 41.3233C76.7284 42.5099 77.0018 43.4366 77.5484 44.1033C78.1084 44.7699 78.8551 45.1033 79.7884 45.1033C81.1084 45.1033 81.9818 44.5233 82.4084 43.3633H84.8684C84.5484 44.4833 83.9484 45.3766 83.0684 46.0433C82.1884 46.6966 81.0951 47.0233 79.7884 47.0233C78.7351 47.0233 77.8018 46.7899 76.9884 46.3233C76.1751 45.8433 75.5351 45.1766 75.0684 44.3233C74.6151 43.4566 74.3884 42.4566 74.3884 41.3233ZM89.4206 37.4233C89.754 36.8633 90.194 36.4299 90.7406 36.1233C91.3006 35.8033 91.9606 35.6433 92.7206 35.6433V38.0033H92.1406C91.2473 38.0033 90.5673 38.2299 90.1006 38.6833C89.6473 39.1366 89.4206 39.9233 89.4206 41.0433V46.8433H87.1406V35.8233H89.4206V37.4233ZM95.9764 34.3633C95.5631 34.3633 95.2164 34.2233 94.9364 33.9433C94.6564 33.6633 94.5164 33.3166 94.5164 32.9033C94.5164 32.4899 94.6564 32.1433 94.9364 31.8633C95.2164 31.5833 95.5631 31.4433 95.9764 31.4433C96.3764 31.4433 96.7164 31.5833 96.9964 31.8633C97.2764 32.1433 97.4164 32.4899 97.4164 32.9033C97.4164 33.3166 97.2764 33.6633 96.9964 33.9433C96.7164 34.2233 96.3764 34.3633 95.9764 34.3633ZM97.0964 35.8233V46.8433H94.8164V35.8233H97.0964ZM102.37 37.4633C102.757 36.9299 103.283 36.4966 103.95 36.1633C104.63 35.8166 105.383 35.6433 106.21 35.6433C107.183 35.6433 108.063 35.8766 108.85 36.3433C109.637 36.8099 110.257 37.4766 110.71 38.3433C111.163 39.1966 111.39 40.1766 111.39 41.2833C111.39 42.3899 111.163 43.3833 110.71 44.2633C110.257 45.1299 109.63 45.8099 108.83 46.3033C108.043 46.7833 107.17 47.0233 106.21 47.0233C105.357 47.0233 104.597 46.8566 103.93 46.5233C103.277 46.1899 102.757 45.7633 102.37 45.2433V46.8433H100.09V32.0433H102.37V37.4633ZM109.07 41.2833C109.07 40.5233 108.91 39.8699 108.59 39.3233C108.283 38.7633 107.87 38.3433 107.35 38.0633C106.843 37.7699 106.297 37.6233 105.71 37.6233C105.137 37.6233 104.59 37.7699 104.07 38.0633C103.563 38.3566 103.15 38.7833 102.83 39.3433C102.523 39.9033 102.37 40.5633 102.37 41.3233C102.37 42.0833 102.523 42.7499 102.83 43.3233C103.15 43.8833 103.563 44.3099 104.07 44.6033C104.59 44.8966 105.137 45.0433 105.71 45.0433C106.297 45.0433 106.843 44.8966 107.35 44.6033C107.87 44.2966 108.283 43.8566 108.59 43.2833C108.91 42.7099 109.07 42.0433 109.07 41.2833ZM123.745 41.0633C123.745 41.4766 123.718 41.8499 123.665 42.1833H115.245C115.311 43.0633 115.638 43.7699 116.225 44.3033C116.811 44.8366 117.531 45.1033 118.385 45.1033C119.611 45.1033 120.478 44.5899 120.985 43.5633H123.445C123.111 44.5766 122.505 45.4099 121.625 46.0633C120.758 46.7033 119.678 47.0233 118.385 47.0233C117.331 47.0233 116.385 46.7899 115.545 46.3233C114.718 45.8433 114.065 45.1766 113.585 44.3233C113.118 43.4566 112.885 42.4566 112.885 41.3233C112.885 40.1899 113.111 39.1966 113.565 38.3433C114.031 37.4766 114.678 36.8099 115.505 36.3433C116.345 35.8766 117.305 35.6433 118.385 35.6433C119.425 35.6433 120.351 35.8699 121.165 36.3233C121.978 36.7766 122.611 37.4166 123.065 38.2433C123.518 39.0566 123.745 39.9966 123.745 41.0633ZM121.365 40.3433C121.351 39.5033 121.051 38.8299 120.465 38.3233C119.878 37.8166 119.151 37.5633 118.285 37.5633C117.498 37.5633 116.825 37.8166 116.265 38.3233C115.705 38.8166 115.371 39.4899 115.265 40.3433H121.365ZM133.844 37.6833V43.7833C133.844 44.1966 133.937 44.4966 134.124 44.6833C134.324 44.8566 134.657 44.9433 135.124 44.9433H136.524V46.8433H134.724C133.697 46.8433 132.91 46.6033 132.364 46.1233C131.817 45.6433 131.544 44.8633 131.544 43.7833V37.6833H130.244V35.8233H131.544V33.0833H133.844V35.8233H136.524V37.6833H133.844ZM143.405 47.0233C142.365 47.0233 141.425 46.7899 140.585 46.3233C139.745 45.8433 139.085 45.1766 138.605 44.3233C138.125 43.4566 137.885 42.4566 137.885 41.3233C137.885 40.2033 138.132 39.2099 138.625 38.3433C139.118 37.4766 139.792 36.8099 140.645 36.3433C141.498 35.8766 142.452 35.6433 143.505 35.6433C144.558 35.6433 145.512 35.8766 146.365 36.3433C147.218 36.8099 147.892 37.4766 148.385 38.3433C148.878 39.2099 149.125 40.2033 149.125 41.3233C149.125 42.4433 148.872 43.4366 148.365 44.3033C147.858 45.1699 147.165 45.8433 146.285 46.3233C145.418 46.7899 144.458 47.0233 143.405 47.0233ZM143.405 45.0433C143.992 45.0433 144.538 44.9033 145.045 44.6233C145.565 44.3433 145.985 43.9233 146.305 43.3633C146.625 42.8033 146.785 42.1233 146.785 41.3233C146.785 40.5233 146.632 39.8499 146.325 39.3033C146.018 38.7433 145.612 38.3233 145.105 38.0433C144.598 37.7633 144.052 37.6233 143.465 37.6233C142.878 37.6233 142.332 37.7633 141.825 38.0433C141.332 38.3233 140.938 38.7433 140.645 39.3033C140.352 39.8499 140.205 40.5233 140.205 41.3233C140.205 42.5099 140.505 43.4299 141.105 44.0833C141.718 44.7233 142.485 45.0433 143.405 45.0433ZM162.134 35.6433C163.001 35.6433 163.774 35.8233 164.454 36.1833C165.148 36.5433 165.688 37.0766 166.074 37.7833C166.461 38.4899 166.654 39.3433 166.654 40.3433V46.8433H164.394V40.6833C164.394 39.6966 164.148 38.9433 163.654 38.4233C163.161 37.8899 162.488 37.6233 161.634 37.6233C160.781 37.6233 160.101 37.8899 159.594 38.4233C159.101 38.9433 158.854 39.6966 158.854 40.6833V46.8433H156.574V35.8233H158.854V37.0833C159.228 36.6299 159.701 36.2766 160.274 36.0233C160.861 35.7699 161.481 35.6433 162.134 35.6433ZM179.663 41.0633C179.663 41.4766 179.636 41.8499 179.583 42.1833H171.163C171.229 43.0633 171.556 43.7699 172.143 44.3033C172.729 44.8366 173.449 45.1033 174.303 45.1033C175.529 45.1033 176.396 44.5899 176.903 43.5633H179.362C179.029 44.5766 178.423 45.4099 177.543 46.0633C176.676 46.7033 175.596 47.0233 174.303 47.0233C173.249 47.0233 172.303 46.7899 171.463 46.3233C170.636 45.8433 169.983 45.1766 169.503 44.3233C169.036 43.4566 168.803 42.4566 168.803 41.3233C168.803 40.1899 169.029 39.1966 169.483 38.3433C169.949 37.4766 170.596 36.8099 171.423 36.3433C172.263 35.8766 173.223 35.6433 174.303 35.6433C175.343 35.6433 176.269 35.8699 177.083 36.3233C177.896 36.7766 178.529 37.4166 178.983 38.2433C179.436 39.0566 179.663 39.9966 179.663 41.0633ZM177.283 40.3433C177.269 39.5033 176.969 38.8299 176.383 38.3233C175.796 37.8166 175.069 37.5633 174.203 37.5633C173.416 37.5633 172.743 37.8166 172.183 38.3233C171.623 38.8166 171.289 39.4899 171.183 40.3433H177.283ZM196.706 35.8233L193.286 46.8433H190.886L188.666 38.7033L186.446 46.8433H184.046L180.606 35.8233H182.926L185.226 44.6833L187.566 35.8233H189.946L192.186 44.6433L194.466 35.8233H196.706ZM202.41 47.0233C201.543 47.0233 200.763 46.8699 200.07 46.5633C199.39 46.2433 198.85 45.8166 198.45 45.2833C198.05 44.7366 197.837 44.1299 197.81 43.4633H200.17C200.21 43.9299 200.43 44.3233 200.83 44.6433C201.243 44.9499 201.757 45.1033 202.37 45.1033C203.01 45.1033 203.503 44.9833 203.85 44.7433C204.21 44.4899 204.39 44.1699 204.39 43.7833C204.39 43.3699 204.19 43.0633 203.79 42.8633C203.403 42.6633 202.783 42.4433 201.93 42.2033C201.103 41.9766 200.43 41.7566 199.91 41.5433C199.39 41.3299 198.937 41.0033 198.55 40.5633C198.177 40.1233 197.99 39.5433 197.99 38.8233C197.99 38.2366 198.163 37.7033 198.51 37.2233C198.857 36.7299 199.35 36.3433 199.99 36.0633C200.643 35.7833 201.39 35.6433 202.23 35.6433C203.483 35.6433 204.49 35.9633 205.25 36.6033C206.023 37.2299 206.437 38.0899 206.49 39.1833H204.21C204.17 38.6899 203.97 38.2966 203.61 38.0033C203.25 37.7099 202.763 37.5633 202.15 37.5633C201.55 37.5633 201.09 37.6766 200.77 37.9033C200.45 38.1299 200.29 38.4299 200.29 38.8033C200.29 39.0966 200.397 39.3433 200.61 39.5433C200.823 39.7433 201.083 39.9033 201.39 40.0233C201.697 40.1299 202.15 40.2699 202.75 40.4433C203.55 40.6566 204.203 40.8766 204.71 41.1033C205.23 41.3166 205.677 41.6366 206.05 42.0633C206.423 42.4899 206.617 43.0566 206.63 43.7633C206.63 44.3899 206.457 44.9499 206.11 45.4433C205.763 45.9366 205.27 46.3233 204.63 46.6033C204.003 46.8833 203.263 47.0233 202.41 47.0233ZM211.374 32.0433V46.8433H209.094V32.0433H211.374ZM224.467 41.0633C224.467 41.4766 224.441 41.8499 224.387 42.1833H215.967C216.034 43.0633 216.361 43.7699 216.947 44.3033C217.534 44.8366 218.254 45.1033 219.107 45.1033C220.334 45.1033 221.201 44.5899 221.707 43.5633H224.167C223.834 44.5766 223.227 45.4099 222.347 46.0633C221.481 46.7033 220.401 47.0233 219.107 47.0233C218.054 47.0233 217.107 46.7899 216.267 46.3233C215.441 45.8433 214.787 45.1766 214.307 44.3233C213.841 43.4566 213.607 42.4566 213.607 41.3233C213.607 40.1899 213.834 39.1966 214.287 38.3433C214.754 37.4766 215.401 36.8099 216.227 36.3433C217.067 35.8766 218.027 35.6433 219.107 35.6433C220.147 35.6433 221.074 35.8699 221.887 36.3233C222.701 36.7766 223.334 37.4166 223.787 38.2433C224.241 39.0566 224.467 39.9966 224.467 41.0633ZM222.087 40.3433C222.074 39.5033 221.774 38.8299 221.187 38.3233C220.601 37.8166 219.874 37.5633 219.007 37.5633C218.221 37.5633 217.547 37.8166 216.987 38.3233C216.427 38.8166 216.094 39.4899 215.987 40.3433H222.087ZM229.371 37.6833V43.7833C229.371 44.1966 229.464 44.4966 229.651 44.6833C229.851 44.8566 230.184 44.9433 230.651 44.9433H232.051V46.8433H230.251C229.224 46.8433 228.438 46.6033 227.891 46.1233C227.344 45.6433 227.071 44.8633 227.071 43.7833V37.6833H225.771V35.8233H227.071V33.0833H229.371V35.8233H232.051V37.6833H229.371ZM236.812 37.6833V43.7833C236.812 44.1966 236.906 44.4966 237.092 44.6833C237.292 44.8566 237.626 44.9433 238.092 44.9433H239.492V46.8433H237.692C236.666 46.8433 235.879 46.6033 235.332 46.1233C234.786 45.6433 234.512 44.8633 234.512 43.7833V37.6833H233.212V35.8233H234.512V33.0833H236.812V35.8233H239.492V37.6833H236.812ZM251.694 41.0633C251.694 41.4766 251.667 41.8499 251.614 42.1833H243.194C243.26 43.0633 243.587 43.7699 244.174 44.3033C244.76 44.8366 245.48 45.1033 246.334 45.1033C247.56 45.1033 248.427 44.5899 248.934 43.5633H251.394C251.06 44.5766 250.454 45.4099 249.574 46.0633C248.707 46.7033 247.627 47.0233 246.334 47.0233C245.28 47.0233 244.334 46.7899 243.494 46.3233C242.667 45.8433 242.014 45.1766 241.534 44.3233C241.067 43.4566 240.834 42.4566 240.834 41.3233C240.834 40.1899 241.06 39.1966 241.514 38.3433C241.98 37.4766 242.627 36.8099 243.454 36.3433C244.294 35.8766 245.254 35.6433 246.334 35.6433C247.374 35.6433 248.3 35.8699 249.114 36.3233C249.927 36.7766 250.56 37.4166 251.014 38.2433C251.467 39.0566 251.694 39.9966 251.694 41.0633ZM249.314 40.3433C249.3 39.5033 249 38.8299 248.414 38.3233C247.827 37.8166 247.1 37.5633 246.234 37.5633C245.447 37.5633 244.774 37.8166 244.214 38.3233C243.654 38.8166 243.32 39.4899 243.214 40.3433H249.314ZM256.218 37.4233C256.551 36.8633 256.991 36.4299 257.538 36.1233C258.098 35.8033 258.758 35.6433 259.518 35.6433V38.0033H258.938C258.044 38.0033 257.364 38.2299 256.898 38.6833C256.444 39.1366 256.218 39.9233 256.218 41.0433V46.8433H253.938V35.8233H256.218V37.4233Z" fill="#35333C"/>
<path d="M29.1196 81.485C28.3836 81.485 27.7222 81.357 27.1356 81.101C26.5596 80.8344 26.1062 80.4717 25.7756 80.013C25.4449 79.5437 25.2742 79.005 25.2636 78.397H26.8156C26.8689 78.9197 27.0822 79.3624 27.4556 79.725C27.8396 80.077 28.3942 80.253 29.1196 80.253C29.8129 80.253 30.3569 80.0824 30.7516 79.741C31.1569 79.389 31.3596 78.941 31.3596 78.397C31.3596 77.9704 31.2422 77.6237 31.0076 77.357C30.7729 77.0904 30.4796 76.8877 30.1276 76.749C29.7756 76.6104 29.3009 76.461 28.7036 76.301C27.9676 76.109 27.3756 75.917 26.9276 75.725C26.4902 75.533 26.1116 75.2344 25.7916 74.829C25.4822 74.413 25.3276 73.8584 25.3276 73.165C25.3276 72.557 25.4822 72.0184 25.7916 71.549C26.1009 71.0797 26.5329 70.717 27.0876 70.461C27.6529 70.205 28.2982 70.077 29.0236 70.077C30.0689 70.077 30.9222 70.3384 31.5836 70.861C32.2556 71.3837 32.6342 72.077 32.7196 72.941H31.1196C31.0662 72.5144 30.8422 72.141 30.4476 71.821C30.0529 71.4904 29.5302 71.325 28.8796 71.325C28.2716 71.325 27.7756 71.485 27.3916 71.805C27.0076 72.1144 26.8156 72.5517 26.8156 73.117C26.8156 73.5224 26.9276 73.853 27.1516 74.109C27.3862 74.365 27.6689 74.5624 27.9996 74.701C28.3409 74.829 28.8156 74.9784 29.4236 75.149C30.1596 75.3517 30.7516 75.5544 31.1996 75.757C31.6476 75.949 32.0316 76.253 32.3516 76.669C32.6716 77.0744 32.8316 77.629 32.8316 78.333C32.8316 78.877 32.6876 79.389 32.3996 79.869C32.1116 80.349 31.6849 80.7384 31.1196 81.037C30.5542 81.3357 29.8876 81.485 29.1196 81.485ZM42.7502 72.605V81.373H41.2942V80.077C41.0169 80.525 40.6275 80.877 40.1262 81.133C39.6355 81.3784 39.0915 81.501 38.4942 81.501C37.8115 81.501 37.1982 81.3624 36.6542 81.085C36.1102 80.797 35.6782 80.3704 35.3582 79.805C35.0489 79.2397 34.8942 78.5517 34.8942 77.741V72.605H36.3342V77.549C36.3342 78.413 36.5529 79.0797 36.9902 79.549C37.4275 80.0077 38.0249 80.237 38.7822 80.237C39.5609 80.237 40.1742 79.997 40.6222 79.517C41.0702 79.037 41.2942 78.3384 41.2942 77.421V72.605H42.7502ZM46.6646 74.237C46.9632 73.7144 47.4006 73.2877 47.9766 72.957C48.5526 72.6264 49.2086 72.461 49.9446 72.461C50.7339 72.461 51.4432 72.6477 52.0726 73.021C52.7019 73.3944 53.1979 73.9224 53.5606 74.605C53.9232 75.277 54.1046 76.061 54.1046 76.957C54.1046 77.8424 53.9232 78.6317 53.5606 79.325C53.1979 80.0184 52.6966 80.557 52.0566 80.941C51.4272 81.325 50.7232 81.517 49.9446 81.517C49.1872 81.517 48.5206 81.3517 47.9446 81.021C47.3792 80.6904 46.9526 80.269 46.6646 79.757V81.373H45.2086V69.533H46.6646V74.237ZM52.6166 76.957C52.6166 76.2957 52.4832 75.7197 52.2166 75.229C51.9499 74.7384 51.5872 74.365 51.1286 74.109C50.6806 73.853 50.1846 73.725 49.6406 73.725C49.1072 73.725 48.6112 73.8584 48.1526 74.125C47.7046 74.381 47.3419 74.7597 47.0646 75.261C46.7979 75.7517 46.6646 76.3224 46.6646 76.973C46.6646 77.6344 46.7979 78.2157 47.0646 78.717C47.3419 79.2077 47.7046 79.5864 48.1526 79.853C48.6112 80.109 49.1072 80.237 49.6406 80.237C50.1846 80.237 50.6806 80.109 51.1286 79.853C51.5872 79.5864 51.9499 79.2077 52.2166 78.717C52.4832 78.2157 52.6166 77.629 52.6166 76.957ZM59.1251 81.517C58.4531 81.517 57.8504 81.405 57.3171 81.181C56.7837 80.9464 56.3624 80.6264 56.0531 80.221C55.7437 79.805 55.5731 79.3304 55.5411 78.797H57.0451C57.0877 79.2344 57.2904 79.5917 57.6531 79.869C58.0264 80.1464 58.5117 80.285 59.1091 80.285C59.6637 80.285 60.1011 80.1624 60.4211 79.917C60.7411 79.6717 60.9011 79.3624 60.9011 78.989C60.9011 78.605 60.7304 78.3224 60.3891 78.141C60.0477 77.949 59.5197 77.7624 58.8051 77.581C58.1544 77.4104 57.6211 77.2397 57.2051 77.069C56.7997 76.8877 56.4477 76.6264 56.1491 76.285C55.8611 75.933 55.7171 75.4744 55.7171 74.909C55.7171 74.461 55.8504 74.0504 56.1171 73.677C56.3837 73.3037 56.7624 73.0104 57.2531 72.797C57.7437 72.573 58.3037 72.461 58.9331 72.461C59.9037 72.461 60.6877 72.7064 61.2851 73.197C61.8824 73.6877 62.2024 74.3597 62.2451 75.213H60.7891C60.7571 74.7544 60.5704 74.3864 60.2291 74.109C59.8984 73.8317 59.4504 73.693 58.8851 73.693C58.3624 73.693 57.9464 73.805 57.6371 74.029C57.3277 74.253 57.1731 74.5464 57.1731 74.909C57.1731 75.197 57.2637 75.437 57.4451 75.629C57.6371 75.8104 57.8717 75.9597 58.1491 76.077C58.4371 76.1837 58.8317 76.3064 59.3331 76.445C59.9624 76.6157 60.4744 76.7864 60.8691 76.957C61.2637 77.117 61.5997 77.3624 61.8771 77.693C62.1651 78.0237 62.3144 78.4557 62.3251 78.989C62.3251 79.469 62.1917 79.901 61.9251 80.285C61.6584 80.669 61.2797 80.973 60.7891 81.197C60.3091 81.4104 59.7544 81.517 59.1251 81.517ZM63.8364 76.973C63.8364 76.0664 64.0178 75.277 64.3804 74.605C64.7431 73.9224 65.2444 73.3944 65.8844 73.021C66.5351 72.6477 67.2764 72.461 68.1084 72.461C69.1858 72.461 70.0711 72.7224 70.7644 73.245C71.4684 73.7677 71.9324 74.493 72.1564 75.421H70.5884C70.4391 74.8877 70.1458 74.4664 69.7084 74.157C69.2818 73.8477 68.7484 73.693 68.1084 73.693C67.2764 73.693 66.6044 73.981 66.0924 74.557C65.5804 75.1224 65.3244 75.9277 65.3244 76.973C65.3244 78.029 65.5804 78.845 66.0924 79.421C66.6044 79.997 67.2764 80.285 68.1084 80.285C68.7484 80.285 69.2818 80.1357 69.7084 79.837C70.1351 79.5384 70.4284 79.1117 70.5884 78.557H72.1564C71.9218 79.453 71.4524 80.173 70.7484 80.717C70.0444 81.2504 69.1644 81.517 68.1084 81.517C67.2764 81.517 66.5351 81.3304 65.8844 80.957C65.2444 80.5837 64.7431 80.0557 64.3804 79.373C64.0178 78.6904 63.8364 77.8904 63.8364 76.973ZM75.5552 74.029C75.8112 73.5277 76.1739 73.1384 76.6432 72.861C77.1232 72.5837 77.7045 72.445 78.3872 72.445V73.949H78.0032C76.3712 73.949 75.5552 74.8344 75.5552 76.605V81.373H74.0992V72.605H75.5552V74.029ZM80.8199 71.181C80.5426 71.181 80.3079 71.085 80.1159 70.893C79.9239 70.701 79.8279 70.4664 79.8279 70.189C79.8279 69.9117 79.9239 69.677 80.1159 69.485C80.3079 69.293 80.5426 69.197 80.8199 69.197C81.0866 69.197 81.3106 69.293 81.4919 69.485C81.6839 69.677 81.7799 69.9117 81.7799 70.189C81.7799 70.4664 81.6839 70.701 81.4919 70.893C81.3106 71.085 81.0866 71.181 80.8199 71.181ZM81.5239 72.605V81.373H80.0679V72.605H81.5239ZM85.4614 74.237C85.7601 73.7144 86.1974 73.2877 86.7734 72.957C87.3494 72.6264 88.0054 72.461 88.7414 72.461C89.5308 72.461 90.2401 72.6477 90.8694 73.021C91.4988 73.3944 91.9948 73.9224 92.3574 74.605C92.7201 75.277 92.9014 76.061 92.9014 76.957C92.9014 77.8424 92.7201 78.6317 92.3574 79.325C91.9948 80.0184 91.4934 80.557 90.8534 80.941C90.2241 81.325 89.5201 81.517 88.7414 81.517C87.9841 81.517 87.3174 81.3517 86.7414 81.021C86.1761 80.6904 85.7494 80.269 85.4614 79.757V81.373H84.0054V69.533H85.4614V74.237ZM91.4134 76.957C91.4134 76.2957 91.2801 75.7197 91.0134 75.229C90.7468 74.7384 90.3841 74.365 89.9254 74.109C89.4774 73.853 88.9814 73.725 88.4374 73.725C87.9041 73.725 87.4081 73.8584 86.9494 74.125C86.5014 74.381 86.1388 74.7597 85.8614 75.261C85.5948 75.7517 85.4614 76.3224 85.4614 76.973C85.4614 77.6344 85.5948 78.2157 85.8614 78.717C86.1388 79.2077 86.5014 79.5864 86.9494 79.853C87.4081 80.109 87.9041 80.237 88.4374 80.237C88.9814 80.237 89.4774 80.109 89.9254 79.853C90.3841 79.5864 90.7468 79.2077 91.0134 78.717C91.2801 78.2157 91.4134 77.629 91.4134 76.957ZM102.818 76.653C102.818 76.9304 102.802 77.2237 102.77 77.533H95.7619C95.8153 78.397 96.1086 79.0744 96.6419 79.565C97.1859 80.045 97.8419 80.285 98.6099 80.285C99.2393 80.285 99.7619 80.141 100.178 79.853C100.605 79.5544 100.903 79.1597 101.074 78.669H102.642C102.407 79.5117 101.938 80.1997 101.234 80.733C100.53 81.2557 99.6553 81.517 98.6099 81.517C97.7779 81.517 97.0313 81.3304 96.3699 80.957C95.7193 80.5837 95.2073 80.0557 94.8339 79.373C94.4606 78.6797 94.2739 77.8797 94.2739 76.973C94.2739 76.0664 94.4553 75.2717 94.8179 74.589C95.1806 73.9064 95.6873 73.3837 96.3379 73.021C96.9993 72.6477 97.7566 72.461 98.6099 72.461C99.4419 72.461 100.178 72.6424 100.818 73.005C101.458 73.3677 101.949 73.869 102.29 74.509C102.642 75.1384 102.818 75.853 102.818 76.653ZM101.314 76.349C101.314 75.7944 101.191 75.3197 100.946 74.925C100.701 74.5197 100.365 74.2157 99.9379 74.013C99.5219 73.7997 99.0579 73.693 98.5459 73.693C97.8099 73.693 97.1806 73.9277 96.6579 74.397C96.1459 74.8664 95.8526 75.517 95.7779 76.349H101.314ZM113.277 72.445C114.344 72.445 115.208 72.7704 115.869 73.421C116.531 74.061 116.861 74.989 116.861 76.205V81.373H115.421V76.413C115.421 75.5384 115.203 74.8717 114.765 74.413C114.328 73.9437 113.731 73.709 112.973 73.709C112.205 73.709 111.592 73.949 111.133 74.429C110.685 74.909 110.461 75.6077 110.461 76.525V81.373H109.005V72.605H110.461V73.853C110.749 73.405 111.139 73.0584 111.629 72.813C112.131 72.5677 112.68 72.445 113.277 72.445ZM123.064 81.517C122.242 81.517 121.496 81.3304 120.824 80.957C120.162 80.5837 119.64 80.0557 119.256 79.373C118.882 78.6797 118.696 77.8797 118.696 76.973C118.696 76.077 118.888 75.2877 119.272 74.605C119.666 73.9117 120.2 73.3837 120.872 73.021C121.544 72.6477 122.296 72.461 123.128 72.461C123.96 72.461 124.712 72.6477 125.384 73.021C126.056 73.3837 126.584 73.9064 126.968 74.589C127.362 75.2717 127.56 76.0664 127.56 76.973C127.56 77.8797 127.357 78.6797 126.952 79.373C126.557 80.0557 126.018 80.5837 125.336 80.957C124.653 81.3304 123.896 81.517 123.064 81.517ZM123.064 80.237C123.586 80.237 124.077 80.1144 124.536 79.869C124.994 79.6237 125.362 79.2557 125.64 78.765C125.928 78.2744 126.072 77.677 126.072 76.973C126.072 76.269 125.933 75.6717 125.656 75.181C125.378 74.6904 125.016 74.3277 124.568 74.093C124.12 73.8477 123.634 73.725 123.112 73.725C122.578 73.725 122.088 73.8477 121.64 74.093C121.202 74.3277 120.85 74.6904 120.584 75.181C120.317 75.6717 120.184 76.269 120.184 76.973C120.184 77.6877 120.312 78.2904 120.568 78.781C120.834 79.2717 121.186 79.6397 121.624 79.885C122.061 80.1197 122.541 80.237 123.064 80.237ZM141.154 72.605L138.418 81.373H136.914L134.802 74.413L132.69 81.373H131.186L128.434 72.605H129.922L131.938 79.965L134.114 72.605H135.602L137.73 79.981L139.714 72.605H141.154ZM148.641 73.805V78.973C148.641 79.3997 148.731 79.7037 148.913 79.885C149.094 80.0557 149.409 80.141 149.857 80.141H150.929V81.373H149.617C148.806 81.373 148.198 81.1864 147.793 80.813C147.387 80.4397 147.185 79.8264 147.185 78.973V73.805H146.049V72.605H147.185V70.397H148.641V72.605H150.929V73.805H148.641ZM156.517 81.517C155.696 81.517 154.949 81.3304 154.277 80.957C153.616 80.5837 153.093 80.0557 152.709 79.373C152.336 78.6797 152.149 77.8797 152.149 76.973C152.149 76.077 152.341 75.2877 152.725 74.605C153.12 73.9117 153.653 73.3837 154.325 73.021C154.997 72.6477 155.749 72.461 156.581 72.461C157.413 72.461 158.165 72.6477 158.837 73.021C159.509 73.3837 160.037 73.9064 160.421 74.589C160.816 75.2717 161.013 76.0664 161.013 76.973C161.013 77.8797 160.81 78.6797 160.405 79.373C160.01 80.0557 159.472 80.5837 158.789 80.957C158.106 81.3304 157.349 81.517 156.517 81.517ZM156.517 80.237C157.04 80.237 157.53 80.1144 157.989 79.869C158.448 79.6237 158.816 79.2557 159.093 78.765C159.381 78.2744 159.525 77.677 159.525 76.973C159.525 76.269 159.386 75.6717 159.109 75.181C158.832 74.6904 158.469 74.3277 158.021 74.093C157.573 73.8477 157.088 73.725 156.565 73.725C156.032 73.725 155.541 73.8477 155.093 74.093C154.656 74.3277 154.304 74.6904 154.037 75.181C153.77 75.6717 153.637 76.269 153.637 76.973C153.637 77.6877 153.765 78.2904 154.021 78.781C154.288 79.2717 154.64 79.6397 155.077 79.885C155.514 80.1197 155.994 80.237 156.517 80.237ZM168.649 74.029C168.905 73.5277 169.268 73.1384 169.737 72.861C170.217 72.5837 170.798 72.445 171.481 72.445V73.949H171.097C169.465 73.949 168.649 74.8344 168.649 76.605V81.373H167.193V72.605H168.649V74.029ZM181.162 76.653C181.162 76.9304 181.146 77.2237 181.114 77.533H174.106C174.159 78.397 174.452 79.0744 174.986 79.565C175.53 80.045 176.186 80.285 176.954 80.285C177.583 80.285 178.106 80.141 178.522 79.853C178.948 79.5544 179.247 79.1597 179.418 78.669H180.986C180.751 79.5117 180.282 80.1997 179.578 80.733C178.874 81.2557 177.999 81.517 176.954 81.517C176.122 81.517 175.375 81.3304 174.714 80.957C174.063 80.5837 173.551 80.0557 173.178 79.373C172.804 78.6797 172.618 77.8797 172.618 76.973C172.618 76.0664 172.799 75.2717 173.162 74.589C173.524 73.9064 174.031 73.3837 174.682 73.021C175.343 72.6477 176.1 72.461 176.954 72.461C177.786 72.461 178.522 72.6424 179.162 73.005C179.802 73.3677 180.292 73.869 180.634 74.509C180.986 75.1384 181.162 75.853 181.162 76.653ZM179.658 76.349C179.658 75.7944 179.535 75.3197 179.29 74.925C179.044 74.5197 178.708 74.2157 178.282 74.013C177.866 73.7997 177.402 73.693 176.89 73.693C176.154 73.693 175.524 73.9277 175.002 74.397C174.49 74.8664 174.196 75.517 174.122 76.349H179.658ZM182.54 76.973C182.54 76.0664 182.721 75.277 183.084 74.605C183.446 73.9224 183.948 73.3944 184.588 73.021C185.238 72.6477 185.98 72.461 186.812 72.461C187.889 72.461 188.774 72.7224 189.468 73.245C190.172 73.7677 190.636 74.493 190.86 75.421H189.292C189.142 74.8877 188.849 74.4664 188.412 74.157C187.985 73.8477 187.452 73.693 186.812 73.693C185.98 73.693 185.308 73.981 184.796 74.557C184.284 75.1224 184.028 75.9277 184.028 76.973C184.028 78.029 184.284 78.845 184.796 79.421C185.308 79.997 185.98 80.285 186.812 80.285C187.452 80.285 187.985 80.1357 188.412 79.837C188.838 79.5384 189.132 79.1117 189.292 78.557H190.86C190.625 79.453 190.156 80.173 189.452 80.717C188.748 81.2504 187.868 81.517 186.812 81.517C185.98 81.517 185.238 81.3304 184.588 80.957C183.948 80.5837 183.446 80.0557 183.084 79.373C182.721 78.6904 182.54 77.8904 182.54 76.973ZM200.802 76.653C200.802 76.9304 200.786 77.2237 200.754 77.533H193.746C193.8 78.397 194.093 79.0744 194.626 79.565C195.17 80.045 195.826 80.285 196.594 80.285C197.224 80.285 197.746 80.141 198.162 79.853C198.589 79.5544 198.888 79.1597 199.058 78.669H200.626C200.392 79.5117 199.922 80.1997 199.218 80.733C198.514 81.2557 197.64 81.517 196.594 81.517C195.762 81.517 195.016 81.3304 194.354 80.957C193.704 80.5837 193.192 80.0557 192.818 79.373C192.445 78.6797 192.258 77.8797 192.258 76.973C192.258 76.0664 192.44 75.2717 192.802 74.589C193.165 73.9064 193.672 73.3837 194.322 73.021C194.984 72.6477 195.741 72.461 196.594 72.461C197.426 72.461 198.162 72.6424 198.802 73.005C199.442 73.3677 199.933 73.869 200.274 74.509C200.626 75.1384 200.802 75.853 200.802 76.653ZM199.298 76.349C199.298 75.7944 199.176 75.3197 198.93 74.925C198.685 74.5197 198.349 74.2157 197.922 74.013C197.506 73.7997 197.042 73.693 196.53 73.693C195.794 73.693 195.165 73.9277 194.642 74.397C194.13 74.8664 193.837 75.517 193.762 76.349H199.298ZM203.476 71.181C203.199 71.181 202.964 71.085 202.772 70.893C202.58 70.701 202.484 70.4664 202.484 70.189C202.484 69.9117 202.58 69.677 202.772 69.485C202.964 69.293 203.199 69.197 203.476 69.197C203.743 69.197 203.967 69.293 204.148 69.485C204.34 69.677 204.436 69.9117 204.436 70.189C204.436 70.4664 204.34 70.701 204.148 70.893C203.967 71.085 203.743 71.181 203.476 71.181ZM204.18 72.605V81.373H202.724V72.605H204.18ZM209.926 80.029L212.646 72.605H214.198L210.758 81.373H209.062L205.622 72.605H207.19L209.926 80.029ZM223.63 76.653C223.63 76.9304 223.614 77.2237 223.582 77.533H216.574C216.628 78.397 216.921 79.0744 217.454 79.565C217.998 80.045 218.654 80.285 219.422 80.285C220.052 80.285 220.574 80.141 220.99 79.853C221.417 79.5544 221.716 79.1597 221.886 78.669H223.454C223.22 79.5117 222.75 80.1997 222.046 80.733C221.342 81.2557 220.468 81.517 219.422 81.517C218.59 81.517 217.844 81.3304 217.182 80.957C216.532 80.5837 216.02 80.0557 215.646 79.373C215.273 78.6797 215.086 77.8797 215.086 76.973C215.086 76.0664 215.268 75.2717 215.63 74.589C215.993 73.9064 216.5 73.3837 217.15 73.021C217.812 72.6477 218.569 72.461 219.422 72.461C220.254 72.461 220.99 72.6424 221.63 73.005C222.27 73.3677 222.761 73.869 223.102 74.509C223.454 75.1384 223.63 75.853 223.63 76.653ZM222.126 76.349C222.126 75.7944 222.004 75.3197 221.758 74.925C221.513 74.5197 221.177 74.2157 220.75 74.013C220.334 73.7997 219.87 73.693 219.358 73.693C218.622 73.693 217.993 73.9277 217.47 74.397C216.958 74.8664 216.665 75.517 216.59 76.349H222.126ZM235.86 73.805V78.973C235.86 79.3997 235.95 79.7037 236.132 79.885C236.313 80.0557 236.628 80.141 237.076 80.141H238.148V81.373H236.836C236.025 81.373 235.417 81.1864 235.012 80.813C234.606 80.4397 234.404 79.8264 234.404 78.973V73.805H233.268V72.605H234.404V70.397H235.86V72.605H238.148V73.805H235.86ZM240.664 71.181C240.386 71.181 240.152 71.085 239.96 70.893C239.768 70.701 239.672 70.4664 239.672 70.189C239.672 69.9117 239.768 69.677 239.96 69.485C240.152 69.293 240.386 69.197 240.664 69.197C240.93 69.197 241.154 69.293 241.336 69.485C241.528 69.677 241.624 69.9117 241.624 70.189C241.624 70.4664 241.528 70.701 241.336 70.893C241.154 71.085 240.93 71.181 240.664 71.181ZM241.368 72.605V81.373H239.912V72.605H241.368ZM245.305 74.221C245.593 73.7197 246.02 73.3037 246.585 72.973C247.161 72.6317 247.828 72.461 248.585 72.461C249.364 72.461 250.068 72.6477 250.697 73.021C251.337 73.3944 251.839 73.9224 252.201 74.605C252.564 75.277 252.745 76.061 252.745 76.957C252.745 77.8424 252.564 78.6317 252.201 79.325C251.839 80.0184 251.337 80.557 250.697 80.941C250.068 81.325 249.364 81.517 248.585 81.517C247.839 81.517 247.177 81.3517 246.601 81.021C246.036 80.6797 245.604 80.2584 245.305 79.757V85.533H243.849V72.605H245.305V74.221ZM251.257 76.957C251.257 76.2957 251.124 75.7197 250.857 75.229C250.591 74.7384 250.228 74.365 249.769 74.109C249.321 73.853 248.825 73.725 248.281 73.725C247.748 73.725 247.252 73.8584 246.793 74.125C246.345 74.381 245.983 74.7597 245.705 75.261C245.439 75.7517 245.305 76.3224 245.305 76.973C245.305 77.6344 245.439 78.2157 245.705 78.717C245.983 79.2077 246.345 79.5864 246.793 79.853C247.252 80.109 247.748 80.237 248.281 80.237C248.825 80.237 249.321 80.109 249.769 79.853C250.228 79.5864 250.591 79.2077 250.857 78.717C251.124 78.2157 251.257 77.629 251.257 76.957ZM257.766 81.517C257.094 81.517 256.491 81.405 255.958 81.181C255.424 80.9464 255.003 80.6264 254.694 80.221C254.384 79.805 254.214 79.3304 254.182 78.797H255.686C255.728 79.2344 255.931 79.5917 256.294 79.869C256.667 80.1464 257.152 80.285 257.75 80.285C258.304 80.285 258.742 80.1624 259.062 79.917C259.382 79.6717 259.542 79.3624 259.542 78.989C259.542 78.605 259.371 78.3224 259.03 78.141C258.688 77.949 258.16 77.7624 257.446 77.581C256.795 77.4104 256.262 77.2397 255.846 77.069C255.44 76.8877 255.088 76.6264 254.79 76.285C254.502 75.933 254.358 75.4744 254.358 74.909C254.358 74.461 254.491 74.0504 254.758 73.677C255.024 73.3037 255.403 73.0104 255.894 72.797C256.384 72.573 256.944 72.461 257.574 72.461C258.544 72.461 259.328 72.7064 259.926 73.197C260.523 73.6877 260.843 74.3597 260.886 75.213H259.43C259.398 74.7544 259.211 74.3864 258.87 74.109C258.539 73.8317 258.091 73.693 257.526 73.693C257.003 73.693 256.587 73.805 256.278 74.029C255.968 74.253 255.814 74.5464 255.814 74.909C255.814 75.197 255.904 75.437 256.086 75.629C256.278 75.8104 256.512 75.9597 256.79 76.077C257.078 76.1837 257.472 76.3064 257.974 76.445C258.603 76.6157 259.115 76.7864 259.51 76.957C259.904 77.117 260.24 77.3624 260.518 77.693C260.806 78.0237 260.955 78.4557 260.966 78.989C260.966 79.469 260.832 79.901 260.566 80.285C260.299 80.669 259.92 80.973 259.43 81.197C258.95 81.4104 258.395 81.517 257.766 81.517ZM271.111 81.517C270.289 81.517 269.543 81.3304 268.871 80.957C268.209 80.5837 267.687 80.0557 267.303 79.373C266.929 78.6797 266.743 77.8797 266.743 76.973C266.743 76.077 266.935 75.2877 267.319 74.605C267.713 73.9117 268.247 73.3837 268.919 73.021C269.591 72.6477 270.343 72.461 271.175 72.461C272.007 72.461 272.759 72.6477 273.431 73.021C274.103 73.3837 274.631 73.9064 275.015 74.589C275.409 75.2717 275.607 76.0664 275.607 76.973C275.607 77.8797 275.404 78.6797 274.999 79.373C274.604 80.0557 274.065 80.5837 273.383 80.957C272.7 81.3304 271.943 81.517 271.111 81.517ZM271.111 80.237C271.633 80.237 272.124 80.1144 272.583 79.869C273.041 79.6237 273.409 79.2557 273.687 78.765C273.975 78.2744 274.119 77.677 274.119 76.973C274.119 76.269 273.98 75.6717 273.703 75.181C273.425 74.6904 273.063 74.3277 272.615 74.093C272.167 73.8477 271.681 73.725 271.159 73.725C270.625 73.725 270.135 73.8477 269.687 74.093C269.249 74.3277 268.897 74.6904 268.631 75.181C268.364 75.6717 268.231 76.269 268.231 76.973C268.231 77.6877 268.359 78.2904 268.615 78.781C268.881 79.2717 269.233 79.6397 269.671 79.885C270.108 80.1197 270.588 80.237 271.111 80.237ZM281.793 72.445C282.86 72.445 283.724 72.7704 284.385 73.421C285.046 74.061 285.377 74.989 285.377 76.205V81.373H283.937V76.413C283.937 75.5384 283.718 74.8717 283.281 74.413C282.844 73.9437 282.246 73.709 281.489 73.709C280.721 73.709 280.108 73.949 279.649 74.429C279.201 74.909 278.977 75.6077 278.977 76.525V81.373H277.521V72.605H278.977V73.853C279.265 73.405 279.654 73.0584 280.145 72.813C280.646 72.5677 281.196 72.445 281.793 72.445ZM296.373 72.445C297.034 72.445 297.632 72.589 298.165 72.877C298.698 73.1544 299.114 73.5757 299.413 74.141C299.722 74.7064 299.877 75.3944 299.877 76.205V81.373H298.437V76.413C298.437 75.5384 298.218 74.8717 297.781 74.413C297.344 73.9437 296.746 73.709 295.989 73.709C295.221 73.709 294.608 73.949 294.149 74.429C293.701 74.909 293.477 75.6077 293.477 76.525V81.373H292.021V69.533H293.477V73.853C293.765 73.405 294.16 73.0584 294.661 72.813C295.173 72.5677 295.744 72.445 296.373 72.445ZM306.079 81.517C305.258 81.517 304.511 81.3304 303.839 80.957C303.178 80.5837 302.655 80.0557 302.271 79.373C301.898 78.6797 301.711 77.8797 301.711 76.973C301.711 76.077 301.903 75.2877 302.287 74.605C302.682 73.9117 303.215 73.3837 303.887 73.021C304.559 72.6477 305.311 72.461 306.143 72.461C306.975 72.461 307.727 72.6477 308.399 73.021C309.071 73.3837 309.599 73.9064 309.983 74.589C310.378 75.2717 310.575 76.0664 310.575 76.973C310.575 77.8797 310.373 78.6797 309.967 79.373C309.573 80.0557 309.034 80.5837 308.351 80.957C307.669 81.3304 306.911 81.517 306.079 81.517ZM306.079 80.237C306.602 80.237 307.093 80.1144 307.551 79.869C308.01 79.6237 308.378 79.2557 308.655 78.765C308.943 78.2744 309.087 77.677 309.087 76.973C309.087 76.269 308.949 75.6717 308.671 75.181C308.394 74.6904 308.031 74.3277 307.583 74.093C307.135 73.8477 306.65 73.725 306.127 73.725C305.594 73.725 305.103 73.8477 304.655 74.093C304.218 74.3277 303.866 74.6904 303.599 75.181C303.333 75.6717 303.199 76.269 303.199 76.973C303.199 77.6877 303.327 78.2904 303.583 78.781C303.85 79.2717 304.202 79.6397 304.639 79.885C305.077 80.1197 305.557 80.237 306.079 80.237ZM324.17 72.605L321.434 81.373H319.93L317.818 74.413L315.706 81.373H314.202L311.45 72.605H312.938L314.954 79.965L317.13 72.605H318.618L320.746 79.981L322.73 72.605H324.17ZM331.656 73.805V78.973C331.656 79.3997 331.747 79.7037 331.928 79.885C332.11 80.0557 332.424 80.141 332.872 80.141H333.944V81.373H332.632C331.822 81.373 331.214 81.1864 330.808 80.813C330.403 80.4397 330.2 79.8264 330.2 78.973V73.805H329.064V72.605H330.2V70.397H331.656V72.605H333.944V73.805H331.656ZM339.533 81.517C338.711 81.517 337.965 81.3304 337.293 80.957C336.631 80.5837 336.109 80.0557 335.725 79.373C335.351 78.6797 335.165 77.8797 335.165 76.973C335.165 76.077 335.357 75.2877 335.741 74.605C336.135 73.9117 336.669 73.3837 337.341 73.021C338.013 72.6477 338.765 72.461 339.597 72.461C340.429 72.461 341.181 72.6477 341.853 73.021C342.525 73.3837 343.053 73.9064 343.437 74.589C343.831 75.2717 344.029 76.0664 344.029 76.973C344.029 77.8797 343.826 78.6797 343.421 79.373C343.026 80.0557 342.487 80.5837 341.805 80.957C341.122 81.3304 340.365 81.517 339.533 81.517ZM339.533 80.237C340.055 80.237 340.546 80.1144 341.005 79.869C341.463 79.6237 341.831 79.2557 342.109 78.765C342.397 78.2744 342.541 77.677 342.541 76.973C342.541 76.269 342.402 75.6717 342.125 75.181C341.847 74.6904 341.485 74.3277 341.037 74.093C340.589 73.8477 340.103 73.725 339.581 73.725C339.047 73.725 338.557 73.8477 338.109 74.093C337.671 74.3277 337.319 74.6904 337.053 75.181C336.786 75.6717 336.653 76.269 336.653 76.973C336.653 77.6877 336.781 78.2904 337.037 78.781C337.303 79.2717 337.655 79.6397 338.093 79.885C338.53 80.1197 339.01 80.237 339.533 80.237ZM27.3596 97.805V102.973C27.3596 103.4 27.4502 103.704 27.6316 103.885C27.8129 104.056 28.1276 104.141 28.5756 104.141H29.6476V105.373H28.3356C27.5249 105.373 26.9169 105.186 26.5116 104.813C26.1062 104.44 25.9036 103.826 25.9036 102.973V97.805H24.7676V96.605H25.9036V94.397H27.3596V96.605H29.6476V97.805H27.3596ZM30.8677 100.957C30.8677 100.061 31.049 99.277 31.4117 98.605C31.7744 97.9224 32.2704 97.3944 32.8997 97.021C33.5397 96.6477 34.249 96.461 35.0277 96.461C35.7957 96.461 36.4624 96.6264 37.0277 96.957C37.593 97.2877 38.0144 97.7037 38.2917 98.205V96.605H39.7637V105.373H38.2917V103.741C38.0037 104.253 37.5717 104.68 36.9957 105.021C36.4304 105.352 35.769 105.517 35.0117 105.517C34.233 105.517 33.529 105.325 32.8997 104.941C32.2704 104.557 31.7744 104.018 31.4117 103.325C31.049 102.632 30.8677 101.842 30.8677 100.957ZM38.2917 100.973C38.2917 100.312 38.1584 99.7357 37.8917 99.245C37.625 98.7544 37.2624 98.381 36.8037 98.125C36.3557 97.8584 35.8597 97.725 35.3157 97.725C34.7717 97.725 34.2757 97.853 33.8277 98.109C33.3797 98.365 33.0224 98.7384 32.7557 99.229C32.489 99.7197 32.3557 100.296 32.3557 100.957C32.3557 101.629 32.489 102.216 32.7557 102.717C33.0224 103.208 33.3797 103.586 33.8277 103.853C34.2757 104.109 34.7717 104.237 35.3157 104.237C35.8597 104.237 36.3557 104.109 36.8037 103.853C37.2624 103.586 37.625 103.208 37.8917 102.717C38.1584 102.216 38.2917 101.634 38.2917 100.973ZM47.1202 105.373L43.6802 101.501V105.373H42.2242V93.533H43.6802V100.493L47.0562 96.605H49.0882L44.9602 100.973L49.1042 105.373H47.1202ZM58.4586 100.653C58.4586 100.93 58.4426 101.224 58.4106 101.533H51.4026C51.4559 102.397 51.7492 103.074 52.2826 103.565C52.8266 104.045 53.4826 104.285 54.2506 104.285C54.8799 104.285 55.4026 104.141 55.8186 103.853C56.2452 103.554 56.5439 103.16 56.7146 102.669H58.2826C58.0479 103.512 57.5786 104.2 56.8746 104.733C56.1706 105.256 55.2959 105.517 54.2506 105.517C53.4186 105.517 52.6719 105.33 52.0106 104.957C51.3599 104.584 50.8479 104.056 50.4746 103.373C50.1012 102.68 49.9146 101.88 49.9146 100.973C49.9146 100.066 50.0959 99.2717 50.4586 98.589C50.8212 97.9064 51.3279 97.3837 51.9786 97.021C52.6399 96.6477 53.3972 96.461 54.2506 96.461C55.0826 96.461 55.8186 96.6424 56.4586 97.005C57.0986 97.3677 57.5892 97.869 57.9306 98.509C58.2826 99.1384 58.4586 99.853 58.4586 100.653ZM56.9546 100.349C56.9546 99.7944 56.8319 99.3197 56.5866 98.925C56.3412 98.5197 56.0052 98.2157 55.5786 98.013C55.1626 97.7997 54.6986 97.693 54.1866 97.693C53.4506 97.693 52.8212 97.9277 52.2986 98.397C51.7866 98.8664 51.4932 99.517 51.4186 100.349H56.9546ZM72.1981 96.605L66.9181 109.501H65.4141L67.1421 105.277L63.6061 96.605H65.2221L67.9741 103.709L70.6941 96.605H72.1981ZM77.4857 105.517C76.6644 105.517 75.9177 105.33 75.2457 104.957C74.5844 104.584 74.0617 104.056 73.6777 103.373C73.3044 102.68 73.1177 101.88 73.1177 100.973C73.1177 100.077 73.3097 99.2877 73.6937 98.605C74.0884 97.9117 74.6217 97.3837 75.2937 97.021C75.9657 96.6477 76.7177 96.461 77.5497 96.461C78.3817 96.461 79.1337 96.6477 79.8057 97.021C80.4777 97.3837 81.0057 97.9064 81.3897 98.589C81.7844 99.2717 81.9817 100.066 81.9817 100.973C81.9817 101.88 81.779 102.68 81.3737 103.373C80.979 104.056 80.4404 104.584 79.7577 104.957C79.075 105.33 78.3177 105.517 77.4857 105.517ZM77.4857 104.237C78.0084 104.237 78.499 104.114 78.9577 103.869C79.4164 103.624 79.7844 103.256 80.0617 102.765C80.3497 102.274 80.4937 101.677 80.4937 100.973C80.4937 100.269 80.355 99.6717 80.0777 99.181C79.8004 98.6904 79.4377 98.3277 78.9897 98.093C78.5417 97.8477 78.0564 97.725 77.5337 97.725C77.0004 97.725 76.5097 97.8477 76.0617 98.093C75.6244 98.3277 75.2724 98.6904 75.0057 99.181C74.739 99.6717 74.6057 100.269 74.6057 100.973C74.6057 101.688 74.7337 102.29 74.9897 102.781C75.2564 103.272 75.6084 103.64 76.0457 103.885C76.483 104.12 76.963 104.237 77.4857 104.237ZM91.6721 96.605V105.373H90.2161V104.077C89.9387 104.525 89.5494 104.877 89.0481 105.133C88.5574 105.378 88.0134 105.501 87.4161 105.501C86.7334 105.501 86.1201 105.362 85.5761 105.085C85.0321 104.797 84.6001 104.37 84.2801 103.805C83.9707 103.24 83.8161 102.552 83.8161 101.741V96.605H85.2561V101.549C85.2561 102.413 85.4747 103.08 85.9121 103.549C86.3494 104.008 86.9467 104.237 87.7041 104.237C88.4827 104.237 89.0961 103.997 89.5441 103.517C89.9921 103.037 90.2161 102.338 90.2161 101.421V96.605H91.6721ZM95.5864 98.029C95.8424 97.5277 96.2051 97.1384 96.6744 96.861C97.1544 96.5837 97.7358 96.445 98.4184 96.445V97.949H98.0344C96.4024 97.949 95.5864 98.8344 95.5864 100.605V105.373H94.1304V96.605H95.5864V98.029ZM105.821 98.237C106.119 97.7144 106.557 97.2877 107.133 96.957C107.709 96.6264 108.365 96.461 109.101 96.461C109.89 96.461 110.599 96.6477 111.229 97.021C111.858 97.3944 112.354 97.9224 112.717 98.605C113.079 99.277 113.261 100.061 113.261 100.957C113.261 101.842 113.079 102.632 112.717 103.325C112.354 104.018 111.853 104.557 111.213 104.941C110.583 105.325 109.879 105.517 109.101 105.517C108.343 105.517 107.677 105.352 107.101 105.021C106.535 104.69 106.109 104.269 105.821 103.757V105.373H104.365V93.533H105.821V98.237ZM111.773 100.957C111.773 100.296 111.639 99.7197 111.373 99.229C111.106 98.7384 110.743 98.365 110.285 98.109C109.837 97.853 109.341 97.725 108.797 97.725C108.263 97.725 107.767 97.8584 107.309 98.125C106.861 98.381 106.498 98.7597 106.221 99.261C105.954 99.7517 105.821 100.322 105.821 100.973C105.821 101.634 105.954 102.216 106.221 102.717C106.498 103.208 106.861 103.586 107.309 103.853C107.767 104.109 108.263 104.237 108.797 104.237C109.341 104.237 109.837 104.109 110.285 103.853C110.743 103.586 111.106 103.208 111.373 102.717C111.639 102.216 111.773 101.629 111.773 100.957ZM122.953 96.605V105.373H121.497V104.077C121.22 104.525 120.831 104.877 120.329 105.133C119.839 105.378 119.295 105.501 118.697 105.501C118.015 105.501 117.401 105.362 116.857 105.085C116.313 104.797 115.881 104.37 115.561 103.805C115.252 103.24 115.097 102.552 115.097 101.741V96.605H116.537V101.549C116.537 102.413 116.756 103.08 117.193 103.549C117.631 104.008 118.228 104.237 118.985 104.237C119.764 104.237 120.377 103.997 120.825 103.517C121.273 103.037 121.497 102.338 121.497 101.421V96.605H122.953ZM128.516 105.517C127.844 105.517 127.241 105.405 126.708 105.181C126.174 104.946 125.753 104.626 125.444 104.221C125.134 103.805 124.964 103.33 124.932 102.797H126.436C126.478 103.234 126.681 103.592 127.044 103.869C127.417 104.146 127.902 104.285 128.5 104.285C129.054 104.285 129.492 104.162 129.812 103.917C130.132 103.672 130.292 103.362 130.292 102.989C130.292 102.605 130.121 102.322 129.78 102.141C129.438 101.949 128.91 101.762 128.196 101.581C127.545 101.41 127.012 101.24 126.596 101.069C126.19 100.888 125.838 100.626 125.54 100.285C125.252 99.933 125.108 99.4744 125.108 98.909C125.108 98.461 125.241 98.0504 125.508 97.677C125.774 97.3037 126.153 97.0104 126.644 96.797C127.134 96.573 127.694 96.461 128.324 96.461C129.294 96.461 130.078 96.7064 130.676 97.197C131.273 97.6877 131.593 98.3597 131.636 99.213H130.18C130.148 98.7544 129.961 98.3864 129.62 98.109C129.289 97.8317 128.841 97.693 128.276 97.693C127.753 97.693 127.337 97.805 127.028 98.029C126.718 98.253 126.564 98.5464 126.564 98.909C126.564 99.197 126.654 99.437 126.836 99.629C127.028 99.8104 127.262 99.9597 127.54 100.077C127.828 100.184 128.222 100.306 128.724 100.445C129.353 100.616 129.865 100.786 130.26 100.957C130.654 101.117 130.99 101.362 131.268 101.693C131.556 102.024 131.705 102.456 131.716 102.989C131.716 103.469 131.582 103.901 131.316 104.285C131.049 104.669 130.67 104.973 130.18 105.197C129.7 105.41 129.145 105.517 128.516 105.517ZM134.523 95.181C134.246 95.181 134.011 95.085 133.819 94.893C133.627 94.701 133.531 94.4664 133.531 94.189C133.531 93.9117 133.627 93.677 133.819 93.485C134.011 93.293 134.246 93.197 134.523 93.197C134.79 93.197 135.014 93.293 135.195 93.485C135.387 93.677 135.483 93.9117 135.483 94.189C135.483 94.4664 135.387 94.701 135.195 94.893C135.014 95.085 134.79 95.181 134.523 95.181ZM135.227 96.605V105.373H133.771V96.605H135.227ZM141.981 96.445C143.047 96.445 143.911 96.7704 144.573 97.421C145.234 98.061 145.565 98.989 145.565 100.205V105.373H144.125V100.413C144.125 99.5384 143.906 98.8717 143.469 98.413C143.031 97.9437 142.434 97.709 141.677 97.709C140.909 97.709 140.295 97.949 139.837 98.429C139.389 98.909 139.165 99.6077 139.165 100.525V105.373H137.709V96.605H139.165V97.853C139.453 97.405 139.842 97.0584 140.333 96.813C140.834 96.5677 141.383 96.445 141.981 96.445ZM155.943 100.653C155.943 100.93 155.927 101.224 155.895 101.533H148.887C148.94 102.397 149.234 103.074 149.767 103.565C150.311 104.045 150.967 104.285 151.735 104.285C152.364 104.285 152.887 104.141 153.303 103.853C153.73 103.554 154.028 103.16 154.199 102.669H155.767C155.532 103.512 155.063 104.2 154.359 104.733C153.655 105.256 152.78 105.517 151.735 105.517C150.903 105.517 150.156 105.33 149.495 104.957C148.844 104.584 148.332 104.056 147.959 103.373C147.586 102.68 147.399 101.88 147.399 100.973C147.399 100.066 147.58 99.2717 147.943 98.589C148.306 97.9064 148.812 97.3837 149.463 97.021C150.124 96.6477 150.882 96.461 151.735 96.461C152.567 96.461 153.303 96.6424 153.943 97.005C154.583 97.3677 155.074 97.869 155.415 98.509C155.767 99.1384 155.943 99.853 155.943 100.653ZM154.439 100.349C154.439 99.7944 154.316 99.3197 154.071 98.925C153.826 98.5197 153.49 98.2157 153.063 98.013C152.647 97.7997 152.183 97.693 151.671 97.693C150.935 97.693 150.306 97.9277 149.783 98.397C149.271 98.8664 148.978 99.517 148.903 100.349H154.439ZM160.969 105.517C160.297 105.517 159.694 105.405 159.161 105.181C158.627 104.946 158.206 104.626 157.897 104.221C157.587 103.805 157.417 103.33 157.385 102.797H158.889C158.931 103.234 159.134 103.592 159.497 103.869C159.87 104.146 160.355 104.285 160.953 104.285C161.507 104.285 161.945 104.162 162.265 103.917C162.585 103.672 162.745 103.362 162.745 102.989C162.745 102.605 162.574 102.322 162.233 102.141C161.891 101.949 161.363 101.762 160.649 101.581C159.998 101.41 159.465 101.24 159.049 101.069C158.643 100.888 158.291 100.626 157.993 100.285C157.705 99.933 157.561 99.4744 157.561 98.909C157.561 98.461 157.694 98.0504 157.961 97.677C158.227 97.3037 158.606 97.0104 159.097 96.797C159.587 96.573 160.147 96.461 160.777 96.461C161.747 96.461 162.531 96.7064 163.129 97.197C163.726 97.6877 164.046 98.3597 164.089 99.213H162.633C162.601 98.7544 162.414 98.3864 162.073 98.109C161.742 97.8317 161.294 97.693 160.729 97.693C160.206 97.693 159.79 97.805 159.481 98.029C159.171 98.253 159.017 98.5464 159.017 98.909C159.017 99.197 159.107 99.437 159.289 99.629C159.481 99.8104 159.715 99.9597 159.993 100.077C160.281 100.184 160.675 100.306 161.177 100.445C161.806 100.616 162.318 100.786 162.713 100.957C163.107 101.117 163.443 101.362 163.721 101.693C164.009 102.024 164.158 102.456 164.169 102.989C164.169 103.469 164.035 103.901 163.769 104.285C163.502 104.669 163.123 104.973 162.633 105.197C162.153 105.41 161.598 105.517 160.969 105.517ZM169.328 105.517C168.656 105.517 168.054 105.405 167.52 105.181C166.987 104.946 166.566 104.626 166.256 104.221C165.947 103.805 165.776 103.33 165.744 102.797H167.248C167.291 103.234 167.494 103.592 167.856 103.869C168.23 104.146 168.715 104.285 169.312 104.285C169.867 104.285 170.304 104.162 170.624 103.917C170.944 103.672 171.104 103.362 171.104 102.989C171.104 102.605 170.934 102.322 170.592 102.141C170.251 101.949 169.723 101.762 169.008 101.581C168.358 101.41 167.824 101.24 167.408 101.069C167.003 100.888 166.651 100.626 166.352 100.285C166.064 99.933 165.92 99.4744 165.92 98.909C165.92 98.461 166.054 98.0504 166.32 97.677C166.587 97.3037 166.966 97.0104 167.456 96.797C167.947 96.573 168.507 96.461 169.136 96.461C170.107 96.461 170.891 96.7064 171.488 97.197C172.086 97.6877 172.406 98.3597 172.448 99.213H170.992C170.96 98.7544 170.774 98.3864 170.432 98.109C170.102 97.8317 169.654 97.693 169.088 97.693C168.566 97.693 168.15 97.805 167.84 98.029C167.531 98.253 167.376 98.5464 167.376 98.909C167.376 99.197 167.467 99.437 167.648 99.629C167.84 99.8104 168.075 99.9597 168.352 100.077C168.64 100.184 169.035 100.306 169.536 100.445C170.166 100.616 170.678 100.786 171.072 100.957C171.467 101.117 171.803 101.362 172.08 101.693C172.368 102.024 172.518 102.456 172.528 102.989C172.528 103.469 172.395 103.901 172.128 104.285C171.862 104.669 171.483 104.973 170.992 105.197C170.512 105.41 169.958 105.517 169.328 105.517ZM180.625 97.805V102.973C180.625 103.4 180.716 103.704 180.897 103.885C181.079 104.056 181.393 104.141 181.841 104.141H182.913V105.373H181.601C180.791 105.373 180.183 105.186 179.777 104.813C179.372 104.44 179.169 103.826 179.169 102.973V97.805H178.033V96.605H179.169V94.397H180.625V96.605H182.913V97.805H180.625ZM188.501 105.517C187.68 105.517 186.933 105.33 186.261 104.957C185.6 104.584 185.077 104.056 184.693 103.373C184.32 102.68 184.133 101.88 184.133 100.973C184.133 100.077 184.325 99.2877 184.709 98.605C185.104 97.9117 185.637 97.3837 186.309 97.021C186.981 96.6477 187.733 96.461 188.565 96.461C189.397 96.461 190.149 96.6477 190.821 97.021C191.493 97.3837 192.021 97.9064 192.405 98.589C192.8 99.2717 192.997 100.066 192.997 100.973C192.997 101.88 192.795 102.68 192.389 103.373C191.995 104.056 191.456 104.584 190.773 104.957C190.091 105.33 189.333 105.517 188.501 105.517ZM188.501 104.237C189.024 104.237 189.515 104.114 189.973 103.869C190.432 103.624 190.8 103.256 191.077 102.765C191.365 102.274 191.509 101.677 191.509 100.973C191.509 100.269 191.371 99.6717 191.093 99.181C190.816 98.6904 190.453 98.3277 190.005 98.093C189.557 97.8477 189.072 97.725 188.549 97.725C188.016 97.725 187.525 97.8477 187.077 98.093C186.64 98.3277 186.288 98.6904 186.021 99.181C185.755 99.6717 185.621 100.269 185.621 100.973C185.621 101.688 185.749 102.29 186.005 102.781C186.272 103.272 186.624 103.64 187.061 103.885C187.499 104.12 187.979 104.237 188.501 104.237ZM200.953 97.805V102.973C200.953 103.4 201.044 103.704 201.225 103.885C201.407 104.056 201.721 104.141 202.169 104.141H203.241V105.373H201.929C201.119 105.373 200.511 105.186 200.105 104.813C199.7 104.44 199.497 103.826 199.497 102.973V97.805H198.361V96.605H199.497V94.397H200.953V96.605H203.241V97.805H200.953ZM209.357 96.445C210.019 96.445 210.616 96.589 211.149 96.877C211.683 97.1544 212.099 97.5757 212.397 98.141C212.707 98.7064 212.861 99.3944 212.861 100.205V105.373H211.421V100.413C211.421 99.5384 211.203 98.8717 210.765 98.413C210.328 97.9437 209.731 97.709 208.973 97.709C208.205 97.709 207.592 97.949 207.133 98.429C206.685 98.909 206.461 99.6077 206.461 100.525V105.373H205.005V93.533H206.461V97.853C206.749 97.405 207.144 97.0584 207.645 96.813C208.157 96.5677 208.728 96.445 209.357 96.445ZM223.24 100.653C223.24 100.93 223.224 101.224 223.192 101.533H216.184C216.237 102.397 216.53 103.074 217.064 103.565C217.608 104.045 218.264 104.285 219.032 104.285C219.661 104.285 220.184 104.141 220.6 103.853C221.026 103.554 221.325 103.16 221.496 102.669H223.064C222.829 103.512 222.36 104.2 221.656 104.733C220.952 105.256 220.077 105.517 219.032 105.517C218.2 105.517 217.453 105.33 216.792 104.957C216.141 104.584 215.629 104.056 215.256 103.373C214.882 102.68 214.696 101.88 214.696 100.973C214.696 100.066 214.877 99.2717 215.24 98.589C215.602 97.9064 216.109 97.3837 216.76 97.021C217.421 96.6477 218.178 96.461 219.032 96.461C219.864 96.461 220.6 96.6424 221.24 97.005C221.88 97.3677 222.37 97.869 222.712 98.509C223.064 99.1384 223.24 99.853 223.24 100.653ZM221.736 100.349C221.736 99.7944 221.613 99.3197 221.368 98.925C221.122 98.5197 220.786 98.2157 220.36 98.013C219.944 97.7997 219.48 97.693 218.968 97.693C218.232 97.693 217.602 97.9277 217.08 98.397C216.568 98.8664 216.274 99.517 216.2 100.349H221.736ZM233.699 96.445C234.766 96.445 235.63 96.7704 236.291 97.421C236.953 98.061 237.283 98.989 237.283 100.205V105.373H235.843V100.413C235.843 99.5384 235.625 98.8717 235.187 98.413C234.75 97.9437 234.153 97.709 233.395 97.709C232.627 97.709 232.014 97.949 231.555 98.429C231.107 98.909 230.883 99.6077 230.883 100.525V105.373H229.427V96.605H230.883V97.853C231.171 97.405 231.561 97.0584 232.051 96.813C232.553 96.5677 233.102 96.445 233.699 96.445ZM247.662 100.653C247.662 100.93 247.646 101.224 247.614 101.533H240.606C240.659 102.397 240.952 103.074 241.486 103.565C242.03 104.045 242.686 104.285 243.454 104.285C244.083 104.285 244.606 104.141 245.022 103.853C245.448 103.554 245.747 103.16 245.918 102.669H247.486C247.251 103.512 246.782 104.2 246.078 104.733C245.374 105.256 244.499 105.517 243.454 105.517C242.622 105.517 241.875 105.33 241.214 104.957C240.563 104.584 240.051 104.056 239.678 103.373C239.304 102.68 239.118 101.88 239.118 100.973C239.118 100.066 239.299 99.2717 239.662 98.589C240.024 97.9064 240.531 97.3837 241.182 97.021C241.843 96.6477 242.6 96.461 243.454 96.461C244.286 96.461 245.022 96.6424 245.662 97.005C246.302 97.3677 246.792 97.869 247.134 98.509C247.486 99.1384 247.662 99.853 247.662 100.653ZM246.158 100.349C246.158 99.7944 246.035 99.3197 245.79 98.925C245.544 98.5197 245.208 98.2157 244.782 98.013C244.366 97.7997 243.902 97.693 243.39 97.693C242.654 97.693 242.024 97.9277 241.502 98.397C240.99 98.8664 240.696 99.517 240.622 100.349H246.158ZM254.16 105.373L252.08 102.109L250.08 105.373H248.56L251.392 101.021L248.56 96.605H250.208L252.288 99.853L254.272 96.605H255.792L252.976 100.941L255.808 105.373H254.16ZM259.016 97.805V102.973C259.016 103.4 259.106 103.704 259.288 103.885C259.469 104.056 259.784 104.141 260.232 104.141H261.304V105.373H259.992C259.181 105.373 258.573 105.186 258.168 104.813C257.762 104.44 257.56 103.826 257.56 102.973V97.805H256.424V96.605H257.56V94.397H259.016V96.605H261.304V97.805H259.016ZM268.79 93.533V105.373H267.334V93.533H268.79ZM279.271 100.653C279.271 100.93 279.255 101.224 279.223 101.533H272.215C272.268 102.397 272.562 103.074 273.095 103.565C273.639 104.045 274.295 104.285 275.063 104.285C275.692 104.285 276.215 104.141 276.631 103.853C277.058 103.554 277.356 103.16 277.527 102.669H279.095C278.86 103.512 278.391 104.2 277.687 104.733C276.983 105.256 276.108 105.517 275.063 105.517C274.231 105.517 273.484 105.33 272.823 104.957C272.172 104.584 271.66 104.056 271.287 103.373C270.914 102.68 270.727 101.88 270.727 100.973C270.727 100.066 270.908 99.2717 271.271 98.589C271.634 97.9064 272.14 97.3837 272.791 97.021C273.452 96.6477 274.21 96.461 275.063 96.461C275.895 96.461 276.631 96.6424 277.271 97.005C277.911 97.3677 278.402 97.869 278.743 98.509C279.095 99.1384 279.271 99.853 279.271 100.653ZM277.767 100.349C277.767 99.7944 277.644 99.3197 277.399 98.925C277.154 98.5197 276.818 98.2157 276.391 98.013C275.975 97.7997 275.511 97.693 274.999 97.693C274.263 97.693 273.634 97.9277 273.111 98.397C272.599 98.8664 272.306 99.517 272.231 100.349H277.767ZM284.457 104.029L287.177 96.605H288.729L285.289 105.373H283.593L280.153 96.605H281.721L284.457 104.029ZM298.162 100.653C298.162 100.93 298.146 101.224 298.114 101.533H291.106C291.159 102.397 291.452 103.074 291.986 103.565C292.53 104.045 293.186 104.285 293.954 104.285C294.583 104.285 295.106 104.141 295.522 103.853C295.948 103.554 296.247 103.16 296.418 102.669H297.986C297.751 103.512 297.282 104.2 296.578 104.733C295.874 105.256 294.999 105.517 293.954 105.517C293.122 105.517 292.375 105.33 291.714 104.957C291.063 104.584 290.551 104.056 290.178 103.373C289.804 102.68 289.618 101.88 289.618 100.973C289.618 100.066 289.799 99.2717 290.162 98.589C290.524 97.9064 291.031 97.3837 291.682 97.021C292.343 96.6477 293.1 96.461 293.954 96.461C294.786 96.461 295.522 96.6424 296.162 97.005C296.802 97.3677 297.292 97.869 297.634 98.509C297.986 99.1384 298.162 99.853 298.162 100.653ZM296.658 100.349C296.658 99.7944 296.535 99.3197 296.29 98.925C296.044 98.5197 295.708 98.2157 295.282 98.013C294.866 97.7997 294.402 97.693 293.89 97.693C293.154 97.693 292.524 97.9277 292.002 98.397C291.49 98.8664 291.196 99.517 291.122 100.349H296.658ZM301.54 93.533V105.373H300.084V93.533H301.54ZM304.485 105.469C304.208 105.469 303.973 105.373 303.781 105.181C303.589 104.989 303.493 104.754 303.493 104.477C303.493 104.2 303.589 103.965 303.781 103.773C303.973 103.581 304.208 103.485 304.485 103.485C304.752 103.485 304.976 103.581 305.157 103.773C305.349 103.965 305.445 104.2 305.445 104.477C305.445 104.754 305.349 104.989 305.157 105.181C304.976 105.373 304.752 105.469 304.485 105.469Z" fill="#131316"/>
<path d="M39.0396 152.353V156.081H43.1036V157.281H39.0396V161.121H43.5836V162.321H37.5836V151.153H43.5836V152.353H39.0396ZM50.0587 153.393C51.1254 153.393 51.9894 153.718 52.6507 154.369C53.312 155.009 53.6427 155.937 53.6427 157.153V162.321H52.2027V157.361C52.2027 156.486 51.984 155.819 51.5467 155.361C51.1094 154.891 50.512 154.657 49.7547 154.657C48.9867 154.657 48.3734 154.897 47.9147 155.377C47.4667 155.857 47.2427 156.555 47.2427 157.473V162.321H45.7867V153.553H47.2427V154.801C47.5307 154.353 47.92 154.006 48.4107 153.761C48.912 153.515 49.4614 153.393 50.0587 153.393ZM57.7971 154.753V159.921C57.7971 160.347 57.8877 160.651 58.0691 160.833C58.2504 161.003 58.5651 161.089 59.0131 161.089H60.0851V162.321H58.7731C57.9624 162.321 57.3544 162.134 56.9491 161.761C56.5437 161.387 56.3411 160.774 56.3411 159.921V154.753H55.2051V153.553H56.3411V151.345H57.7971V153.553H60.0851V154.753H57.7971ZM69.8492 157.601C69.8492 157.878 69.8332 158.171 69.8012 158.481H62.7932C62.8465 159.345 63.1399 160.022 63.6732 160.513C64.2172 160.993 64.8732 161.233 65.6412 161.233C66.2705 161.233 66.7932 161.089 67.2092 160.801C67.6359 160.502 67.9345 160.107 68.1052 159.617H69.6732C69.4385 160.459 68.9692 161.147 68.2652 161.681C67.5612 162.203 66.6865 162.465 65.6412 162.465C64.8092 162.465 64.0625 162.278 63.4012 161.905C62.7505 161.531 62.2385 161.003 61.8652 160.321C61.4919 159.627 61.3052 158.827 61.3052 157.921C61.3052 157.014 61.4865 156.219 61.8492 155.537C62.2119 154.854 62.7185 154.331 63.3692 153.969C64.0305 153.595 64.7879 153.409 65.6412 153.409C66.4732 153.409 67.2092 153.59 67.8492 153.953C68.4892 154.315 68.9799 154.817 69.3212 155.457C69.6732 156.086 69.8492 156.801 69.8492 157.601ZM68.3452 157.297C68.3452 156.742 68.2225 156.267 67.9772 155.873C67.7319 155.467 67.3959 155.163 66.9692 154.961C66.5532 154.747 66.0892 154.641 65.5772 154.641C64.8412 154.641 64.2119 154.875 63.6892 155.345C63.1772 155.814 62.8839 156.465 62.8092 157.297H68.3452ZM73.2271 154.977C73.4831 154.475 73.8457 154.086 74.3151 153.809C74.7951 153.531 75.3764 153.393 76.0591 153.393V154.897H75.6751C74.0431 154.897 73.2271 155.782 73.2271 157.553V162.321H71.7711V153.553H73.2271V154.977ZM89.5574 153.553L84.2774 166.449H82.7734L84.5014 162.225L80.9654 153.553H82.5814L85.3334 160.657L88.0534 153.553H89.5574ZM94.8451 162.465C94.0237 162.465 93.2771 162.278 92.6051 161.905C91.9437 161.531 91.4211 161.003 91.0371 160.321C90.6637 159.627 90.4771 158.827 90.4771 157.921C90.4771 157.025 90.6691 156.235 91.0531 155.553C91.4477 154.859 91.9811 154.331 92.6531 153.969C93.3251 153.595 94.0771 153.409 94.9091 153.409C95.7411 153.409 96.4931 153.595 97.1651 153.969C97.8371 154.331 98.3651 154.854 98.7491 155.537C99.1437 156.219 99.3411 157.014 99.3411 157.921C99.3411 158.827 99.1384 159.627 98.7331 160.321C98.3384 161.003 97.7997 161.531 97.1171 161.905C96.4344 162.278 95.6771 162.465 94.8451 162.465ZM94.8451 161.185C95.3677 161.185 95.8584 161.062 96.3171 160.817C96.7757 160.571 97.1437 160.203 97.4211 159.713C97.7091 159.222 97.8531 158.625 97.8531 157.921C97.8531 157.217 97.7144 156.619 97.4371 156.129C97.1597 155.638 96.7971 155.275 96.3491 155.041C95.9011 154.795 95.4157 154.673 94.8931 154.673C94.3597 154.673 93.8691 154.795 93.4211 155.041C92.9837 155.275 92.6317 155.638 92.3651 156.129C92.0984 156.619 91.9651 157.217 91.9651 157.921C91.9651 158.635 92.0931 159.238 92.3491 159.729C92.6157 160.219 92.9677 160.587 93.4051 160.833C93.8424 161.067 94.3224 161.185 94.8451 161.185ZM109.031 153.553V162.321H107.575V161.025C107.298 161.473 106.909 161.825 106.407 162.081C105.917 162.326 105.373 162.449 104.775 162.449C104.093 162.449 103.479 162.31 102.935 162.033C102.391 161.745 101.959 161.318 101.639 160.753C101.33 160.187 101.175 159.499 101.175 158.689V153.553H102.615V158.497C102.615 159.361 102.834 160.027 103.271 160.497C103.709 160.955 104.306 161.185 105.063 161.185C105.842 161.185 106.455 160.945 106.903 160.465C107.351 159.985 107.575 159.286 107.575 158.369V153.553H109.031ZM112.946 154.977C113.202 154.475 113.564 154.086 114.034 153.809C114.514 153.531 115.095 153.393 115.778 153.393V154.897H115.394C113.762 154.897 112.946 155.782 112.946 157.553V162.321H111.49V153.553H112.946V154.977ZM129.724 157.601C129.724 157.878 129.708 158.171 129.676 158.481H122.668C122.722 159.345 123.015 160.022 123.548 160.513C124.092 160.993 124.748 161.233 125.516 161.233C126.146 161.233 126.668 161.089 127.084 160.801C127.511 160.502 127.81 160.107 127.98 159.617H129.548C129.314 160.459 128.844 161.147 128.14 161.681C127.436 162.203 126.562 162.465 125.516 162.465C124.684 162.465 123.938 162.278 123.276 161.905C122.626 161.531 122.114 161.003 121.74 160.321C121.367 159.627 121.18 158.827 121.18 157.921C121.18 157.014 121.362 156.219 121.724 155.537C122.087 154.854 122.594 154.331 123.244 153.969C123.906 153.595 124.663 153.409 125.516 153.409C126.348 153.409 127.084 153.59 127.724 153.953C128.364 154.315 128.855 154.817 129.196 155.457C129.548 156.086 129.724 156.801 129.724 157.601ZM128.22 157.297C128.22 156.742 128.098 156.267 127.852 155.873C127.607 155.467 127.271 155.163 126.844 154.961C126.428 154.747 125.964 154.641 125.452 154.641C124.716 154.641 124.087 154.875 123.564 155.345C123.052 155.814 122.759 156.465 122.684 157.297H128.22ZM142.19 153.393C142.873 153.393 143.481 153.537 144.014 153.825C144.547 154.102 144.969 154.523 145.278 155.089C145.587 155.654 145.742 156.342 145.742 157.153V162.321H144.302V157.361C144.302 156.486 144.083 155.819 143.646 155.361C143.219 154.891 142.638 154.657 141.902 154.657C141.145 154.657 140.542 154.902 140.094 155.393C139.646 155.873 139.422 156.571 139.422 157.489V162.321H137.982V157.361C137.982 156.486 137.763 155.819 137.326 155.361C136.899 154.891 136.318 154.657 135.582 154.657C134.825 154.657 134.222 154.902 133.774 155.393C133.326 155.873 133.102 156.571 133.102 157.489V162.321H131.646V153.553H133.102V154.817C133.39 154.358 133.774 154.006 134.254 153.761C134.745 153.515 135.283 153.393 135.87 153.393C136.606 153.393 137.257 153.558 137.822 153.889C138.387 154.219 138.809 154.705 139.086 155.345C139.331 154.726 139.737 154.246 140.302 153.905C140.867 153.563 141.497 153.393 142.19 153.393ZM147.586 157.905C147.586 157.009 147.768 156.225 148.13 155.553C148.493 154.87 148.989 154.342 149.618 153.969C150.258 153.595 150.968 153.409 151.746 153.409C152.514 153.409 153.181 153.574 153.746 153.905C154.312 154.235 154.733 154.651 155.01 155.153V153.553H156.482V162.321H155.01V160.689C154.722 161.201 154.29 161.627 153.714 161.969C153.149 162.299 152.488 162.465 151.73 162.465C150.952 162.465 150.248 162.273 149.618 161.889C148.989 161.505 148.493 160.966 148.13 160.273C147.768 159.579 147.586 158.79 147.586 157.905ZM155.01 157.921C155.01 157.259 154.877 156.683 154.61 156.193C154.344 155.702 153.981 155.329 153.522 155.073C153.074 154.806 152.578 154.673 152.034 154.673C151.49 154.673 150.994 154.801 150.546 155.057C150.098 155.313 149.741 155.686 149.474 156.177C149.208 156.667 149.074 157.243 149.074 157.905C149.074 158.577 149.208 159.163 149.474 159.665C149.741 160.155 150.098 160.534 150.546 160.801C150.994 161.057 151.49 161.185 152.034 161.185C152.578 161.185 153.074 161.057 153.522 160.801C153.981 160.534 154.344 160.155 154.61 159.665C154.877 159.163 155.01 158.582 155.01 157.921ZM159.695 152.129C159.418 152.129 159.183 152.033 158.991 151.841C158.799 151.649 158.703 151.414 158.703 151.137C158.703 150.859 158.799 150.625 158.991 150.433C159.183 150.241 159.418 150.145 159.695 150.145C159.962 150.145 160.186 150.241 160.367 150.433C160.559 150.625 160.655 150.859 160.655 151.137C160.655 151.414 160.559 151.649 160.367 151.841C160.186 152.033 159.962 152.129 159.695 152.129ZM160.399 153.553V162.321H158.943V153.553H160.399ZM164.336 150.481V162.321H162.88V150.481H164.336Z" fill="#605E6D"/>
<rect x="24.8516" y="132.821" width="219.024" height="47" rx="7.5" stroke="#BEBDC6"/>
<rect x="260.598" y="132.321" width="121" height="48" rx="8" fill="#4891FF"/>
<path d="M285.462 162.433C284.715 162.433 284.043 162.305 283.446 162.049C282.848 161.782 282.379 161.409 282.038 160.929C281.696 160.449 281.526 159.889 281.526 159.249H283.478C283.52 159.729 283.707 160.123 284.038 160.433C284.379 160.742 284.854 160.897 285.462 160.897C286.091 160.897 286.582 160.747 286.934 160.449C287.286 160.139 287.462 159.745 287.462 159.265C287.462 158.891 287.35 158.587 287.126 158.353C286.912 158.118 286.64 157.937 286.31 157.809C285.99 157.681 285.542 157.542 284.966 157.393C284.24 157.201 283.648 157.009 283.19 156.817C282.742 156.614 282.358 156.305 282.038 155.889C281.718 155.473 281.558 154.918 281.558 154.225C281.558 153.585 281.718 153.025 282.038 152.545C282.358 152.065 282.806 151.697 283.382 151.441C283.958 151.185 284.624 151.057 285.382 151.057C286.459 151.057 287.339 151.329 288.022 151.873C288.715 152.406 289.099 153.142 289.174 154.081H287.158C287.126 153.675 286.934 153.329 286.582 153.041C286.23 152.753 285.766 152.609 285.19 152.609C284.667 152.609 284.24 152.742 283.91 153.009C283.579 153.275 283.414 153.659 283.414 154.161C283.414 154.502 283.515 154.785 283.718 155.009C283.931 155.222 284.198 155.393 284.518 155.521C284.838 155.649 285.275 155.787 285.83 155.937C286.566 156.139 287.163 156.342 287.622 156.545C288.091 156.747 288.486 157.062 288.806 157.489C289.136 157.905 289.302 158.465 289.302 159.169C289.302 159.734 289.147 160.267 288.838 160.769C288.539 161.27 288.096 161.675 287.51 161.985C286.934 162.283 286.251 162.433 285.462 162.433ZM299.438 153.505V162.321H297.614V161.281C297.326 161.643 296.947 161.931 296.478 162.145C296.019 162.347 295.529 162.449 295.006 162.449C294.313 162.449 293.689 162.305 293.134 162.017C292.59 161.729 292.158 161.302 291.838 160.737C291.529 160.171 291.374 159.489 291.374 158.689V153.505H293.182V158.417C293.182 159.206 293.379 159.814 293.774 160.241C294.169 160.657 294.707 160.865 295.39 160.865C296.073 160.865 296.611 160.657 297.006 160.241C297.411 159.814 297.614 159.206 297.614 158.417V153.505H299.438ZM303.669 154.817C303.978 154.39 304.399 154.043 304.933 153.777C305.477 153.499 306.079 153.361 306.741 153.361C307.519 153.361 308.223 153.547 308.853 153.921C309.482 154.294 309.978 154.827 310.341 155.521C310.703 156.203 310.885 156.987 310.885 157.873C310.885 158.758 310.703 159.553 310.341 160.257C309.978 160.95 309.477 161.494 308.837 161.889C308.207 162.273 307.509 162.465 306.741 162.465C306.058 162.465 305.45 162.331 304.917 162.065C304.394 161.798 303.978 161.457 303.669 161.041V162.321H301.845V150.481H303.669V154.817ZM309.029 157.873C309.029 157.265 308.901 156.742 308.645 156.305C308.399 155.857 308.069 155.521 307.653 155.297C307.247 155.062 306.81 154.945 306.341 154.945C305.882 154.945 305.445 155.062 305.029 155.297C304.623 155.531 304.293 155.873 304.037 156.321C303.791 156.769 303.669 157.297 303.669 157.905C303.669 158.513 303.791 159.046 304.037 159.505C304.293 159.953 304.623 160.294 305.029 160.529C305.445 160.763 305.882 160.881 306.341 160.881C306.81 160.881 307.247 160.763 307.653 160.529C308.069 160.283 308.399 159.931 308.645 159.473C308.901 159.014 309.029 158.481 309.029 157.873ZM315.888 162.465C315.195 162.465 314.571 162.342 314.016 162.097C313.472 161.841 313.04 161.499 312.72 161.073C312.4 160.635 312.23 160.15 312.208 159.617H314.096C314.128 159.99 314.304 160.305 314.624 160.561C314.955 160.806 315.366 160.929 315.856 160.929C316.368 160.929 316.763 160.833 317.04 160.641C317.328 160.438 317.472 160.182 317.472 159.873C317.472 159.542 317.312 159.297 316.992 159.137C316.683 158.977 316.187 158.801 315.504 158.609C314.843 158.427 314.304 158.251 313.888 158.081C313.472 157.91 313.11 157.649 312.8 157.297C312.502 156.945 312.352 156.481 312.352 155.905C312.352 155.435 312.491 155.009 312.768 154.625C313.046 154.23 313.44 153.921 313.952 153.697C314.475 153.473 315.072 153.361 315.744 153.361C316.747 153.361 317.552 153.617 318.16 154.129C318.779 154.63 319.11 155.318 319.152 156.193H317.328C317.296 155.798 317.136 155.483 316.848 155.249C316.56 155.014 316.171 154.897 315.68 154.897C315.2 154.897 314.832 154.987 314.576 155.169C314.32 155.35 314.192 155.59 314.192 155.889C314.192 156.123 314.278 156.321 314.448 156.481C314.619 156.641 314.827 156.769 315.072 156.865C315.318 156.95 315.68 157.062 316.16 157.201C316.8 157.371 317.323 157.547 317.728 157.729C318.144 157.899 318.502 158.155 318.8 158.497C319.099 158.838 319.254 159.291 319.264 159.857C319.264 160.358 319.126 160.806 318.848 161.201C318.571 161.595 318.176 161.905 317.664 162.129C317.163 162.353 316.571 162.465 315.888 162.465ZM320.627 157.905C320.627 156.998 320.808 156.203 321.171 155.521C321.544 154.827 322.056 154.294 322.707 153.921C323.358 153.547 324.104 153.361 324.947 153.361C326.014 153.361 326.894 153.617 327.587 154.129C328.291 154.63 328.766 155.35 329.011 156.289H327.043C326.883 155.851 326.627 155.51 326.275 155.265C325.923 155.019 325.48 154.897 324.947 154.897C324.2 154.897 323.603 155.163 323.155 155.697C322.718 156.219 322.499 156.955 322.499 157.905C322.499 158.854 322.718 159.595 323.155 160.129C323.603 160.662 324.2 160.929 324.947 160.929C326.003 160.929 326.702 160.465 327.043 159.537H329.011C328.755 160.433 328.275 161.147 327.571 161.681C326.867 162.203 325.992 162.465 324.947 162.465C324.104 162.465 323.358 162.278 322.707 161.905C322.056 161.521 321.544 160.987 321.171 160.305C320.808 159.611 320.627 158.811 320.627 157.905ZM332.653 154.785C332.92 154.337 333.272 153.99 333.709 153.745C334.157 153.489 334.685 153.361 335.293 153.361V155.249H334.829C334.114 155.249 333.57 155.43 333.197 155.793C332.834 156.155 332.653 156.785 332.653 157.681V162.321H330.829V153.505H332.653V154.785ZM337.898 152.337C337.567 152.337 337.29 152.225 337.066 152.001C336.842 151.777 336.73 151.499 336.73 151.169C336.73 150.838 336.842 150.561 337.066 150.337C337.29 150.113 337.567 150.001 337.898 150.001C338.218 150.001 338.49 150.113 338.714 150.337C338.938 150.561 339.05 150.838 339.05 151.169C339.05 151.499 338.938 151.777 338.714 152.001C338.49 152.225 338.218 152.337 337.898 152.337ZM338.794 153.505V162.321H336.97V153.505H338.794ZM343.012 154.817C343.322 154.39 343.743 154.043 344.276 153.777C344.82 153.499 345.423 153.361 346.084 153.361C346.863 153.361 347.567 153.547 348.196 153.921C348.826 154.294 349.322 154.827 349.684 155.521C350.047 156.203 350.228 156.987 350.228 157.873C350.228 158.758 350.047 159.553 349.684 160.257C349.322 160.95 348.82 161.494 348.18 161.889C347.551 162.273 346.852 162.465 346.084 162.465C345.402 162.465 344.794 162.331 344.26 162.065C343.738 161.798 343.322 161.457 343.012 161.041V162.321H341.188V150.481H343.012V154.817ZM348.372 157.873C348.372 157.265 348.244 156.742 347.988 156.305C347.743 155.857 347.412 155.521 346.996 155.297C346.591 155.062 346.154 154.945 345.684 154.945C345.226 154.945 344.788 155.062 344.372 155.297C343.967 155.531 343.636 155.873 343.38 156.321C343.135 156.769 343.012 157.297 343.012 157.905C343.012 158.513 343.135 159.046 343.38 159.505C343.636 159.953 343.967 160.294 344.372 160.529C344.788 160.763 345.226 160.881 345.684 160.881C346.154 160.881 346.591 160.763 346.996 160.529C347.412 160.283 347.743 159.931 347.988 159.473C348.244 159.014 348.372 158.481 348.372 157.873ZM360.112 157.697C360.112 158.027 360.091 158.326 360.048 158.593H353.312C353.365 159.297 353.627 159.862 354.096 160.289C354.565 160.715 355.141 160.929 355.824 160.929C356.805 160.929 357.499 160.518 357.904 159.697H359.872C359.605 160.507 359.12 161.174 358.416 161.697C357.723 162.209 356.859 162.465 355.824 162.465C354.981 162.465 354.224 162.278 353.552 161.905C352.891 161.521 352.368 160.987 351.984 160.305C351.611 159.611 351.424 158.811 351.424 157.905C351.424 156.998 351.605 156.203 351.968 155.521C352.341 154.827 352.859 154.294 353.52 153.921C354.192 153.547 354.96 153.361 355.824 153.361C356.656 153.361 357.397 153.542 358.048 153.905C358.699 154.267 359.205 154.779 359.568 155.441C359.931 156.091 360.112 156.843 360.112 157.697ZM358.208 157.121C358.197 156.449 357.957 155.91 357.488 155.505C357.019 155.099 356.437 154.897 355.744 154.897C355.115 154.897 354.576 155.099 354.128 155.505C353.68 155.899 353.413 156.438 353.328 157.121H358.208Z" fill="white"/>
</svg>
