<svg width="728" height="486" viewBox="0 0 728 486" fill="none" xmlns="http://www.w3.org/2000/svg">
<rect width="728" height="486" rx="4" fill="#FAFAFA"/>
<rect x="386.637" y="51" width="246.387" height="163.244" rx="16" fill="white"/>
<path d="M429.738 98.4459H427.498L422.426 90.7819V98.4459H420.186V87.2619H422.426L427.498 94.9419V87.2619H429.738V98.4459ZM440.192 93.8219C440.192 94.1419 440.17 94.4299 440.128 94.6859H433.648C433.701 95.3259 433.925 95.8273 434.32 96.1899C434.714 96.5526 435.2 96.7339 435.776 96.7339C436.608 96.7339 437.2 96.3766 437.552 95.6619H439.968C439.712 96.5153 439.221 97.2193 438.496 97.7739C437.77 98.3179 436.88 98.5899 435.824 98.5899C434.97 98.5899 434.202 98.4033 433.52 98.0299C432.848 97.6459 432.32 97.1073 431.936 96.4139C431.562 95.7206 431.376 94.9206 431.376 94.0139C431.376 93.0966 431.562 92.2913 431.936 91.5979C432.309 90.9046 432.832 90.3713 433.504 89.9979C434.176 89.6246 434.949 89.4379 435.824 89.4379C436.666 89.4379 437.418 89.6193 438.08 89.9819C438.752 90.3446 439.269 90.8619 439.632 91.5339C440.005 92.1953 440.192 92.9579 440.192 93.8219ZM437.872 93.1819C437.861 92.6059 437.653 92.1473 437.248 91.8059C436.842 91.4539 436.346 91.2779 435.76 91.2779C435.205 91.2779 434.736 91.4486 434.352 91.7899C433.978 92.1206 433.749 92.5846 433.664 93.1819H437.872ZM454.115 89.5819L451.523 98.4459H449.107L447.491 92.2539L445.875 98.4459H443.443L440.835 89.5819H443.107L444.675 96.3339L446.371 89.5819H448.739L450.403 96.3179L451.971 89.5819H454.115ZM458.563 94.0139C458.563 93.0966 458.75 92.2966 459.123 91.6139C459.496 90.9206 460.014 90.3873 460.675 90.0139C461.336 89.6299 462.094 89.4379 462.947 89.4379C464.046 89.4379 464.952 89.7153 465.667 90.2699C466.392 90.8139 466.878 91.5819 467.123 92.5739H464.707C464.579 92.1899 464.36 91.8913 464.051 91.6779C463.752 91.4539 463.379 91.3419 462.931 91.3419C462.291 91.3419 461.784 91.5766 461.411 92.0459C461.038 92.5046 460.851 93.1606 460.851 94.0139C460.851 94.8566 461.038 95.5126 461.411 95.9819C461.784 96.4406 462.291 96.6699 462.931 96.6699C463.838 96.6699 464.43 96.2646 464.707 95.4539H467.123C466.878 96.4139 466.392 97.1766 465.667 97.7419C464.942 98.3073 464.035 98.5899 462.947 98.5899C462.094 98.5899 461.336 98.4033 460.675 98.0299C460.014 97.6459 459.496 97.1126 459.123 96.4299C458.75 95.7366 458.563 94.9313 458.563 94.0139ZM471.004 86.6059V98.4459H468.764V86.6059H471.004ZM474.353 88.5259C473.959 88.5259 473.628 88.4033 473.361 88.1579C473.105 87.9019 472.977 87.5873 472.977 87.2139C472.977 86.8406 473.105 86.5313 473.361 86.2859C473.628 86.0299 473.959 85.9019 474.353 85.9019C474.748 85.9019 475.073 86.0299 475.329 86.2859C475.596 86.5313 475.729 86.8406 475.729 87.2139C475.729 87.5873 475.596 87.9019 475.329 88.1579C475.073 88.4033 474.748 88.5259 474.353 88.5259ZM475.457 89.5819V98.4459H473.217V89.5819H475.457ZM485.91 93.8219C485.91 94.1419 485.889 94.4299 485.846 94.6859H479.366C479.42 95.3259 479.644 95.8273 480.038 96.1899C480.433 96.5526 480.918 96.7339 481.494 96.7339C482.326 96.7339 482.918 96.3766 483.27 95.6619H485.686C485.43 96.5153 484.94 97.2193 484.214 97.7739C483.489 98.3179 482.598 98.5899 481.542 98.5899C480.689 98.5899 479.921 98.4033 479.238 98.0299C478.566 97.6459 478.038 97.1073 477.654 96.4139C477.281 95.7206 477.094 94.9206 477.094 94.0139C477.094 93.0966 477.281 92.2913 477.654 91.5979C478.028 90.9046 478.55 90.3713 479.222 89.9979C479.894 89.6246 480.668 89.4379 481.542 89.4379C482.385 89.4379 483.137 89.6193 483.798 89.9819C484.47 90.3446 484.988 90.8619 485.35 91.5339C485.724 92.1953 485.91 92.9579 485.91 93.8219ZM483.59 93.1819C483.58 92.6059 483.372 92.1473 482.966 91.8059C482.561 91.4539 482.065 91.2779 481.478 91.2779C480.924 91.2779 480.454 91.4486 480.07 91.7899C479.697 92.1206 479.468 92.5846 479.382 93.1819H483.59ZM492.457 89.4539C493.513 89.4539 494.367 89.7899 495.017 90.4619C495.668 91.1233 495.993 92.0513 495.993 93.2459V98.4459H493.753V93.5499C493.753 92.8459 493.577 92.3073 493.225 91.9339C492.873 91.5499 492.393 91.3579 491.785 91.3579C491.167 91.3579 490.676 91.5499 490.313 91.9339C489.961 92.3073 489.785 92.8459 489.785 93.5499V98.4459H487.545V89.5819H489.785V90.6859C490.084 90.3019 490.463 90.0033 490.921 89.7899C491.391 89.5659 491.903 89.4539 492.457 89.4539ZM500.732 91.4219V95.7099C500.732 96.0086 500.801 96.2273 500.94 96.3659C501.089 96.4939 501.334 96.5579 501.676 96.5579H502.716V98.4459H501.308C499.42 98.4459 498.476 97.5286 498.476 95.6939V91.4219H497.42V89.5819H498.476V87.3899H500.732V89.5819H502.716V91.4219H500.732ZM507.719 98.5899C506.993 98.5899 506.343 98.4619 505.767 98.2059C505.191 97.9393 504.732 97.5819 504.391 97.1339C504.06 96.6859 503.879 96.1899 503.847 95.6459H506.103C506.145 95.9873 506.311 96.2699 506.599 96.4939C506.897 96.7179 507.265 96.8299 507.703 96.8299C508.129 96.8299 508.46 96.7446 508.695 96.5739C508.94 96.4033 509.063 96.1846 509.063 95.9179C509.063 95.6299 508.913 95.4166 508.615 95.2779C508.327 95.1286 507.863 94.9686 507.223 94.7979C506.561 94.6379 506.017 94.4726 505.591 94.3019C505.175 94.1313 504.812 93.8699 504.503 93.5179C504.204 93.1659 504.055 92.6913 504.055 92.0939C504.055 91.6033 504.193 91.1553 504.471 90.7499C504.759 90.3446 505.164 90.0246 505.687 89.7899C506.22 89.5553 506.844 89.4379 507.559 89.4379C508.615 89.4379 509.457 89.7046 510.087 90.2379C510.716 90.7606 511.063 91.4699 511.127 92.3659H508.983C508.951 92.0139 508.801 91.7366 508.535 91.5339C508.279 91.3206 507.932 91.2139 507.495 91.2139C507.089 91.2139 506.775 91.2886 506.551 91.4379C506.337 91.5873 506.231 91.7953 506.231 92.0619C506.231 92.3606 506.38 92.5899 506.679 92.7499C506.977 92.8993 507.441 93.0539 508.071 93.2139C508.711 93.3739 509.239 93.5393 509.655 93.7099C510.071 93.8806 510.428 94.1473 510.727 94.5099C511.036 94.8619 511.196 95.3313 511.207 95.9179C511.207 96.4299 511.063 96.8886 510.775 97.2939C510.497 97.6993 510.092 98.0193 509.559 98.2539C509.036 98.4779 508.423 98.5899 507.719 98.5899Z" fill="#131316"/>
<path d="M424.986 161.55C428.058 158.894 430.474 156.718 432.234 155.022C434.026 153.294 435.514 151.502 436.698 149.646C437.882 147.79 438.474 145.934 438.474 144.077C438.474 142.157 438.01 140.653 437.082 139.566C436.186 138.478 434.762 137.934 432.81 137.934C430.922 137.934 429.45 138.542 428.394 139.758C427.37 140.942 426.826 142.542 426.762 144.558H421.482C421.578 140.91 422.666 138.126 424.746 136.206C426.858 134.254 429.53 133.278 432.762 133.278C436.25 133.278 438.97 134.238 440.922 136.158C442.906 138.078 443.898 140.638 443.898 143.837C443.898 146.142 443.306 148.366 442.122 150.51C440.97 152.622 439.578 154.526 437.946 156.222C436.346 157.886 434.298 159.822 431.802 162.03L429.642 163.95H444.858V168.51H421.53V164.526L424.986 161.55ZM451.689 161.55C454.761 158.894 457.177 156.718 458.937 155.022C460.729 153.294 462.217 151.502 463.401 149.646C464.585 147.79 465.177 145.934 465.177 144.077C465.177 142.157 464.713 140.653 463.785 139.566C462.889 138.478 461.465 137.934 459.513 137.934C457.625 137.934 456.153 138.542 455.097 139.758C454.073 140.942 453.529 142.542 453.465 144.558H448.185C448.281 140.91 449.369 138.126 451.449 136.206C453.561 134.254 456.233 133.278 459.465 133.278C462.953 133.278 465.673 134.238 467.625 136.158C469.609 138.078 470.601 140.638 470.601 143.837C470.601 146.142 470.009 148.366 468.825 150.51C467.673 152.622 466.281 154.526 464.649 156.222C463.049 157.886 461.001 159.822 458.505 162.03L456.345 163.95H471.561V168.51H448.233V164.526L451.689 161.55ZM481.272 150.702C477.944 149.038 476.28 146.414 476.28 142.83C476.28 141.102 476.712 139.517 477.576 138.077C478.44 136.638 479.736 135.502 481.464 134.67C483.192 133.806 485.304 133.373 487.8 133.373C490.264 133.373 492.36 133.806 494.088 134.67C495.848 135.502 497.16 136.638 498.024 138.077C498.888 139.517 499.32 141.102 499.32 142.83C499.32 144.622 498.856 146.206 497.928 147.582C497.032 148.926 495.832 149.966 494.328 150.702C496.152 151.374 497.592 152.478 498.648 154.014C499.704 155.518 500.232 157.294 500.232 159.342C500.232 161.422 499.704 163.262 498.648 164.862C497.592 166.462 496.12 167.694 494.232 168.558C492.344 169.422 490.2 169.854 487.8 169.854C485.4 169.854 483.256 169.422 481.368 168.558C479.512 167.694 478.056 166.462 477 164.862C475.944 163.262 475.416 161.422 475.416 159.342C475.416 157.262 475.944 155.47 477 153.966C478.056 152.462 479.48 151.374 481.272 150.702ZM494.088 143.502C494.088 141.71 493.528 140.334 492.408 139.373C491.288 138.414 489.752 137.934 487.8 137.934C485.88 137.934 484.36 138.414 483.24 139.373C482.12 140.334 481.56 141.726 481.56 143.55C481.56 145.15 482.136 146.462 483.288 147.486C484.472 148.478 485.976 148.974 487.8 148.974C489.624 148.974 491.128 148.462 492.312 147.438C493.496 146.414 494.088 145.102 494.088 143.502ZM487.8 153.102C485.688 153.102 483.96 153.63 482.616 154.686C481.304 155.71 480.648 157.198 480.648 159.15C480.648 160.974 481.288 162.462 482.568 163.614C483.848 164.734 485.592 165.294 487.8 165.294C489.976 165.294 491.688 164.718 492.936 163.566C494.216 162.414 494.856 160.942 494.856 159.15C494.856 157.23 494.2 155.742 492.888 154.686C491.608 153.63 489.912 153.102 487.8 153.102Z" fill="#131316"/>
<rect x="520.082" y="140.49" width="45.7942" height="23" rx="4" fill="#6AC75A" fill-opacity="0.3"/>
<g clip-path="url(#clip0_534_33)">
<path d="M536.412 155.204L537.876 149.739L532.412 148.275L533.912 150.873L529.582 153.373L530.582 155.106L534.912 152.606L536.412 155.204Z" fill="#58944E"/>
</g>
<path d="M544.276 153.88V153.19L547.786 148.33H548.876V153.09H549.876V153.88H548.876V155.49H547.976V153.88H544.276ZM548.016 149.28L545.326 153.09H548.016V149.28ZM550.585 149.89C550.585 149.436 550.722 149.076 550.995 148.81C551.269 148.536 551.619 148.4 552.045 148.4C552.472 148.4 552.822 148.536 553.095 148.81C553.369 149.076 553.505 149.436 553.505 149.89C553.505 150.35 553.369 150.716 553.095 150.99C552.822 151.256 552.472 151.39 552.045 151.39C551.619 151.39 551.269 151.256 550.995 150.99C550.722 150.716 550.585 150.35 550.585 149.89ZM556.425 148.51L552.375 155.49H551.475L555.525 148.51H556.425ZM552.045 148.96C551.819 148.96 551.639 149.04 551.505 149.2C551.379 149.353 551.315 149.583 551.315 149.89C551.315 150.196 551.379 150.43 551.505 150.59C551.639 150.75 551.819 150.83 552.045 150.83C552.272 150.83 552.452 150.75 552.585 150.59C552.719 150.423 552.785 150.19 552.785 149.89C552.785 149.583 552.719 149.353 552.585 149.2C552.452 149.04 552.272 148.96 552.045 148.96ZM554.415 154.11C554.415 153.65 554.552 153.286 554.825 153.02C555.099 152.746 555.449 152.61 555.875 152.61C556.302 152.61 556.649 152.746 556.915 153.02C557.189 153.286 557.325 153.65 557.325 154.11C557.325 154.563 557.189 154.926 556.915 155.2C556.649 155.473 556.302 155.61 555.875 155.61C555.449 155.61 555.099 155.476 554.825 155.21C554.552 154.936 554.415 154.57 554.415 154.11ZM555.865 153.18C555.639 153.18 555.459 153.26 555.325 153.42C555.192 153.573 555.125 153.803 555.125 154.11C555.125 154.41 555.192 154.64 555.325 154.8C555.459 154.953 555.639 155.03 555.865 155.03C556.092 155.03 556.272 154.953 556.405 154.8C556.539 154.64 556.605 154.41 556.605 154.11C556.605 153.803 556.539 153.573 556.405 153.42C556.272 153.26 556.092 153.18 555.865 153.18Z" fill="#58944E"/>
<rect x="386.637" y="234.523" width="246.387" height="163.244" rx="16" fill="#F6FEE0"/>
<path d="M419.642 276.369C419.642 275.27 419.887 274.289 420.378 273.425C420.879 272.55 421.557 271.873 422.41 271.393C423.274 270.902 424.239 270.657 425.306 270.657C426.554 270.657 427.647 270.977 428.586 271.617C429.525 272.257 430.181 273.142 430.554 274.273H427.978C427.722 273.739 427.359 273.339 426.89 273.073C426.431 272.806 425.898 272.673 425.29 272.673C424.639 272.673 424.058 272.827 423.546 273.137C423.045 273.435 422.65 273.862 422.362 274.417C422.085 274.971 421.946 275.622 421.946 276.369C421.946 277.105 422.085 277.755 422.362 278.321C422.65 278.875 423.045 279.307 423.546 279.617C424.058 279.915 424.639 280.065 425.29 280.065C425.898 280.065 426.431 279.931 426.89 279.665C427.359 279.387 427.722 278.982 427.978 278.449H430.554C430.181 279.59 429.525 280.481 428.586 281.121C427.658 281.75 426.565 282.065 425.306 282.065C424.239 282.065 423.274 281.825 422.41 281.345C421.557 280.854 420.879 280.177 420.378 279.313C419.887 278.449 419.642 277.467 419.642 276.369ZM436.403 282.113C435.55 282.113 434.782 281.926 434.099 281.553C433.417 281.169 432.878 280.63 432.483 279.937C432.099 279.243 431.907 278.443 431.907 277.537C431.907 276.63 432.105 275.83 432.499 275.137C432.905 274.443 433.454 273.91 434.147 273.537C434.841 273.153 435.614 272.961 436.467 272.961C437.321 272.961 438.094 273.153 438.787 273.537C439.481 273.91 440.025 274.443 440.419 275.137C440.825 275.83 441.027 276.63 441.027 277.537C441.027 278.443 440.819 279.243 440.403 279.937C439.998 280.63 439.443 281.169 438.739 281.553C438.046 281.926 437.267 282.113 436.403 282.113ZM436.403 280.161C436.809 280.161 437.187 280.065 437.539 279.873C437.902 279.67 438.19 279.371 438.403 278.977C438.617 278.582 438.723 278.102 438.723 277.537C438.723 276.694 438.499 276.049 438.051 275.601C437.614 275.142 437.075 274.913 436.435 274.913C435.795 274.913 435.257 275.142 434.819 275.601C434.393 276.049 434.179 276.694 434.179 277.537C434.179 278.379 434.387 279.03 434.803 279.489C435.23 279.937 435.763 280.161 436.403 280.161ZM447.582 272.977C448.638 272.977 449.492 273.313 450.142 273.985C450.793 274.646 451.118 275.574 451.118 276.769V281.969H448.878V277.073C448.878 276.369 448.702 275.83 448.35 275.457C447.998 275.073 447.518 274.881 446.91 274.881C446.292 274.881 445.801 275.073 445.438 275.457C445.086 275.83 444.91 276.369 444.91 277.073V281.969H442.67V273.105H444.91V274.209C445.209 273.825 445.588 273.526 446.046 273.313C446.516 273.089 447.028 272.977 447.582 272.977ZM456.945 279.905L459.185 273.105H461.569L458.289 281.969H455.569L452.305 273.105H454.705L456.945 279.905ZM471.067 277.345C471.067 277.665 471.045 277.953 471.003 278.209H464.523C464.576 278.849 464.8 279.35 465.195 279.713C465.589 280.075 466.075 280.257 466.651 280.257C467.483 280.257 468.075 279.899 468.427 279.185H470.843C470.587 280.038 470.096 280.742 469.371 281.297C468.645 281.841 467.755 282.113 466.699 282.113C465.845 282.113 465.077 281.926 464.395 281.553C463.723 281.169 463.195 280.63 462.811 279.937C462.437 279.243 462.251 278.443 462.251 277.537C462.251 276.619 462.437 275.814 462.811 275.121C463.184 274.427 463.707 273.894 464.379 273.521C465.051 273.147 465.824 272.961 466.699 272.961C467.541 272.961 468.293 273.142 468.955 273.505C469.627 273.867 470.144 274.385 470.507 275.057C470.88 275.718 471.067 276.481 471.067 277.345ZM468.747 276.705C468.736 276.129 468.528 275.67 468.123 275.329C467.717 274.977 467.221 274.801 466.635 274.801C466.08 274.801 465.611 274.971 465.227 275.313C464.853 275.643 464.624 276.107 464.539 276.705H468.747ZM474.942 274.481C475.23 274.011 475.603 273.643 476.062 273.377C476.531 273.11 477.064 272.977 477.662 272.977V275.329H477.07C476.366 275.329 475.832 275.494 475.47 275.825C475.118 276.155 474.942 276.731 474.942 277.553V281.969H472.702V273.105H474.942V274.481ZM482.562 282.113C481.837 282.113 481.186 281.985 480.61 281.729C480.034 281.462 479.576 281.105 479.234 280.657C478.904 280.209 478.722 279.713 478.69 279.169H480.946C480.989 279.51 481.154 279.793 481.442 280.017C481.741 280.241 482.109 280.353 482.546 280.353C482.973 280.353 483.304 280.267 483.538 280.097C483.784 279.926 483.906 279.707 483.906 279.441C483.906 279.153 483.757 278.939 483.458 278.801C483.17 278.651 482.706 278.491 482.066 278.321C481.405 278.161 480.861 277.995 480.434 277.825C480.018 277.654 479.656 277.393 479.346 277.041C479.048 276.689 478.898 276.214 478.898 275.617C478.898 275.126 479.037 274.678 479.314 274.273C479.602 273.867 480.008 273.547 480.53 273.313C481.064 273.078 481.688 272.961 482.402 272.961C483.458 272.961 484.301 273.227 484.93 273.761C485.56 274.283 485.906 274.993 485.97 275.889H483.826C483.794 275.537 483.645 275.259 483.378 275.057C483.122 274.843 482.776 274.737 482.338 274.737C481.933 274.737 481.618 274.811 481.394 274.961C481.181 275.11 481.074 275.318 481.074 275.585C481.074 275.883 481.224 276.113 481.522 276.273C481.821 276.422 482.285 276.577 482.914 276.737C483.554 276.897 484.082 277.062 484.498 277.233C484.914 277.403 485.272 277.67 485.57 278.033C485.88 278.385 486.04 278.854 486.05 279.441C486.05 279.953 485.906 280.411 485.618 280.817C485.341 281.222 484.936 281.542 484.402 281.777C483.88 282.001 483.266 282.113 482.562 282.113ZM489.025 272.049C488.63 272.049 488.3 271.926 488.033 271.681C487.777 271.425 487.649 271.11 487.649 270.737C487.649 270.363 487.777 270.054 488.033 269.809C488.3 269.553 488.63 269.425 489.025 269.425C489.42 269.425 489.745 269.553 490.001 269.809C490.268 270.054 490.401 270.363 490.401 270.737C490.401 271.11 490.268 271.425 490.001 271.681C489.745 271.926 489.42 272.049 489.025 272.049ZM490.129 273.105V281.969H487.889V273.105H490.129ZM496.278 282.113C495.425 282.113 494.657 281.926 493.974 281.553C493.292 281.169 492.753 280.63 492.358 279.937C491.974 279.243 491.782 278.443 491.782 277.537C491.782 276.63 491.98 275.83 492.374 275.137C492.78 274.443 493.329 273.91 494.022 273.537C494.716 273.153 495.489 272.961 496.342 272.961C497.196 272.961 497.969 273.153 498.662 273.537C499.356 273.91 499.9 274.443 500.294 275.137C500.7 275.83 500.902 276.63 500.902 277.537C500.902 278.443 500.694 279.243 500.278 279.937C499.873 280.63 499.318 281.169 498.614 281.553C497.921 281.926 497.142 282.113 496.278 282.113ZM496.278 280.161C496.684 280.161 497.062 280.065 497.414 279.873C497.777 279.67 498.065 279.371 498.278 278.977C498.492 278.582 498.598 278.102 498.598 277.537C498.598 276.694 498.374 276.049 497.926 275.601C497.489 275.142 496.95 274.913 496.31 274.913C495.67 274.913 495.132 275.142 494.694 275.601C494.268 276.049 494.054 276.694 494.054 277.537C494.054 278.379 494.262 279.03 494.678 279.489C495.105 279.937 495.638 280.161 496.278 280.161ZM507.457 272.977C508.513 272.977 509.367 273.313 510.017 273.985C510.668 274.646 510.993 275.574 510.993 276.769V281.969H508.753V277.073C508.753 276.369 508.577 275.83 508.225 275.457C507.873 275.073 507.393 274.881 506.785 274.881C506.167 274.881 505.676 275.073 505.313 275.457C504.961 275.83 504.785 276.369 504.785 277.073V281.969H502.545V273.105H504.785V274.209C505.084 273.825 505.463 273.526 505.921 273.313C506.391 273.089 506.903 272.977 507.457 272.977ZM519.176 274.481C519.464 274.011 519.837 273.643 520.296 273.377C520.765 273.11 521.299 272.977 521.896 272.977V275.329H521.304C520.6 275.329 520.067 275.494 519.704 275.825C519.352 276.155 519.176 276.731 519.176 277.553V281.969H516.936V273.105H519.176V274.481ZM522.829 277.505C522.829 276.609 523.005 275.814 523.357 275.121C523.719 274.427 524.205 273.894 524.813 273.521C525.431 273.147 526.119 272.961 526.877 272.961C527.538 272.961 528.114 273.094 528.605 273.361C529.106 273.627 529.506 273.963 529.805 274.369V273.105H532.061V281.969H529.805V280.673C529.517 281.089 529.117 281.435 528.605 281.713C528.103 281.979 527.522 282.113 526.861 282.113C526.114 282.113 525.431 281.921 524.813 281.537C524.205 281.153 523.719 280.614 523.357 279.921C523.005 279.217 522.829 278.411 522.829 277.505ZM529.805 277.537C529.805 276.993 529.698 276.529 529.485 276.145C529.271 275.75 528.983 275.451 528.621 275.249C528.258 275.035 527.869 274.929 527.453 274.929C527.037 274.929 526.653 275.03 526.301 275.233C525.949 275.435 525.661 275.734 525.437 276.129C525.223 276.513 525.117 276.971 525.117 277.505C525.117 278.038 525.223 278.507 525.437 278.913C525.661 279.307 525.949 279.611 526.301 279.825C526.663 280.038 527.047 280.145 527.453 280.145C527.869 280.145 528.258 280.043 528.621 279.841C528.983 279.627 529.271 279.329 529.485 278.945C529.698 278.55 529.805 278.081 529.805 277.537ZM536.857 274.945V279.233C536.857 279.531 536.926 279.75 537.065 279.889C537.214 280.017 537.459 280.081 537.801 280.081H538.841V281.969H537.433C535.545 281.969 534.601 281.051 534.601 279.217V274.945H533.545V273.105H534.601V270.913H536.857V273.105H538.841V274.945H536.857ZM548.692 277.345C548.692 277.665 548.67 277.953 548.628 278.209H542.148C542.201 278.849 542.425 279.35 542.82 279.713C543.214 280.075 543.7 280.257 544.276 280.257C545.108 280.257 545.7 279.899 546.052 279.185H548.468C548.212 280.038 547.721 280.742 546.996 281.297C546.27 281.841 545.38 282.113 544.324 282.113C543.47 282.113 542.702 281.926 542.02 281.553C541.348 281.169 540.82 280.63 540.436 279.937C540.062 279.243 539.876 278.443 539.876 277.537C539.876 276.619 540.062 275.814 540.436 275.121C540.809 274.427 541.332 273.894 542.004 273.521C542.676 273.147 543.449 272.961 544.324 272.961C545.166 272.961 545.918 273.142 546.58 273.505C547.252 273.867 547.769 274.385 548.132 275.057C548.505 275.718 548.692 276.481 548.692 277.345ZM546.372 276.705C546.361 276.129 546.153 275.67 545.748 275.329C545.342 274.977 544.846 274.801 544.26 274.801C543.705 274.801 543.236 274.971 542.852 275.313C542.478 275.643 542.249 276.107 542.164 276.705H546.372Z" fill="#131316"/>
<path d="M421.242 322.512V317.52H431.226V352.512H425.706V322.512H421.242ZM444.463 345.936L438.655 359.184H435.103L438.511 345.936H444.463ZM447.429 326.16C447.621 323.184 448.757 320.864 450.837 319.2C452.949 317.536 455.637 316.704 458.901 316.704C461.141 316.704 463.077 317.104 464.709 317.904C466.341 318.704 467.573 319.792 468.405 321.168C469.237 322.544 469.653 324.096 469.653 325.824C469.653 327.808 469.125 329.504 468.069 330.912C467.013 332.32 465.749 333.264 464.277 333.744V333.936C466.165 334.512 467.637 335.568 468.693 337.104C469.749 338.608 470.277 340.544 470.277 342.912C470.277 344.8 469.845 346.48 468.981 347.952C468.117 349.424 466.837 350.592 465.141 351.456C463.445 352.288 461.413 352.704 459.045 352.704C455.589 352.704 452.741 351.824 450.501 350.064C448.293 348.272 447.109 345.712 446.949 342.384H452.229C452.357 344.08 453.013 345.472 454.197 346.56C455.381 347.616 456.981 348.144 458.997 348.144C460.949 348.144 462.453 347.616 463.509 346.56C464.565 345.472 465.093 344.08 465.093 342.384C465.093 340.144 464.373 338.56 462.933 337.632C461.525 336.672 459.349 336.192 456.405 336.192H455.157V331.68H456.453C459.045 331.648 461.013 331.216 462.357 330.384C463.733 329.552 464.421 328.24 464.421 326.448C464.421 324.912 463.925 323.696 462.933 322.8C461.941 321.872 460.533 321.408 458.709 321.408C456.917 321.408 455.525 321.872 454.533 322.8C453.541 323.696 452.949 324.816 452.757 326.16H447.429ZM497.585 322.224H481.505V331.776C482.177 330.88 483.169 330.128 484.481 329.52C485.825 328.912 487.249 328.608 488.753 328.608C491.441 328.608 493.617 329.184 495.281 330.336C496.977 331.488 498.177 332.944 498.881 334.704C499.617 336.464 499.985 338.32 499.985 340.272C499.985 342.64 499.521 344.752 498.593 346.608C497.697 348.432 496.337 349.872 494.513 350.928C492.721 351.984 490.513 352.512 487.889 352.512C484.401 352.512 481.601 351.648 479.489 349.92C477.377 348.192 476.113 345.904 475.697 343.056H481.025C481.377 344.56 482.161 345.76 483.377 346.656C484.593 347.52 486.113 347.952 487.937 347.952C490.209 347.952 491.905 347.264 493.025 345.888C494.177 344.512 494.753 342.688 494.753 340.416C494.753 338.112 494.177 336.352 493.025 335.136C491.873 333.888 490.177 333.264 487.937 333.264C486.369 333.264 485.041 333.664 483.953 334.464C482.897 335.232 482.129 336.288 481.649 337.632H476.465V317.424H497.585V322.224Z" fill="#131316"/>
<rect x="519.082" y="324.012" width="49.0208" height="23" rx="4" fill="#FF6D43" fill-opacity="0.3"/>
<g clip-path="url(#clip1_534_33)">
<path d="M530.618 338.694L536.274 338.694L536.274 333.037L534.153 335.159L530.618 331.623L529.203 333.037L532.739 336.573L530.618 338.694Z" fill="#945F4E"/>
</g>
<path d="M543.483 332.612V331.782H545.363V339.012H544.443V332.612H543.483ZM546.816 338.282C547.663 337.602 548.326 337.046 548.806 336.612C549.286 336.172 549.689 335.716 550.016 335.242C550.349 334.762 550.516 334.292 550.516 333.832C550.516 333.399 550.409 333.059 550.196 332.812C549.989 332.559 549.653 332.432 549.186 332.432C548.733 332.432 548.379 332.576 548.126 332.862C547.879 333.142 547.746 333.519 547.726 333.992H546.846C546.873 333.246 547.099 332.669 547.526 332.262C547.953 331.856 548.503 331.652 549.176 331.652C549.863 331.652 550.406 331.842 550.806 332.222C551.213 332.602 551.416 333.126 551.416 333.792C551.416 334.346 551.249 334.886 550.916 335.412C550.589 335.932 550.216 336.392 549.796 336.792C549.376 337.186 548.839 337.646 548.186 338.172H551.626V338.932H546.816V338.282ZM552.478 333.412C552.478 332.959 552.615 332.599 552.888 332.332C553.161 332.059 553.511 331.922 553.938 331.922C554.365 331.922 554.715 332.059 554.988 332.332C555.261 332.599 555.398 332.959 555.398 333.412C555.398 333.872 555.261 334.239 554.988 334.512C554.715 334.779 554.365 334.912 553.938 334.912C553.511 334.912 553.161 334.779 552.888 334.512C552.615 334.239 552.478 333.872 552.478 333.412ZM558.318 332.032L554.268 339.012H553.368L557.418 332.032H558.318ZM553.938 332.482C553.711 332.482 553.531 332.562 553.398 332.722C553.271 332.876 553.208 333.106 553.208 333.412C553.208 333.719 553.271 333.952 553.398 334.112C553.531 334.272 553.711 334.352 553.938 334.352C554.165 334.352 554.345 334.272 554.478 334.112C554.611 333.946 554.678 333.712 554.678 333.412C554.678 333.106 554.611 332.876 554.478 332.722C554.345 332.562 554.165 332.482 553.938 332.482ZM556.308 337.632C556.308 337.172 556.445 336.809 556.718 336.542C556.991 336.269 557.341 336.132 557.768 336.132C558.195 336.132 558.541 336.269 558.808 336.542C559.081 336.809 559.218 337.172 559.218 337.632C559.218 338.086 559.081 338.449 558.808 338.722C558.541 338.996 558.195 339.132 557.768 339.132C557.341 339.132 556.991 338.999 556.718 338.732C556.445 338.459 556.308 338.092 556.308 337.632ZM557.758 336.702C557.531 336.702 557.351 336.782 557.218 336.942C557.085 337.096 557.018 337.326 557.018 337.632C557.018 337.932 557.085 338.162 557.218 338.322C557.351 338.476 557.531 338.552 557.758 338.552C557.985 338.552 558.165 338.476 558.298 338.322C558.431 338.162 558.498 337.932 558.498 337.632C558.498 337.326 558.431 337.096 558.298 336.942C558.165 336.782 557.985 336.702 557.758 336.702Z" fill="#945F4E"/>
<rect x="122" y="51" width="246.387" height="346.767" rx="16" fill="#131316"/>
<rect x="154.445" y="135.157" width="40.5575" height="40.5575" rx="8" fill="white"/>
<rect x="154.445" y="195.993" width="40.5575" height="40.5575" rx="8" fill="#F6FEE0"/>
<rect x="154.445" y="256.829" width="40.5575" height="40.5575" rx="8" fill="#DAF4FE"/>
<rect x="154.445" y="317.666" width="40.5575" height="40.5575" rx="8" fill="#DFECF4" fill-opacity="0.2"/>
<rect x="154.945" y="318.166" width="39.5575" height="39.5575" rx="7.5" stroke="#DFECF4" stroke-opacity="0.5"/>
<g clip-path="url(#clip2_534_33)">
<path d="M178.781 281.164H180.809" stroke="#131316" stroke-width="1.5" stroke-linecap="round" stroke-linejoin="round"/>
<path d="M168.641 273.052H170.668" stroke="#131316" stroke-width="1.5" stroke-linecap="round" stroke-linejoin="round"/>
<path d="M174.723 280.15C175.843 280.15 176.751 278.788 176.751 277.108C176.751 275.428 175.843 274.066 174.723 274.066C173.603 274.066 172.695 275.428 172.695 277.108C172.695 278.788 173.603 280.15 174.723 280.15Z" stroke="#131316" stroke-width="1.5" stroke-miterlimit="10"/>
<path d="M180.809 268.996H168.642C166.402 268.996 164.586 270.812 164.586 273.052V281.164C164.586 283.404 166.402 285.219 168.642 285.219H180.809C183.049 285.219 184.865 283.404 184.865 281.164V273.052C184.865 270.812 183.049 268.996 180.809 268.996Z" stroke="#131316" stroke-width="1.5" stroke-miterlimit="10"/>
</g>
<path d="M163.149 95.3895V97.1975H160.173V106.557H157.933V97.1975H154.957V95.3895H163.149ZM168.72 106.701C167.866 106.701 167.098 106.515 166.416 106.141C165.733 105.757 165.194 105.219 164.8 104.525C164.416 103.832 164.224 103.032 164.224 102.125C164.224 101.219 164.421 100.419 164.816 99.7255C165.221 99.0322 165.77 98.4988 166.464 98.1255C167.157 97.7415 167.93 97.5495 168.784 97.5495C169.637 97.5495 170.41 97.7415 171.104 98.1255C171.797 98.4988 172.341 99.0322 172.736 99.7255C173.141 100.419 173.344 101.219 173.344 102.125C173.344 103.032 173.136 103.832 172.72 104.525C172.314 105.219 171.76 105.757 171.056 106.141C170.362 106.515 169.584 106.701 168.72 106.701ZM168.72 104.749C169.125 104.749 169.504 104.653 169.856 104.461C170.218 104.259 170.506 103.96 170.72 103.565C170.933 103.171 171.04 102.691 171.04 102.125C171.04 101.283 170.816 100.637 170.368 100.189C169.93 99.7308 169.392 99.5015 168.752 99.5015C168.112 99.5015 167.573 99.7308 167.136 100.189C166.709 100.637 166.496 101.283 166.496 102.125C166.496 102.968 166.704 103.619 167.12 104.077C167.546 104.525 168.08 104.749 168.72 104.749ZM178.223 102.093C178.223 101.197 178.399 100.403 178.751 99.7095C179.114 99.0162 179.605 98.4828 180.223 98.1095C180.842 97.7362 181.53 97.5495 182.287 97.5495C182.863 97.5495 183.413 97.6775 183.935 97.9335C184.458 98.1788 184.874 98.5095 185.183 98.9255V94.7175H187.455V106.557H185.183V105.245C184.906 105.683 184.517 106.035 184.015 106.301C183.514 106.568 182.933 106.701 182.271 106.701C181.525 106.701 180.842 106.509 180.223 106.125C179.605 105.741 179.114 105.203 178.751 104.509C178.399 103.805 178.223 103 178.223 102.093ZM185.199 102.125C185.199 101.581 185.093 101.117 184.879 100.733C184.666 100.339 184.378 100.04 184.015 99.8375C183.653 99.6242 183.263 99.5175 182.847 99.5175C182.431 99.5175 182.047 99.6188 181.695 99.8215C181.343 100.024 181.055 100.323 180.831 100.717C180.618 101.101 180.511 101.56 180.511 102.093C180.511 102.627 180.618 103.096 180.831 103.501C181.055 103.896 181.343 104.2 181.695 104.413C182.058 104.627 182.442 104.733 182.847 104.733C183.263 104.733 183.653 104.632 184.015 104.429C184.378 104.216 184.666 103.917 184.879 103.533C185.093 103.139 185.199 102.669 185.199 102.125ZM193.579 106.701C192.726 106.701 191.958 106.515 191.275 106.141C190.592 105.757 190.054 105.219 189.659 104.525C189.275 103.832 189.083 103.032 189.083 102.125C189.083 101.219 189.28 100.419 189.675 99.7255C190.08 99.0322 190.63 98.4988 191.323 98.1255C192.016 97.7415 192.79 97.5495 193.643 97.5495C194.496 97.5495 195.27 97.7415 195.963 98.1255C196.656 98.4988 197.2 99.0322 197.595 99.7255C198 100.419 198.203 101.219 198.203 102.125C198.203 103.032 197.995 103.832 197.579 104.525C197.174 105.219 196.619 105.757 195.915 106.141C195.222 106.515 194.443 106.701 193.579 106.701ZM193.579 104.749C193.984 104.749 194.363 104.653 194.715 104.461C195.078 104.259 195.366 103.96 195.579 103.565C195.792 103.171 195.899 102.691 195.899 102.125C195.899 101.283 195.675 100.637 195.227 100.189C194.79 99.7308 194.251 99.5015 193.611 99.5015C192.971 99.5015 192.432 99.7308 191.995 100.189C191.568 100.637 191.355 101.283 191.355 102.125C191.355 102.968 191.563 103.619 191.979 104.077C192.406 104.525 192.939 104.749 193.579 104.749ZM205.899 94.7175V106.557H203.659V94.7175H205.899ZM209.248 96.6375C208.853 96.6375 208.522 96.5148 208.256 96.2695C208 96.0135 207.872 95.6988 207.872 95.3255C207.872 94.9522 208 94.6428 208.256 94.3975C208.522 94.1415 208.853 94.0135 209.248 94.0135C209.642 94.0135 209.968 94.1415 210.224 94.3975C210.49 94.6428 210.624 94.9522 210.624 95.3255C210.624 95.6988 210.49 96.0135 210.224 96.2695C209.968 96.5148 209.642 96.6375 209.248 96.6375ZM210.352 97.6935V106.557H208.112V97.6935H210.352ZM215.957 106.701C215.232 106.701 214.581 106.573 214.005 106.317C213.429 106.051 212.97 105.693 212.629 105.245C212.298 104.797 212.117 104.301 212.085 103.757H214.341C214.384 104.099 214.549 104.381 214.837 104.605C215.136 104.829 215.504 104.941 215.941 104.941C216.368 104.941 216.698 104.856 216.933 104.685C217.178 104.515 217.301 104.296 217.301 104.029C217.301 103.741 217.152 103.528 216.853 103.389C216.565 103.24 216.101 103.08 215.461 102.909C214.8 102.749 214.256 102.584 213.829 102.413C213.413 102.243 213.05 101.981 212.741 101.629C212.442 101.277 212.293 100.803 212.293 100.205C212.293 99.7148 212.432 99.2668 212.709 98.8615C212.997 98.4562 213.402 98.1362 213.925 97.9015C214.458 97.6668 215.082 97.5495 215.797 97.5495C216.853 97.5495 217.696 97.8162 218.325 98.3495C218.954 98.8722 219.301 99.5815 219.365 100.477H217.221C217.189 100.125 217.04 99.8482 216.773 99.6455C216.517 99.4322 216.17 99.3255 215.733 99.3255C215.328 99.3255 215.013 99.4002 214.789 99.5495C214.576 99.6988 214.469 99.9068 214.469 100.173C214.469 100.472 214.618 100.701 214.917 100.861C215.216 101.011 215.68 101.165 216.309 101.325C216.949 101.485 217.477 101.651 217.893 101.821C218.309 101.992 218.666 102.259 218.965 102.621C219.274 102.973 219.434 103.443 219.445 104.029C219.445 104.541 219.301 105 219.013 105.405C218.736 105.811 218.33 106.131 217.797 106.365C217.274 106.589 216.661 106.701 215.957 106.701ZM223.892 99.5335V103.821C223.892 104.12 223.961 104.339 224.1 104.477C224.249 104.605 224.494 104.669 224.836 104.669H225.876V106.557H224.468C222.58 106.557 221.636 105.64 221.636 103.805V99.5335H220.58V97.6935H221.636V95.5015H223.892V97.6935H225.876V99.5335H223.892Z" fill="white"/>
<path d="M209.058 144.276V151.226H207.918V144.276H209.058ZM217.225 145.626C217.658 145.626 218.045 145.716 218.385 145.896C218.731 146.076 219.001 146.343 219.195 146.696C219.395 147.05 219.495 147.476 219.495 147.976V151.226H218.365V148.146C218.365 147.653 218.241 147.276 217.995 147.016C217.748 146.75 217.411 146.616 216.985 146.616C216.558 146.616 216.218 146.75 215.965 147.016C215.718 147.276 215.595 147.653 215.595 148.146V151.226H214.465V148.146C214.465 147.653 214.341 147.276 214.095 147.016C213.848 146.75 213.511 146.616 213.085 146.616C212.658 146.616 212.318 146.75 212.065 147.016C211.818 147.276 211.695 147.653 211.695 148.146V151.226H210.555V145.716H211.695V146.346C211.881 146.12 212.118 145.943 212.405 145.816C212.691 145.69 212.998 145.626 213.325 145.626C213.765 145.626 214.158 145.72 214.505 145.906C214.851 146.093 215.118 146.363 215.305 146.716C215.471 146.383 215.731 146.12 216.085 145.926C216.438 145.726 216.818 145.626 217.225 145.626ZM222.085 146.526C222.279 146.273 222.542 146.06 222.875 145.886C223.209 145.713 223.585 145.626 224.005 145.626C224.485 145.626 224.922 145.746 225.315 145.986C225.715 146.22 226.029 146.55 226.255 146.976C226.482 147.403 226.595 147.893 226.595 148.446C226.595 149 226.482 149.496 226.255 149.936C226.029 150.37 225.715 150.71 225.315 150.956C224.922 151.196 224.485 151.316 224.005 151.316C223.585 151.316 223.212 151.233 222.885 151.066C222.559 150.893 222.292 150.68 222.085 150.426V153.846H220.945V145.716H222.085V146.526ZM225.435 148.446C225.435 148.066 225.355 147.74 225.195 147.466C225.042 147.186 224.835 146.976 224.575 146.836C224.322 146.69 224.049 146.616 223.755 146.616C223.469 146.616 223.195 146.69 222.935 146.836C222.682 146.983 222.475 147.196 222.315 147.476C222.162 147.756 222.085 148.086 222.085 148.466C222.085 148.846 222.162 149.18 222.315 149.466C222.475 149.746 222.682 149.96 222.935 150.106C223.195 150.253 223.469 150.326 223.755 150.326C224.049 150.326 224.322 150.253 224.575 150.106C224.835 149.953 225.042 149.733 225.195 149.446C225.355 149.16 225.435 148.826 225.435 148.446ZM230.113 151.316C229.593 151.316 229.123 151.2 228.703 150.966C228.283 150.726 227.953 150.393 227.713 149.966C227.473 149.533 227.353 149.033 227.353 148.466C227.353 147.906 227.476 147.41 227.723 146.976C227.969 146.543 228.306 146.21 228.733 145.976C229.159 145.743 229.636 145.626 230.163 145.626C230.689 145.626 231.166 145.743 231.593 145.976C232.019 146.21 232.356 146.543 232.603 146.976C232.849 147.41 232.973 147.906 232.973 148.466C232.973 149.026 232.846 149.523 232.593 149.956C232.339 150.39 231.993 150.726 231.553 150.966C231.119 151.2 230.639 151.316 230.113 151.316ZM230.113 150.326C230.406 150.326 230.679 150.256 230.933 150.116C231.193 149.976 231.403 149.766 231.563 149.486C231.723 149.206 231.803 148.866 231.803 148.466C231.803 148.066 231.726 147.73 231.573 147.456C231.419 147.176 231.216 146.966 230.963 146.826C230.709 146.686 230.436 146.616 230.143 146.616C229.849 146.616 229.576 146.686 229.323 146.826C229.076 146.966 228.879 147.176 228.733 147.456C228.586 147.73 228.513 148.066 228.513 148.466C228.513 149.06 228.663 149.52 228.963 149.846C229.269 150.166 229.653 150.326 230.113 150.326ZM235.24 146.516C235.406 146.236 235.626 146.02 235.9 145.866C236.18 145.706 236.51 145.626 236.89 145.626V146.806H236.6C236.153 146.806 235.813 146.92 235.58 147.146C235.353 147.373 235.24 147.766 235.24 148.326V151.226H234.1V145.716H235.24V146.516ZM239.268 146.646V149.696C239.268 149.903 239.314 150.053 239.408 150.146C239.508 150.233 239.674 150.276 239.908 150.276H240.608V151.226H239.708C239.194 151.226 238.801 151.106 238.528 150.866C238.254 150.626 238.118 150.236 238.118 149.696V146.646H237.468V145.716H238.118V144.346H239.268V145.716H240.608V146.646H239.268ZM243.876 148.446C243.876 147.893 243.989 147.403 244.216 146.976C244.449 146.55 244.763 146.22 245.156 145.986C245.556 145.746 245.999 145.626 246.486 145.626C246.846 145.626 247.199 145.706 247.546 145.866C247.899 146.02 248.179 146.226 248.386 146.486V143.826H249.536V151.226H248.386V150.396C248.199 150.663 247.939 150.883 247.606 151.056C247.279 151.23 246.903 151.316 246.476 151.316C245.996 151.316 245.556 151.196 245.156 150.956C244.763 150.71 244.449 150.37 244.216 149.936C243.989 149.496 243.876 149 243.876 148.446ZM248.386 148.466C248.386 148.086 248.306 147.756 248.146 147.476C247.993 147.196 247.789 146.983 247.536 146.836C247.283 146.69 247.009 146.616 246.716 146.616C246.423 146.616 246.149 146.69 245.896 146.836C245.643 146.976 245.436 147.186 245.276 147.466C245.123 147.74 245.046 148.066 245.046 148.446C245.046 148.826 245.123 149.16 245.276 149.446C245.436 149.733 245.643 149.953 245.896 150.106C246.156 150.253 246.429 150.326 246.716 150.326C247.009 150.326 247.283 150.253 247.536 150.106C247.789 149.96 247.993 149.746 248.146 149.466C248.306 149.18 248.386 148.846 248.386 148.466ZM250.653 148.446C250.653 147.893 250.767 147.403 250.993 146.976C251.227 146.55 251.54 146.22 251.933 145.986C252.333 145.746 252.773 145.626 253.253 145.626C253.687 145.626 254.063 145.713 254.383 145.886C254.71 146.053 254.97 146.263 255.163 146.516V145.716H256.313V151.226H255.163V150.406C254.97 150.666 254.707 150.883 254.373 151.056C254.04 151.23 253.66 151.316 253.233 151.316C252.76 151.316 252.327 151.196 251.933 150.956C251.54 150.71 251.227 150.37 250.993 149.936C250.767 149.496 250.653 149 250.653 148.446ZM255.163 148.466C255.163 148.086 255.083 147.756 254.923 147.476C254.77 147.196 254.567 146.983 254.313 146.836C254.06 146.69 253.787 146.616 253.493 146.616C253.2 146.616 252.927 146.69 252.673 146.836C252.42 146.976 252.213 147.186 252.053 147.466C251.9 147.74 251.823 148.066 251.823 148.446C251.823 148.826 251.9 149.16 252.053 149.446C252.213 149.733 252.42 149.953 252.673 150.106C252.933 150.253 253.207 150.326 253.493 150.326C253.787 150.326 254.06 150.253 254.313 150.106C254.567 149.96 254.77 149.746 254.923 149.466C255.083 149.18 255.163 148.846 255.163 148.466ZM259.141 146.646V149.696C259.141 149.903 259.187 150.053 259.281 150.146C259.381 150.233 259.547 150.276 259.781 150.276H260.481V151.226H259.581C259.067 151.226 258.674 151.106 258.401 150.866C258.127 150.626 257.991 150.236 257.991 149.696V146.646H257.341V145.716H257.991V144.346H259.141V145.716H260.481V146.646H259.141ZM261.151 148.446C261.151 147.893 261.265 147.403 261.491 146.976C261.725 146.55 262.038 146.22 262.431 145.986C262.831 145.746 263.271 145.626 263.751 145.626C264.185 145.626 264.561 145.713 264.881 145.886C265.208 146.053 265.468 146.263 265.661 146.516V145.716H266.811V151.226H265.661V150.406C265.468 150.666 265.205 150.883 264.871 151.056C264.538 151.23 264.158 151.316 263.731 151.316C263.258 151.316 262.825 151.196 262.431 150.956C262.038 150.71 261.725 150.37 261.491 149.936C261.265 149.496 261.151 149 261.151 148.446ZM265.661 148.466C265.661 148.086 265.581 147.756 265.421 147.476C265.268 147.196 265.065 146.983 264.811 146.836C264.558 146.69 264.285 146.616 263.991 146.616C263.698 146.616 263.425 146.69 263.171 146.836C262.918 146.976 262.711 147.186 262.551 147.466C262.398 147.74 262.321 148.066 262.321 148.446C262.321 148.826 262.398 149.16 262.551 149.446C262.711 149.733 262.918 149.953 263.171 150.106C263.431 150.253 263.705 150.326 263.991 150.326C264.285 150.326 264.558 150.253 264.811 150.106C265.065 149.96 265.268 149.746 265.421 149.466C265.581 149.18 265.661 148.846 265.661 148.466Z" fill="white"/>
<path d="M211.512 164.547C211.512 165.011 211.352 165.398 211.032 165.707C210.717 166.011 210.235 166.163 209.584 166.163H208.512V168.491H207.784V162.915H209.584C210.213 162.915 210.691 163.067 211.016 163.371C211.347 163.675 211.512 164.067 211.512 164.547ZM209.584 165.563C209.989 165.563 210.288 165.475 210.48 165.299C210.672 165.123 210.768 164.873 210.768 164.547C210.768 163.859 210.373 163.515 209.584 163.515H208.512V165.563H209.584ZM212.145 166.283C212.145 165.835 212.235 165.443 212.417 165.107C212.598 164.766 212.846 164.502 213.161 164.315C213.481 164.129 213.835 164.035 214.225 164.035C214.609 164.035 214.942 164.118 215.225 164.283C215.507 164.449 215.718 164.657 215.857 164.907V164.107H216.593V168.491H215.857V167.675C215.713 167.931 215.497 168.145 215.209 168.315C214.926 168.481 214.595 168.563 214.217 168.563C213.827 168.563 213.475 168.467 213.161 168.275C212.846 168.083 212.598 167.814 212.417 167.467C212.235 167.121 212.145 166.726 212.145 166.283ZM215.857 166.291C215.857 165.961 215.79 165.673 215.657 165.427C215.523 165.182 215.342 164.995 215.113 164.867C214.889 164.734 214.641 164.667 214.369 164.667C214.097 164.667 213.849 164.731 213.625 164.859C213.401 164.987 213.222 165.174 213.089 165.419C212.955 165.665 212.889 165.953 212.889 166.283C212.889 166.619 212.955 166.913 213.089 167.163C213.222 167.409 213.401 167.598 213.625 167.731C213.849 167.859 214.097 167.923 214.369 167.923C214.641 167.923 214.889 167.859 215.113 167.731C215.342 167.598 215.523 167.409 215.657 167.163C215.79 166.913 215.857 166.622 215.857 166.291ZM219.375 168.563C219.039 168.563 218.738 168.507 218.471 168.395C218.204 168.278 217.994 168.118 217.839 167.915C217.684 167.707 217.599 167.47 217.583 167.203H218.335C218.356 167.422 218.458 167.601 218.639 167.739C218.826 167.878 219.068 167.947 219.367 167.947C219.644 167.947 219.863 167.886 220.023 167.763C220.183 167.641 220.263 167.486 220.263 167.299C220.263 167.107 220.178 166.966 220.007 166.875C219.836 166.779 219.572 166.686 219.215 166.595C218.89 166.51 218.623 166.425 218.415 166.339C218.212 166.249 218.036 166.118 217.887 165.947C217.743 165.771 217.671 165.542 217.671 165.259C217.671 165.035 217.738 164.83 217.871 164.643C218.004 164.457 218.194 164.31 218.439 164.203C218.684 164.091 218.964 164.035 219.279 164.035C219.764 164.035 220.156 164.158 220.455 164.403C220.754 164.649 220.914 164.985 220.935 165.411H220.207C220.191 165.182 220.098 164.998 219.927 164.859C219.762 164.721 219.538 164.651 219.255 164.651C218.994 164.651 218.786 164.707 218.631 164.819C218.476 164.931 218.399 165.078 218.399 165.259C218.399 165.403 218.444 165.523 218.535 165.619C218.631 165.71 218.748 165.785 218.887 165.843C219.031 165.897 219.228 165.958 219.479 166.027C219.794 166.113 220.05 166.198 220.247 166.283C220.444 166.363 220.612 166.486 220.751 166.651C220.895 166.817 220.97 167.033 220.975 167.299C220.975 167.539 220.908 167.755 220.775 167.947C220.642 168.139 220.452 168.291 220.207 168.403C219.967 168.51 219.69 168.563 219.375 168.563ZM222.891 164.707V167.291C222.891 167.505 222.936 167.657 223.027 167.747C223.117 167.833 223.275 167.875 223.499 167.875H224.035V168.491H223.379C222.973 168.491 222.669 168.398 222.467 168.211C222.264 168.025 222.163 167.718 222.163 167.291V164.707H221.595V164.107H222.163V163.003H222.891V164.107H224.035V164.707H222.891ZM230.49 163.275L228.266 168.491H227.53L229.786 163.347H226.698V162.723H230.49V163.275ZM233.278 166.283C233.278 165.835 233.368 165.443 233.55 165.107C233.731 164.766 233.979 164.502 234.294 164.315C234.614 164.129 234.971 164.035 235.366 164.035C235.707 164.035 236.024 164.115 236.318 164.275C236.611 164.43 236.835 164.635 236.99 164.891V162.571H237.726V168.491H236.99V167.667C236.846 167.929 236.632 168.145 236.35 168.315C236.067 168.481 235.736 168.563 235.358 168.563C234.968 168.563 234.614 168.467 234.294 168.275C233.979 168.083 233.731 167.814 233.55 167.467C233.368 167.121 233.278 166.726 233.278 166.283ZM236.99 166.291C236.99 165.961 236.923 165.673 236.79 165.427C236.656 165.182 236.475 164.995 236.246 164.867C236.022 164.734 235.774 164.667 235.502 164.667C235.23 164.667 234.982 164.731 234.758 164.859C234.534 164.987 234.355 165.174 234.222 165.419C234.088 165.665 234.022 165.953 234.022 166.283C234.022 166.619 234.088 166.913 234.222 167.163C234.355 167.409 234.534 167.598 234.758 167.731C234.982 167.859 235.23 167.923 235.502 167.923C235.774 167.923 236.022 167.859 236.246 167.731C236.475 167.598 236.656 167.409 236.79 167.163C236.923 166.913 236.99 166.622 236.99 166.291ZM238.684 166.283C238.684 165.835 238.775 165.443 238.956 165.107C239.137 164.766 239.385 164.502 239.7 164.315C240.02 164.129 240.375 164.035 240.764 164.035C241.148 164.035 241.481 164.118 241.764 164.283C242.047 164.449 242.257 164.657 242.396 164.907V164.107H243.132V168.491H242.396V167.675C242.252 167.931 242.036 168.145 241.748 168.315C241.465 168.481 241.135 168.563 240.756 168.563C240.367 168.563 240.015 168.467 239.7 168.275C239.385 168.083 239.137 167.814 238.956 167.467C238.775 167.121 238.684 166.726 238.684 166.283ZM242.396 166.291C242.396 165.961 242.329 165.673 242.196 165.427C242.063 165.182 241.881 164.995 241.652 164.867C241.428 164.734 241.18 164.667 240.908 164.667C240.636 164.667 240.388 164.731 240.164 164.859C239.94 164.987 239.761 165.174 239.628 165.419C239.495 165.665 239.428 165.953 239.428 166.283C239.428 166.619 239.495 166.913 239.628 167.163C239.761 167.409 239.94 167.598 240.164 167.731C240.388 167.859 240.636 167.923 240.908 167.923C241.18 167.923 241.428 167.859 241.652 167.731C241.881 167.598 242.063 167.409 242.196 167.163C242.329 166.913 242.396 166.622 242.396 166.291ZM248.138 164.107L245.498 170.555H244.746L245.61 168.443L243.842 164.107H244.65L246.026 167.659L247.386 164.107H248.138ZM250.422 168.563C250.086 168.563 249.785 168.507 249.518 168.395C249.251 168.278 249.041 168.118 248.886 167.915C248.731 167.707 248.646 167.47 248.63 167.203H249.382C249.403 167.422 249.505 167.601 249.686 167.739C249.873 167.878 250.115 167.947 250.414 167.947C250.691 167.947 250.91 167.886 251.07 167.763C251.23 167.641 251.31 167.486 251.31 167.299C251.31 167.107 251.225 166.966 251.054 166.875C250.883 166.779 250.619 166.686 250.262 166.595C249.937 166.51 249.67 166.425 249.462 166.339C249.259 166.249 249.083 166.118 248.934 165.947C248.79 165.771 248.718 165.542 248.718 165.259C248.718 165.035 248.785 164.83 248.918 164.643C249.051 164.457 249.241 164.31 249.486 164.203C249.731 164.091 250.011 164.035 250.326 164.035C250.811 164.035 251.203 164.158 251.502 164.403C251.801 164.649 251.961 164.985 251.982 165.411H251.254C251.238 165.182 251.145 164.998 250.974 164.859C250.809 164.721 250.585 164.651 250.302 164.651C250.041 164.651 249.833 164.707 249.678 164.819C249.523 164.931 249.446 165.078 249.446 165.259C249.446 165.403 249.491 165.523 249.582 165.619C249.678 165.71 249.795 165.785 249.934 165.843C250.078 165.897 250.275 165.958 250.526 166.027C250.841 166.113 251.097 166.198 251.294 166.283C251.491 166.363 251.659 166.486 251.798 166.651C251.942 166.817 252.017 167.033 252.022 167.299C252.022 167.539 251.955 167.755 251.822 167.947C251.689 168.139 251.499 168.291 251.254 168.403C251.014 168.51 250.737 168.563 250.422 168.563Z" fill="#DBEDF8"/>
<path d="M212.008 205.113V206.043H209.058V208.093H211.358V209.023H209.058V212.063H207.918V205.113H212.008ZM215.454 212.153C214.934 212.153 214.464 212.036 214.044 211.803C213.624 211.563 213.294 211.229 213.054 210.803C212.814 210.369 212.694 209.869 212.694 209.303C212.694 208.743 212.818 208.246 213.064 207.813C213.311 207.379 213.648 207.046 214.074 206.813C214.501 206.579 214.978 206.463 215.504 206.463C216.031 206.463 216.508 206.579 216.934 206.813C217.361 207.046 217.698 207.379 217.944 207.813C218.191 208.246 218.314 208.743 218.314 209.303C218.314 209.863 218.188 210.359 217.934 210.793C217.681 211.226 217.334 211.563 216.894 211.803C216.461 212.036 215.981 212.153 215.454 212.153ZM215.454 211.163C215.748 211.163 216.021 211.093 216.274 210.953C216.534 210.813 216.744 210.603 216.904 210.323C217.064 210.043 217.144 209.703 217.144 209.303C217.144 208.903 217.068 208.566 216.914 208.293C216.761 208.013 216.558 207.803 216.304 207.663C216.051 207.523 215.778 207.453 215.484 207.453C215.191 207.453 214.918 207.523 214.664 207.663C214.418 207.803 214.221 208.013 214.074 208.293C213.928 208.566 213.854 208.903 213.854 209.303C213.854 209.896 214.004 210.356 214.304 210.683C214.611 211.003 214.994 211.163 215.454 211.163ZM220.581 204.663V212.063H219.441V204.663H220.581ZM223.218 204.663V212.063H222.078V204.663H223.218ZM227.105 212.153C226.585 212.153 226.115 212.036 225.695 211.803C225.275 211.563 224.945 211.229 224.705 210.803C224.465 210.369 224.345 209.869 224.345 209.303C224.345 208.743 224.468 208.246 224.715 207.813C224.962 207.379 225.298 207.046 225.725 206.813C226.152 206.579 226.628 206.463 227.155 206.463C227.682 206.463 228.158 206.579 228.585 206.813C229.012 207.046 229.348 207.379 229.595 207.813C229.842 208.246 229.965 208.743 229.965 209.303C229.965 209.863 229.838 210.359 229.585 210.793C229.332 211.226 228.985 211.563 228.545 211.803C228.112 212.036 227.632 212.153 227.105 212.153ZM227.105 211.163C227.398 211.163 227.672 211.093 227.925 210.953C228.185 210.813 228.395 210.603 228.555 210.323C228.715 210.043 228.795 209.703 228.795 209.303C228.795 208.903 228.718 208.566 228.565 208.293C228.412 208.013 228.208 207.803 227.955 207.663C227.702 207.523 227.428 207.453 227.135 207.453C226.842 207.453 226.568 207.523 226.315 207.663C226.068 207.803 225.872 208.013 225.725 208.293C225.578 208.566 225.505 208.903 225.505 209.303C225.505 209.896 225.655 210.356 225.955 210.683C226.262 211.003 226.645 211.163 227.105 211.163ZM238.492 206.553L236.782 212.063H235.582L234.472 207.993L233.362 212.063H232.162L230.442 206.553H231.602L232.752 210.983L233.922 206.553H235.112L236.232 210.963L237.372 206.553H238.492ZM246.931 206.553V212.063H245.791V211.413C245.611 211.639 245.375 211.819 245.081 211.953C244.795 212.079 244.488 212.143 244.161 212.143C243.728 212.143 243.338 212.053 242.991 211.873C242.651 211.693 242.381 211.426 242.181 211.073C241.988 210.719 241.891 210.293 241.891 209.793V206.553H243.021V209.623C243.021 210.116 243.145 210.496 243.391 210.763C243.638 211.023 243.975 211.153 244.401 211.153C244.828 211.153 245.165 211.023 245.411 210.763C245.665 210.496 245.791 210.116 245.791 209.623V206.553H246.931ZM249.576 207.363C249.769 207.109 250.032 206.896 250.366 206.723C250.699 206.549 251.076 206.463 251.496 206.463C251.976 206.463 252.412 206.583 252.806 206.823C253.206 207.056 253.519 207.386 253.746 207.813C253.972 208.239 254.086 208.729 254.086 209.283C254.086 209.836 253.972 210.333 253.746 210.773C253.519 211.206 253.206 211.546 252.806 211.793C252.412 212.033 251.976 212.153 251.496 212.153C251.076 212.153 250.702 212.069 250.376 211.903C250.049 211.729 249.782 211.516 249.576 211.263V214.683H248.436V206.553H249.576V207.363ZM252.926 209.283C252.926 208.903 252.846 208.576 252.686 208.303C252.532 208.023 252.326 207.813 252.066 207.673C251.812 207.526 251.539 207.453 251.246 207.453C250.959 207.453 250.686 207.526 250.426 207.673C250.172 207.819 249.966 208.033 249.806 208.313C249.652 208.593 249.576 208.923 249.576 209.303C249.576 209.683 249.652 210.016 249.806 210.303C249.966 210.583 250.172 210.796 250.426 210.943C250.686 211.089 250.959 211.163 251.246 211.163C251.539 211.163 251.812 211.089 252.066 210.943C252.326 210.789 252.532 210.569 252.686 210.283C252.846 209.996 252.926 209.663 252.926 209.283ZM265.211 206.553L263.501 212.063H262.301L261.191 207.993L260.081 212.063H258.881L257.161 206.553H258.321L259.471 210.983L260.641 206.553H261.831L262.951 210.963L264.091 206.553H265.211ZM266.643 205.823C266.436 205.823 266.263 205.753 266.123 205.613C265.983 205.473 265.913 205.299 265.913 205.093C265.913 204.886 265.983 204.713 266.123 204.573C266.263 204.433 266.436 204.363 266.643 204.363C266.843 204.363 267.013 204.433 267.153 204.573C267.293 204.713 267.363 204.886 267.363 205.093C267.363 205.299 267.293 205.473 267.153 205.613C267.013 205.753 266.843 205.823 266.643 205.823ZM267.203 206.553V212.063H266.063V206.553H267.203ZM270.029 207.483V210.533C270.029 210.739 270.076 210.889 270.169 210.983C270.269 211.069 270.436 211.113 270.669 211.113H271.369V212.063H270.469C269.956 212.063 269.563 211.943 269.289 211.703C269.016 211.463 268.879 211.073 268.879 210.533V207.483H268.229V206.553H268.879V205.183H270.029V206.553H271.369V207.483H270.029ZM275.27 206.463C275.69 206.463 276.063 206.553 276.39 206.733C276.723 206.913 276.983 207.179 277.17 207.533C277.363 207.886 277.46 208.313 277.46 208.813V212.063H276.33V208.983C276.33 208.489 276.207 208.113 275.96 207.853C275.713 207.586 275.377 207.453 274.95 207.453C274.523 207.453 274.183 207.586 273.93 207.853C273.683 208.113 273.56 208.489 273.56 208.983V212.063H272.42V204.663H273.56V207.193C273.753 206.959 273.997 206.779 274.29 206.653C274.59 206.526 274.917 206.463 275.27 206.463ZM282.842 207.483V210.533C282.842 210.739 282.888 210.889 282.982 210.983C283.082 211.069 283.248 211.113 283.482 211.113H284.182V212.063H283.282C282.768 212.063 282.375 211.943 282.102 211.703C281.828 211.463 281.692 211.073 281.692 210.533V207.483H281.042V206.553H281.692V205.183H282.842V206.553H284.182V207.483H282.842ZM288.082 206.463C288.502 206.463 288.876 206.553 289.202 206.733C289.536 206.913 289.796 207.179 289.982 207.533C290.176 207.886 290.272 208.313 290.272 208.813V212.063H289.142V208.983C289.142 208.489 289.019 208.113 288.772 207.853C288.526 207.586 288.189 207.453 287.762 207.453C287.336 207.453 286.996 207.586 286.742 207.853C286.496 208.113 286.372 208.489 286.372 208.983V212.063H285.232V204.663H286.372V207.193C286.566 206.959 286.809 206.779 287.102 206.653C287.402 206.526 287.729 206.463 288.082 206.463ZM296.777 209.173C296.777 209.379 296.763 209.566 296.737 209.733H292.527C292.56 210.173 292.723 210.526 293.017 210.793C293.31 211.059 293.67 211.193 294.097 211.193C294.71 211.193 295.143 210.936 295.397 210.423H296.627C296.46 210.929 296.157 211.346 295.717 211.673C295.283 211.993 294.743 212.153 294.097 212.153C293.57 212.153 293.097 212.036 292.677 211.803C292.263 211.563 291.937 211.229 291.697 210.803C291.463 210.369 291.347 209.869 291.347 209.303C291.347 208.736 291.46 208.239 291.687 207.813C291.92 207.379 292.243 207.046 292.657 206.813C293.077 206.579 293.557 206.463 294.097 206.463C294.617 206.463 295.08 206.576 295.487 206.803C295.893 207.029 296.21 207.349 296.437 207.763C296.663 208.169 296.777 208.639 296.777 209.173ZM295.587 208.813C295.58 208.393 295.43 208.056 295.137 207.803C294.843 207.549 294.48 207.423 294.047 207.423C293.653 207.423 293.317 207.549 293.037 207.803C292.757 208.049 292.59 208.386 292.537 208.813H295.587ZM300.116 209.303C300.116 208.736 300.229 208.239 300.456 207.813C300.689 207.379 301.009 207.046 301.416 206.813C301.823 206.579 302.289 206.463 302.816 206.463C303.483 206.463 304.033 206.623 304.466 206.943C304.906 207.256 305.203 207.706 305.356 208.293H304.126C304.026 208.019 303.866 207.806 303.646 207.653C303.426 207.499 303.149 207.423 302.816 207.423C302.349 207.423 301.976 207.589 301.696 207.923C301.423 208.249 301.286 208.709 301.286 209.303C301.286 209.896 301.423 210.359 301.696 210.693C301.976 211.026 302.349 211.193 302.816 211.193C303.476 211.193 303.913 210.903 304.126 210.323H305.356C305.196 210.883 304.896 211.329 304.456 211.663C304.016 211.989 303.469 212.153 302.816 212.153C302.289 212.153 301.823 212.036 301.416 211.803C301.009 211.563 300.689 211.229 300.456 210.803C300.229 210.369 300.116 209.869 300.116 209.303ZM307.632 204.663V212.063H306.492V204.663H307.632ZM309.709 205.823C309.502 205.823 309.329 205.753 309.189 205.613C309.049 205.473 308.979 205.299 308.979 205.093C308.979 204.886 309.049 204.713 309.189 204.573C309.329 204.433 309.502 204.363 309.709 204.363C309.909 204.363 310.079 204.433 310.219 204.573C310.359 204.713 310.429 204.886 310.429 205.093C310.429 205.299 310.359 205.473 310.219 205.613C310.079 205.753 309.909 205.823 309.709 205.823ZM310.269 206.553V212.063H309.129V206.553H310.269ZM316.816 209.173C316.816 209.379 316.802 209.566 316.776 209.733H312.566C312.599 210.173 312.762 210.526 313.056 210.793C313.349 211.059 313.709 211.193 314.136 211.193C314.749 211.193 315.182 210.936 315.436 210.423H316.666C316.499 210.929 316.196 211.346 315.756 211.673C315.322 211.993 314.782 212.153 314.136 212.153C313.609 212.153 313.136 212.036 312.716 211.803C312.302 211.563 311.976 211.229 311.736 210.803C311.502 210.369 311.386 209.869 311.386 209.303C311.386 208.736 311.499 208.239 311.726 207.813C311.959 207.379 312.282 207.046 312.696 206.813C313.116 206.579 313.596 206.463 314.136 206.463C314.656 206.463 315.119 206.576 315.526 206.803C315.932 207.029 316.249 207.349 316.476 207.763C316.702 208.169 316.816 208.639 316.816 209.173ZM315.626 208.813C315.619 208.393 315.469 208.056 315.176 207.803C314.882 207.549 314.519 207.423 314.086 207.423C313.692 207.423 313.356 207.549 313.076 207.803C312.796 208.049 312.629 208.386 312.576 208.813H315.626ZM320.718 206.463C321.151 206.463 321.538 206.553 321.878 206.733C322.224 206.913 322.494 207.179 322.688 207.533C322.881 207.886 322.978 208.313 322.978 208.813V212.063H321.848V208.983C321.848 208.489 321.724 208.113 321.478 207.853C321.231 207.586 320.894 207.453 320.468 207.453C320.041 207.453 319.701 207.586 319.448 207.853C319.201 208.113 319.078 208.489 319.078 208.983V212.063H317.938V206.553H319.078V207.183C319.264 206.956 319.501 206.779 319.788 206.653C320.081 206.526 320.391 206.463 320.718 206.463ZM325.762 207.483V210.533C325.762 210.739 325.808 210.889 325.902 210.983C326.002 211.069 326.168 211.113 326.402 211.113H327.102V212.063H326.202C325.688 212.063 325.295 211.943 325.022 211.703C324.748 211.463 324.612 211.073 324.612 210.533V207.483H323.962V206.553H324.612V205.183H325.762V206.553H327.102V207.483H325.762Z" fill="white"/>
<path d="M211.512 225.384C211.512 225.848 211.352 226.234 211.032 226.544C210.717 226.848 210.235 227 209.584 227H208.512V229.328H207.784V223.752H209.584C210.213 223.752 210.691 223.904 211.016 224.208C211.347 224.512 211.512 224.904 211.512 225.384ZM209.584 226.4C209.989 226.4 210.288 226.312 210.48 226.136C210.672 225.96 210.768 225.709 210.768 225.384C210.768 224.696 210.373 224.352 209.584 224.352H208.512V226.4H209.584ZM212.145 227.12C212.145 226.672 212.235 226.28 212.417 225.944C212.598 225.602 212.846 225.338 213.161 225.152C213.481 224.965 213.835 224.872 214.225 224.872C214.609 224.872 214.942 224.954 215.225 225.12C215.507 225.285 215.718 225.493 215.857 225.744V224.944H216.593V229.328H215.857V228.512C215.713 228.768 215.497 228.981 215.209 229.152C214.926 229.317 214.595 229.4 214.217 229.4C213.827 229.4 213.475 229.304 213.161 229.112C212.846 228.92 212.598 228.65 212.417 228.304C212.235 227.957 212.145 227.562 212.145 227.12ZM215.857 227.128C215.857 226.797 215.79 226.509 215.657 226.264C215.523 226.018 215.342 225.832 215.113 225.704C214.889 225.57 214.641 225.504 214.369 225.504C214.097 225.504 213.849 225.568 213.625 225.696C213.401 225.824 213.222 226.01 213.089 226.256C212.955 226.501 212.889 226.789 212.889 227.12C212.889 227.456 212.955 227.749 213.089 228C213.222 228.245 213.401 228.434 213.625 228.568C213.849 228.696 214.097 228.76 214.369 228.76C214.641 228.76 214.889 228.696 215.113 228.568C215.342 228.434 215.523 228.245 215.657 228C215.79 227.749 215.857 227.458 215.857 227.128ZM219.375 229.4C219.039 229.4 218.738 229.344 218.471 229.232C218.204 229.114 217.994 228.954 217.839 228.752C217.684 228.544 217.599 228.306 217.583 228.04H218.335C218.356 228.258 218.458 228.437 218.639 228.576C218.826 228.714 219.068 228.784 219.367 228.784C219.644 228.784 219.863 228.722 220.023 228.6C220.183 228.477 220.263 228.322 220.263 228.136C220.263 227.944 220.178 227.802 220.007 227.712C219.836 227.616 219.572 227.522 219.215 227.432C218.89 227.346 218.623 227.261 218.415 227.176C218.212 227.085 218.036 226.954 217.887 226.784C217.743 226.608 217.671 226.378 217.671 226.096C217.671 225.872 217.738 225.666 217.871 225.48C218.004 225.293 218.194 225.146 218.439 225.04C218.684 224.928 218.964 224.872 219.279 224.872C219.764 224.872 220.156 224.994 220.455 225.24C220.754 225.485 220.914 225.821 220.935 226.248H220.207C220.191 226.018 220.098 225.834 219.927 225.696C219.762 225.557 219.538 225.488 219.255 225.488C218.994 225.488 218.786 225.544 218.631 225.656C218.476 225.768 218.399 225.914 218.399 226.096C218.399 226.24 218.444 226.36 218.535 226.456C218.631 226.546 218.748 226.621 218.887 226.68C219.031 226.733 219.228 226.794 219.479 226.864C219.794 226.949 220.05 227.034 220.247 227.12C220.444 227.2 220.612 227.322 220.751 227.488C220.895 227.653 220.97 227.869 220.975 228.136C220.975 228.376 220.908 228.592 220.775 228.784C220.642 228.976 220.452 229.128 220.207 229.24C219.967 229.346 219.69 229.4 219.375 229.4ZM222.891 225.544V228.128C222.891 228.341 222.936 228.493 223.027 228.584C223.117 228.669 223.275 228.712 223.499 228.712H224.035V229.328H223.379C222.973 229.328 222.669 229.234 222.467 229.048C222.264 228.861 222.163 228.554 222.163 228.128V225.544H221.595V224.944H222.163V223.84H222.891V224.944H224.035V225.544H222.891ZM230.49 224.112L228.266 229.328H227.53L229.786 224.184H226.698V223.56H230.49V224.112ZM233.278 227.12C233.278 226.672 233.368 226.28 233.55 225.944C233.731 225.602 233.979 225.338 234.294 225.152C234.614 224.965 234.971 224.872 235.366 224.872C235.707 224.872 236.024 224.952 236.318 225.112C236.611 225.266 236.835 225.472 236.99 225.728V223.408H237.726V229.328H236.99V228.504C236.846 228.765 236.632 228.981 236.35 229.152C236.067 229.317 235.736 229.4 235.358 229.4C234.968 229.4 234.614 229.304 234.294 229.112C233.979 228.92 233.731 228.65 233.55 228.304C233.368 227.957 233.278 227.562 233.278 227.12ZM236.99 227.128C236.99 226.797 236.923 226.509 236.79 226.264C236.656 226.018 236.475 225.832 236.246 225.704C236.022 225.57 235.774 225.504 235.502 225.504C235.23 225.504 234.982 225.568 234.758 225.696C234.534 225.824 234.355 226.01 234.222 226.256C234.088 226.501 234.022 226.789 234.022 227.12C234.022 227.456 234.088 227.749 234.222 228C234.355 228.245 234.534 228.434 234.758 228.568C234.982 228.696 235.23 228.76 235.502 228.76C235.774 228.76 236.022 228.696 236.246 228.568C236.475 228.434 236.656 228.245 236.79 228C236.923 227.749 236.99 227.458 236.99 227.128ZM238.684 227.12C238.684 226.672 238.775 226.28 238.956 225.944C239.137 225.602 239.385 225.338 239.7 225.152C240.02 224.965 240.375 224.872 240.764 224.872C241.148 224.872 241.481 224.954 241.764 225.12C242.047 225.285 242.257 225.493 242.396 225.744V224.944H243.132V229.328H242.396V228.512C242.252 228.768 242.036 228.981 241.748 229.152C241.465 229.317 241.135 229.4 240.756 229.4C240.367 229.4 240.015 229.304 239.7 229.112C239.385 228.92 239.137 228.65 238.956 228.304C238.775 227.957 238.684 227.562 238.684 227.12ZM242.396 227.128C242.396 226.797 242.329 226.509 242.196 226.264C242.063 226.018 241.881 225.832 241.652 225.704C241.428 225.57 241.18 225.504 240.908 225.504C240.636 225.504 240.388 225.568 240.164 225.696C239.94 225.824 239.761 226.01 239.628 226.256C239.495 226.501 239.428 226.789 239.428 227.12C239.428 227.456 239.495 227.749 239.628 228C239.761 228.245 239.94 228.434 240.164 228.568C240.388 228.696 240.636 228.76 240.908 228.76C241.18 228.76 241.428 228.696 241.652 228.568C241.881 228.434 242.063 228.245 242.196 228C242.329 227.749 242.396 227.458 242.396 227.128ZM248.138 224.944L245.498 231.392H244.746L245.61 229.28L243.842 224.944H244.65L246.026 228.496L247.386 224.944H248.138ZM250.422 229.4C250.086 229.4 249.785 229.344 249.518 229.232C249.251 229.114 249.041 228.954 248.886 228.752C248.731 228.544 248.646 228.306 248.63 228.04H249.382C249.403 228.258 249.505 228.437 249.686 228.576C249.873 228.714 250.115 228.784 250.414 228.784C250.691 228.784 250.91 228.722 251.07 228.6C251.23 228.477 251.31 228.322 251.31 228.136C251.31 227.944 251.225 227.802 251.054 227.712C250.883 227.616 250.619 227.522 250.262 227.432C249.937 227.346 249.67 227.261 249.462 227.176C249.259 227.085 249.083 226.954 248.934 226.784C248.79 226.608 248.718 226.378 248.718 226.096C248.718 225.872 248.785 225.666 248.918 225.48C249.051 225.293 249.241 225.146 249.486 225.04C249.731 224.928 250.011 224.872 250.326 224.872C250.811 224.872 251.203 224.994 251.502 225.24C251.801 225.485 251.961 225.821 251.982 226.248H251.254C251.238 226.018 251.145 225.834 250.974 225.696C250.809 225.557 250.585 225.488 250.302 225.488C250.041 225.488 249.833 225.544 249.678 225.656C249.523 225.768 249.446 225.914 249.446 226.096C249.446 226.24 249.491 226.36 249.582 226.456C249.678 226.546 249.795 226.621 249.934 226.68C250.078 226.733 250.275 226.794 250.526 226.864C250.841 226.949 251.097 227.034 251.294 227.12C251.491 227.2 251.659 227.322 251.798 227.488C251.942 227.653 252.017 227.869 252.022 228.136C252.022 228.376 251.955 228.592 251.822 228.784C251.689 228.976 251.499 229.128 251.254 229.24C251.014 229.346 250.737 229.4 250.422 229.4Z" fill="#DBEDF8"/>
<path d="M211.528 272.899L209.928 270.119H209.058V272.899H207.918V265.949H210.318C210.851 265.949 211.301 266.042 211.668 266.229C212.041 266.416 212.318 266.666 212.498 266.979C212.685 267.292 212.778 267.642 212.778 268.029C212.778 268.482 212.645 268.896 212.378 269.269C212.118 269.636 211.715 269.886 211.168 270.019L212.888 272.899H211.528ZM209.058 269.209H210.318C210.745 269.209 211.065 269.102 211.278 268.889C211.498 268.676 211.608 268.389 211.608 268.029C211.608 267.669 211.501 267.389 211.288 267.189C211.075 266.982 210.751 266.879 210.318 266.879H209.058V269.209ZM219.286 270.009C219.286 270.216 219.273 270.402 219.246 270.569H215.036C215.07 271.009 215.233 271.362 215.526 271.629C215.82 271.896 216.18 272.029 216.606 272.029C217.22 272.029 217.653 271.772 217.906 271.259H219.136C218.97 271.766 218.666 272.182 218.226 272.509C217.793 272.829 217.253 272.989 216.606 272.989C216.08 272.989 215.606 272.872 215.186 272.639C214.773 272.399 214.446 272.066 214.206 271.639C213.973 271.206 213.856 270.706 213.856 270.139C213.856 269.572 213.97 269.076 214.196 268.649C214.43 268.216 214.753 267.882 215.166 267.649C215.586 267.416 216.066 267.299 216.606 267.299C217.126 267.299 217.59 267.412 217.996 267.639C218.403 267.866 218.72 268.186 218.946 268.599C219.173 269.006 219.286 269.476 219.286 270.009ZM218.096 269.649C218.09 269.229 217.94 268.892 217.646 268.639C217.353 268.386 216.99 268.259 216.556 268.259C216.163 268.259 215.826 268.386 215.546 268.639C215.266 268.886 215.1 269.222 215.046 269.649H218.096ZM222.408 272.989C221.975 272.989 221.585 272.912 221.238 272.759C220.898 272.599 220.628 272.386 220.428 272.119C220.228 271.846 220.122 271.542 220.108 271.209H221.288C221.308 271.442 221.418 271.639 221.618 271.799C221.825 271.952 222.082 272.029 222.388 272.029C222.708 272.029 222.955 271.969 223.128 271.849C223.308 271.722 223.398 271.562 223.398 271.369C223.398 271.162 223.298 271.009 223.098 270.909C222.905 270.809 222.595 270.699 222.168 270.579C221.755 270.466 221.418 270.356 221.158 270.249C220.898 270.142 220.672 269.979 220.478 269.759C220.292 269.539 220.198 269.249 220.198 268.889C220.198 268.596 220.285 268.329 220.458 268.089C220.632 267.842 220.878 267.649 221.198 267.509C221.525 267.369 221.898 267.299 222.318 267.299C222.945 267.299 223.448 267.459 223.828 267.779C224.215 268.092 224.422 268.522 224.448 269.069H223.308C223.288 268.822 223.188 268.626 223.008 268.479C222.828 268.332 222.585 268.259 222.278 268.259C221.978 268.259 221.748 268.316 221.588 268.429C221.428 268.542 221.348 268.692 221.348 268.879C221.348 269.026 221.402 269.149 221.508 269.249C221.615 269.349 221.745 269.429 221.898 269.489C222.052 269.542 222.278 269.612 222.578 269.699C222.978 269.806 223.305 269.916 223.558 270.029C223.818 270.136 224.042 270.296 224.228 270.509C224.415 270.722 224.512 271.006 224.518 271.359C224.518 271.672 224.432 271.952 224.258 272.199C224.085 272.446 223.838 272.639 223.518 272.779C223.205 272.919 222.835 272.989 222.408 272.989ZM230.8 270.009C230.8 270.216 230.787 270.402 230.76 270.569H226.55C226.583 271.009 226.747 271.362 227.04 271.629C227.333 271.896 227.693 272.029 228.12 272.029C228.733 272.029 229.167 271.772 229.42 271.259H230.65C230.483 271.766 230.18 272.182 229.74 272.509C229.307 272.829 228.767 272.989 228.12 272.989C227.593 272.989 227.12 272.872 226.7 272.639C226.287 272.399 225.96 272.066 225.72 271.639C225.487 271.206 225.37 270.706 225.37 270.139C225.37 269.572 225.483 269.076 225.71 268.649C225.943 268.216 226.267 267.882 226.68 267.649C227.1 267.416 227.58 267.299 228.12 267.299C228.64 267.299 229.103 267.412 229.51 267.639C229.917 267.866 230.233 268.186 230.46 268.599C230.687 269.006 230.8 269.476 230.8 270.009ZM229.61 269.649C229.603 269.229 229.453 268.892 229.16 268.639C228.867 268.386 228.503 268.259 228.07 268.259C227.677 268.259 227.34 268.386 227.06 268.639C226.78 268.886 226.613 269.222 226.56 269.649H229.61ZM231.542 270.119C231.542 269.566 231.655 269.076 231.882 268.649C232.115 268.222 232.429 267.892 232.822 267.659C233.222 267.419 233.662 267.299 234.142 267.299C234.575 267.299 234.952 267.386 235.272 267.559C235.599 267.726 235.859 267.936 236.052 268.189V267.389H237.202V272.899H236.052V272.079C235.859 272.339 235.595 272.556 235.262 272.729C234.929 272.902 234.549 272.989 234.122 272.989C233.649 272.989 233.215 272.869 232.822 272.629C232.429 272.382 232.115 272.042 231.882 271.609C231.655 271.169 231.542 270.672 231.542 270.119ZM236.052 270.139C236.052 269.759 235.972 269.429 235.812 269.149C235.659 268.869 235.455 268.656 235.202 268.509C234.949 268.362 234.675 268.289 234.382 268.289C234.089 268.289 233.815 268.362 233.562 268.509C233.309 268.649 233.102 268.859 232.942 269.139C232.789 269.412 232.712 269.739 232.712 270.119C232.712 270.499 232.789 270.832 232.942 271.119C233.102 271.406 233.309 271.626 233.562 271.779C233.822 271.926 234.095 271.999 234.382 271.999C234.675 271.999 234.949 271.926 235.202 271.779C235.455 271.632 235.659 271.419 235.812 271.139C235.972 270.852 236.052 270.519 236.052 270.139ZM239.839 268.189C240.006 267.909 240.226 267.692 240.499 267.539C240.779 267.379 241.109 267.299 241.489 267.299V268.479H241.199C240.753 268.479 240.413 268.592 240.179 268.819C239.953 269.046 239.839 269.439 239.839 269.999V272.899H238.699V267.389H239.839V268.189ZM242.157 270.139C242.157 269.572 242.27 269.076 242.497 268.649C242.73 268.216 243.05 267.882 243.457 267.649C243.864 267.416 244.33 267.299 244.857 267.299C245.524 267.299 246.074 267.459 246.507 267.779C246.947 268.092 247.244 268.542 247.397 269.129H246.167C246.067 268.856 245.907 268.642 245.687 268.489C245.467 268.336 245.19 268.259 244.857 268.259C244.39 268.259 244.017 268.426 243.737 268.759C243.464 269.086 243.327 269.546 243.327 270.139C243.327 270.732 243.464 271.196 243.737 271.529C244.017 271.862 244.39 272.029 244.857 272.029C245.517 272.029 245.954 271.739 246.167 271.159H247.397C247.237 271.719 246.937 272.166 246.497 272.499C246.057 272.826 245.51 272.989 244.857 272.989C244.33 272.989 243.864 272.872 243.457 272.639C243.05 272.399 242.73 272.066 242.497 271.639C242.27 271.206 242.157 270.706 242.157 270.139ZM251.383 267.299C251.803 267.299 252.177 267.389 252.503 267.569C252.837 267.749 253.097 268.016 253.283 268.369C253.477 268.722 253.573 269.149 253.573 269.649V272.899H252.443V269.819C252.443 269.326 252.32 268.949 252.073 268.689C251.827 268.422 251.49 268.289 251.063 268.289C250.637 268.289 250.297 268.422 250.043 268.689C249.797 268.949 249.673 269.326 249.673 269.819V272.899H248.533V265.499H249.673V268.029C249.867 267.796 250.11 267.616 250.403 267.489C250.703 267.362 251.03 267.299 251.383 267.299ZM258.765 268.199C258.958 267.946 259.222 267.732 259.555 267.559C259.888 267.386 260.265 267.299 260.685 267.299C261.165 267.299 261.602 267.419 261.995 267.659C262.395 267.892 262.708 268.222 262.935 268.649C263.162 269.076 263.275 269.566 263.275 270.119C263.275 270.672 263.162 271.169 262.935 271.609C262.708 272.042 262.395 272.382 261.995 272.629C261.602 272.869 261.165 272.989 260.685 272.989C260.265 272.989 259.892 272.906 259.565 272.739C259.238 272.566 258.972 272.352 258.765 272.099V275.519H257.625V267.389H258.765V268.199ZM262.115 270.119C262.115 269.739 262.035 269.412 261.875 269.139C261.722 268.859 261.515 268.649 261.255 268.509C261.002 268.362 260.728 268.289 260.435 268.289C260.148 268.289 259.875 268.362 259.615 268.509C259.362 268.656 259.155 268.869 258.995 269.149C258.842 269.429 258.765 269.759 258.765 270.139C258.765 270.519 258.842 270.852 258.995 271.139C259.155 271.419 259.362 271.632 259.615 271.779C259.875 271.926 260.148 271.999 260.435 271.999C260.728 271.999 261.002 271.926 261.255 271.779C261.515 271.626 261.722 271.406 261.875 271.119C262.035 270.832 262.115 270.499 262.115 270.119ZM265.542 268.189C265.709 267.909 265.929 267.692 266.202 267.539C266.482 267.379 266.812 267.299 267.192 267.299V268.479H266.902C266.456 268.479 266.116 268.592 265.882 268.819C265.656 269.046 265.542 269.439 265.542 269.999V272.899H264.402V267.389H265.542V268.189ZM268.82 266.659C268.614 266.659 268.44 266.589 268.3 266.449C268.16 266.309 268.09 266.136 268.09 265.929C268.09 265.722 268.16 265.549 268.3 265.409C268.44 265.269 268.614 265.199 268.82 265.199C269.02 265.199 269.19 265.269 269.33 265.409C269.47 265.549 269.54 265.722 269.54 265.929C269.54 266.136 269.47 266.309 269.33 266.449C269.19 266.589 269.02 266.659 268.82 266.659ZM269.38 267.389V272.899H268.24V267.389H269.38ZM270.497 270.139C270.497 269.572 270.61 269.076 270.837 268.649C271.07 268.216 271.39 267.882 271.797 267.649C272.204 267.416 272.67 267.299 273.197 267.299C273.864 267.299 274.414 267.459 274.847 267.779C275.287 268.092 275.584 268.542 275.737 269.129H274.507C274.407 268.856 274.247 268.642 274.027 268.489C273.807 268.336 273.53 268.259 273.197 268.259C272.73 268.259 272.357 268.426 272.077 268.759C271.804 269.086 271.667 269.546 271.667 270.139C271.667 270.732 271.804 271.196 272.077 271.529C272.357 271.862 272.73 272.029 273.197 272.029C273.857 272.029 274.294 271.739 274.507 271.159H275.737C275.577 271.719 275.277 272.166 274.837 272.499C274.397 272.826 273.85 272.989 273.197 272.989C272.67 272.989 272.204 272.872 271.797 272.639C271.39 272.399 271.07 272.066 270.837 271.639C270.61 271.206 270.497 270.706 270.497 270.139ZM277.453 266.659C277.246 266.659 277.073 266.589 276.933 266.449C276.793 266.309 276.723 266.136 276.723 265.929C276.723 265.722 276.793 265.549 276.933 265.409C277.073 265.269 277.246 265.199 277.453 265.199C277.653 265.199 277.823 265.269 277.963 265.409C278.103 265.549 278.173 265.722 278.173 265.929C278.173 266.136 278.103 266.309 277.963 266.449C277.823 266.589 277.653 266.659 277.453 266.659ZM278.013 267.389V272.899H276.873V267.389H278.013ZM282.29 267.299C282.723 267.299 283.11 267.389 283.45 267.569C283.796 267.749 284.066 268.016 284.26 268.369C284.453 268.722 284.55 269.149 284.55 269.649V272.899H283.42V269.819C283.42 269.326 283.296 268.949 283.05 268.689C282.803 268.422 282.466 268.289 282.04 268.289C281.613 268.289 281.273 268.422 281.02 268.689C280.773 268.949 280.65 269.326 280.65 269.819V272.899H279.51V267.389H280.65V268.019C280.836 267.792 281.073 267.616 281.36 267.489C281.653 267.362 281.963 267.299 282.29 267.299ZM288.224 267.299C288.651 267.299 289.027 267.386 289.354 267.559C289.687 267.726 289.947 267.936 290.134 268.189V267.389H291.284V272.989C291.284 273.496 291.177 273.946 290.964 274.339C290.751 274.739 290.441 275.052 290.034 275.279C289.634 275.506 289.154 275.619 288.594 275.619C287.847 275.619 287.227 275.442 286.734 275.089C286.241 274.742 285.961 274.269 285.894 273.669H287.024C287.111 273.956 287.294 274.186 287.574 274.359C287.861 274.539 288.201 274.629 288.594 274.629C289.054 274.629 289.424 274.489 289.704 274.209C289.991 273.929 290.134 273.522 290.134 272.989V272.069C289.941 272.329 289.677 272.549 289.344 272.729C289.017 272.902 288.644 272.989 288.224 272.989C287.744 272.989 287.304 272.869 286.904 272.629C286.511 272.382 286.197 272.042 285.964 271.609C285.737 271.169 285.624 270.672 285.624 270.119C285.624 269.566 285.737 269.076 285.964 268.649C286.197 268.222 286.511 267.892 286.904 267.659C287.304 267.419 287.744 267.299 288.224 267.299ZM290.134 270.139C290.134 269.759 290.054 269.429 289.894 269.149C289.741 268.869 289.537 268.656 289.284 268.509C289.031 268.362 288.757 268.289 288.464 268.289C288.171 268.289 287.897 268.362 287.644 268.509C287.391 268.649 287.184 268.859 287.024 269.139C286.871 269.412 286.794 269.739 286.794 270.119C286.794 270.499 286.871 270.832 287.024 271.119C287.184 271.406 287.391 271.626 287.644 271.779C287.904 271.926 288.177 271.999 288.464 271.999C288.757 271.999 289.031 271.926 289.284 271.779C289.537 271.632 289.741 271.419 289.894 271.139C290.054 270.852 290.134 270.519 290.134 270.139Z" fill="white"/>
<path d="M212.108 339.413H209.198L208.698 340.833H207.508L209.998 333.873H211.318L213.808 340.833H212.608L212.108 339.413ZM211.788 338.483L210.658 335.253L209.518 338.483H211.788ZM214.511 338.053C214.511 337.499 214.624 337.009 214.851 336.583C215.084 336.156 215.397 335.826 215.791 335.593C216.191 335.353 216.634 335.233 217.121 335.233C217.481 335.233 217.834 335.313 218.181 335.473C218.534 335.626 218.814 335.833 219.021 336.093V333.433H220.171V340.833H219.021V340.003C218.834 340.269 218.574 340.489 218.241 340.663C217.914 340.836 217.537 340.923 217.111 340.923C216.631 340.923 216.191 340.803 215.791 340.563C215.397 340.316 215.084 339.976 214.851 339.543C214.624 339.103 214.511 338.606 214.511 338.053ZM219.021 338.073C219.021 337.693 218.941 337.363 218.781 337.083C218.627 336.803 218.424 336.589 218.171 336.443C217.917 336.296 217.644 336.223 217.351 336.223C217.057 336.223 216.784 336.296 216.531 336.443C216.277 336.583 216.071 336.793 215.911 337.073C215.757 337.346 215.681 337.673 215.681 338.053C215.681 338.433 215.757 338.766 215.911 339.053C216.071 339.339 216.277 339.559 216.531 339.713C216.791 339.859 217.064 339.933 217.351 339.933C217.644 339.933 217.917 339.859 218.171 339.713C218.424 339.566 218.627 339.353 218.781 339.073C218.941 338.786 219.021 338.453 219.021 338.073ZM221.288 338.053C221.288 337.499 221.401 337.009 221.628 336.583C221.861 336.156 222.175 335.826 222.568 335.593C222.968 335.353 223.411 335.233 223.898 335.233C224.258 335.233 224.611 335.313 224.958 335.473C225.311 335.626 225.591 335.833 225.798 336.093V333.433H226.948V340.833H225.798V340.003C225.611 340.269 225.351 340.489 225.018 340.663C224.691 340.836 224.315 340.923 223.888 340.923C223.408 340.923 222.968 340.803 222.568 340.563C222.175 340.316 221.861 339.976 221.628 339.543C221.401 339.103 221.288 338.606 221.288 338.053ZM225.798 338.073C225.798 337.693 225.718 337.363 225.558 337.083C225.405 336.803 225.201 336.589 224.948 336.443C224.695 336.296 224.421 336.223 224.128 336.223C223.835 336.223 223.561 336.296 223.308 336.443C223.055 336.583 222.848 336.793 222.688 337.073C222.535 337.346 222.458 337.673 222.458 338.053C222.458 338.433 222.535 338.766 222.688 339.053C222.848 339.339 223.055 339.559 223.308 339.713C223.568 339.859 223.841 339.933 224.128 339.933C224.421 339.933 224.695 339.859 224.948 339.713C225.201 339.566 225.405 339.353 225.558 339.073C225.718 338.786 225.798 338.453 225.798 338.073ZM232.373 336.253V339.303C232.373 339.509 232.42 339.659 232.513 339.753C232.613 339.839 232.78 339.883 233.013 339.883H233.713V340.833H232.813C232.3 340.833 231.906 340.713 231.633 340.473C231.36 340.233 231.223 339.843 231.223 339.303V336.253H230.573V335.323H231.223V333.953H232.373V335.323H233.713V336.253H232.373ZM234.384 338.053C234.384 337.499 234.497 337.009 234.724 336.583C234.957 336.156 235.27 335.826 235.664 335.593C236.064 335.353 236.504 335.233 236.984 335.233C237.417 335.233 237.794 335.319 238.114 335.493C238.44 335.659 238.7 335.869 238.894 336.123V335.323H240.044V340.833H238.894V340.013C238.7 340.273 238.437 340.489 238.104 340.663C237.77 340.836 237.39 340.923 236.964 340.923C236.49 340.923 236.057 340.803 235.664 340.563C235.27 340.316 234.957 339.976 234.724 339.543C234.497 339.103 234.384 338.606 234.384 338.053ZM238.894 338.073C238.894 337.693 238.814 337.363 238.654 337.083C238.5 336.803 238.297 336.589 238.044 336.443C237.79 336.296 237.517 336.223 237.224 336.223C236.93 336.223 236.657 336.296 236.404 336.443C236.15 336.583 235.944 336.793 235.784 337.073C235.63 337.346 235.554 337.673 235.554 338.053C235.554 338.433 235.63 338.766 235.784 339.053C235.944 339.339 236.15 339.559 236.404 339.713C236.664 339.859 236.937 339.933 237.224 339.933C237.517 339.933 237.79 339.859 238.044 339.713C238.297 339.566 238.5 339.353 238.654 339.073C238.814 338.786 238.894 338.453 238.894 338.073ZM243.541 340.923C243.108 340.923 242.718 340.846 242.371 340.693C242.031 340.533 241.761 340.319 241.561 340.053C241.361 339.779 241.254 339.476 241.241 339.143H242.421C242.441 339.376 242.551 339.573 242.751 339.733C242.958 339.886 243.214 339.963 243.521 339.963C243.841 339.963 244.088 339.903 244.261 339.783C244.441 339.656 244.531 339.496 244.531 339.303C244.531 339.096 244.431 338.943 244.231 338.843C244.038 338.743 243.728 338.633 243.301 338.513C242.888 338.399 242.551 338.289 242.291 338.183C242.031 338.076 241.804 337.913 241.611 337.693C241.424 337.473 241.331 337.183 241.331 336.823C241.331 336.529 241.418 336.263 241.591 336.023C241.764 335.776 242.011 335.583 242.331 335.443C242.658 335.303 243.031 335.233 243.451 335.233C244.078 335.233 244.581 335.393 244.961 335.713C245.348 336.026 245.554 336.456 245.581 337.003H244.441C244.421 336.756 244.321 336.559 244.141 336.413C243.961 336.266 243.718 336.193 243.411 336.193C243.111 336.193 242.881 336.249 242.721 336.363C242.561 336.476 242.481 336.626 242.481 336.813C242.481 336.959 242.534 337.083 242.641 337.183C242.748 337.283 242.878 337.363 243.031 337.423C243.184 337.476 243.411 337.546 243.711 337.633C244.111 337.739 244.438 337.849 244.691 337.963C244.951 338.069 245.174 338.229 245.361 338.443C245.548 338.656 245.644 338.939 245.651 339.293C245.651 339.606 245.564 339.886 245.391 340.133C245.218 340.379 244.971 340.573 244.651 340.713C244.338 340.853 243.968 340.923 243.541 340.923ZM249.063 338.083L251.603 340.833H250.063L248.023 338.463V340.833H246.883V333.433H248.023V337.733L250.023 335.323H251.603L249.063 338.083Z" fill="white"/>
<path d="M211.512 286.22C211.512 286.684 211.352 287.07 211.032 287.38C210.717 287.684 210.235 287.836 209.584 287.836H208.512V290.164H207.784V284.588H209.584C210.213 284.588 210.691 284.74 211.016 285.044C211.347 285.348 211.512 285.74 211.512 286.22ZM209.584 287.236C209.989 287.236 210.288 287.148 210.48 286.972C210.672 286.796 210.768 286.545 210.768 286.22C210.768 285.532 210.373 285.188 209.584 285.188H208.512V287.236H209.584ZM212.145 287.956C212.145 287.508 212.235 287.116 212.417 286.78C212.598 286.438 212.846 286.174 213.161 285.988C213.481 285.801 213.835 285.708 214.225 285.708C214.609 285.708 214.942 285.79 215.225 285.956C215.507 286.121 215.718 286.329 215.857 286.58V285.78H216.593V290.164H215.857V289.348C215.713 289.604 215.497 289.817 215.209 289.988C214.926 290.153 214.595 290.236 214.217 290.236C213.827 290.236 213.475 290.14 213.161 289.948C212.846 289.756 212.598 289.486 212.417 289.14C212.235 288.793 212.145 288.398 212.145 287.956ZM215.857 287.964C215.857 287.633 215.79 287.345 215.657 287.1C215.523 286.854 215.342 286.668 215.113 286.54C214.889 286.406 214.641 286.34 214.369 286.34C214.097 286.34 213.849 286.404 213.625 286.532C213.401 286.66 213.222 286.846 213.089 287.092C212.955 287.337 212.889 287.625 212.889 287.956C212.889 288.292 212.955 288.585 213.089 288.836C213.222 289.081 213.401 289.27 213.625 289.404C213.849 289.532 214.097 289.596 214.369 289.596C214.641 289.596 214.889 289.532 215.113 289.404C215.342 289.27 215.523 289.081 215.657 288.836C215.79 288.585 215.857 288.294 215.857 287.964ZM219.375 290.236C219.039 290.236 218.738 290.18 218.471 290.068C218.204 289.95 217.994 289.79 217.839 289.588C217.684 289.38 217.599 289.142 217.583 288.876H218.335C218.356 289.094 218.458 289.273 218.639 289.412C218.826 289.55 219.068 289.62 219.367 289.62C219.644 289.62 219.863 289.558 220.023 289.436C220.183 289.313 220.263 289.158 220.263 288.972C220.263 288.78 220.178 288.638 220.007 288.548C219.836 288.452 219.572 288.358 219.215 288.268C218.89 288.182 218.623 288.097 218.415 288.012C218.212 287.921 218.036 287.79 217.887 287.62C217.743 287.444 217.671 287.214 217.671 286.932C217.671 286.708 217.738 286.502 217.871 286.316C218.004 286.129 218.194 285.982 218.439 285.876C218.684 285.764 218.964 285.708 219.279 285.708C219.764 285.708 220.156 285.83 220.455 286.076C220.754 286.321 220.914 286.657 220.935 287.084H220.207C220.191 286.854 220.098 286.67 219.927 286.532C219.762 286.393 219.538 286.324 219.255 286.324C218.994 286.324 218.786 286.38 218.631 286.492C218.476 286.604 218.399 286.75 218.399 286.932C218.399 287.076 218.444 287.196 218.535 287.292C218.631 287.382 218.748 287.457 218.887 287.516C219.031 287.569 219.228 287.63 219.479 287.7C219.794 287.785 220.05 287.87 220.247 287.956C220.444 288.036 220.612 288.158 220.751 288.324C220.895 288.489 220.97 288.705 220.975 288.972C220.975 289.212 220.908 289.428 220.775 289.62C220.642 289.812 220.452 289.964 220.207 290.076C219.967 290.182 219.69 290.236 219.375 290.236ZM222.891 286.38V288.964C222.891 289.177 222.936 289.329 223.027 289.42C223.117 289.505 223.275 289.548 223.499 289.548H224.035V290.164H223.379C222.973 290.164 222.669 290.07 222.467 289.884C222.264 289.697 222.163 289.39 222.163 288.964V286.38H221.595V285.78H222.163V284.676H222.891V285.78H224.035V286.38H222.891ZM230.49 284.948L228.266 290.164H227.53L229.786 285.02H226.698V284.396H230.49V284.948ZM233.278 287.956C233.278 287.508 233.368 287.116 233.55 286.78C233.731 286.438 233.979 286.174 234.294 285.988C234.614 285.801 234.971 285.708 235.366 285.708C235.707 285.708 236.024 285.788 236.318 285.948C236.611 286.102 236.835 286.308 236.99 286.564V284.244H237.726V290.164H236.99V289.34C236.846 289.601 236.632 289.817 236.35 289.988C236.067 290.153 235.736 290.236 235.358 290.236C234.968 290.236 234.614 290.14 234.294 289.948C233.979 289.756 233.731 289.486 233.55 289.14C233.368 288.793 233.278 288.398 233.278 287.956ZM236.99 287.964C236.99 287.633 236.923 287.345 236.79 287.1C236.656 286.854 236.475 286.668 236.246 286.54C236.022 286.406 235.774 286.34 235.502 286.34C235.23 286.34 234.982 286.404 234.758 286.532C234.534 286.66 234.355 286.846 234.222 287.092C234.088 287.337 234.022 287.625 234.022 287.956C234.022 288.292 234.088 288.585 234.222 288.836C234.355 289.081 234.534 289.27 234.758 289.404C234.982 289.532 235.23 289.596 235.502 289.596C235.774 289.596 236.022 289.532 236.246 289.404C236.475 289.27 236.656 289.081 236.79 288.836C236.923 288.585 236.99 288.294 236.99 287.964ZM238.684 287.956C238.684 287.508 238.775 287.116 238.956 286.78C239.137 286.438 239.385 286.174 239.7 285.988C240.02 285.801 240.375 285.708 240.764 285.708C241.148 285.708 241.481 285.79 241.764 285.956C242.047 286.121 242.257 286.329 242.396 286.58V285.78H243.132V290.164H242.396V289.348C242.252 289.604 242.036 289.817 241.748 289.988C241.465 290.153 241.135 290.236 240.756 290.236C240.367 290.236 240.015 290.14 239.7 289.948C239.385 289.756 239.137 289.486 238.956 289.14C238.775 288.793 238.684 288.398 238.684 287.956ZM242.396 287.964C242.396 287.633 242.329 287.345 242.196 287.1C242.063 286.854 241.881 286.668 241.652 286.54C241.428 286.406 241.18 286.34 240.908 286.34C240.636 286.34 240.388 286.404 240.164 286.532C239.94 286.66 239.761 286.846 239.628 287.092C239.495 287.337 239.428 287.625 239.428 287.956C239.428 288.292 239.495 288.585 239.628 288.836C239.761 289.081 239.94 289.27 240.164 289.404C240.388 289.532 240.636 289.596 240.908 289.596C241.18 289.596 241.428 289.532 241.652 289.404C241.881 289.27 242.063 289.081 242.196 288.836C242.329 288.585 242.396 288.294 242.396 287.964ZM248.138 285.78L245.498 292.228H244.746L245.61 290.116L243.842 285.78H244.65L246.026 289.332L247.386 285.78H248.138ZM250.422 290.236C250.086 290.236 249.785 290.18 249.518 290.068C249.251 289.95 249.041 289.79 248.886 289.588C248.731 289.38 248.646 289.142 248.63 288.876H249.382C249.403 289.094 249.505 289.273 249.686 289.412C249.873 289.55 250.115 289.62 250.414 289.62C250.691 289.62 250.91 289.558 251.07 289.436C251.23 289.313 251.31 289.158 251.31 288.972C251.31 288.78 251.225 288.638 251.054 288.548C250.883 288.452 250.619 288.358 250.262 288.268C249.937 288.182 249.67 288.097 249.462 288.012C249.259 287.921 249.083 287.79 248.934 287.62C248.79 287.444 248.718 287.214 248.718 286.932C248.718 286.708 248.785 286.502 248.918 286.316C249.051 286.129 249.241 285.982 249.486 285.876C249.731 285.764 250.011 285.708 250.326 285.708C250.811 285.708 251.203 285.83 251.502 286.076C251.801 286.321 251.961 286.657 251.982 287.084H251.254C251.238 286.854 251.145 286.67 250.974 286.532C250.809 286.393 250.585 286.324 250.302 286.324C250.041 286.324 249.833 286.38 249.678 286.492C249.523 286.604 249.446 286.75 249.446 286.932C249.446 287.076 249.491 287.196 249.582 287.292C249.678 287.382 249.795 287.457 249.934 287.516C250.078 287.569 250.275 287.63 250.526 287.7C250.841 287.785 251.097 287.87 251.294 287.956C251.491 288.036 251.659 288.158 251.798 288.324C251.942 288.489 252.017 288.705 252.022 288.972C252.022 289.212 251.955 289.428 251.822 289.62C251.689 289.812 251.499 289.964 251.254 290.076C251.014 290.182 250.737 290.236 250.422 290.236Z" fill="#DBEDF8"/>
<g clip-path="url(#clip3_534_33)">
<path d="M179.797 146.31H169.657C167.417 146.31 165.602 148.126 165.602 150.366V160.505C165.602 162.745 167.417 164.561 169.657 164.561H179.797C182.037 164.561 183.852 162.745 183.852 160.505V150.366C183.852 148.126 182.037 146.31 179.797 146.31Z" stroke="#131316" stroke-width="1.5" stroke-miterlimit="10"/>
<path d="M174.727 150.366V160.505" stroke="#131316" stroke-width="1.5" stroke-linecap="round" stroke-linejoin="round"/>
<path d="M178.781 152.901V160.505" stroke="#131316" stroke-width="1.5" stroke-linecap="round" stroke-linejoin="round"/>
<path d="M170.668 154.594V160.505" stroke="#131316" stroke-width="1.5" stroke-linecap="round" stroke-linejoin="round"/>
</g>
<g clip-path="url(#clip4_534_33)">
<path d="M183.852 217.286V221.341C183.852 222.417 183.425 223.449 182.665 224.209C181.904 224.97 180.872 225.397 179.797 225.397H169.657C168.582 225.397 167.55 224.97 166.789 224.209C166.029 223.449 165.602 222.417 165.602 221.341V211.202C165.602 210.126 166.029 209.095 166.789 208.334C167.55 207.574 168.582 207.146 169.657 207.146H173.713" stroke="#131316" stroke-width="1.5" stroke-linecap="round" stroke-linejoin="round"/>
<path d="M179.742 207.653L171.683 215.703V219.307H175.287L183.346 211.248C183.505 211.089 183.632 210.9 183.718 210.691C183.805 210.483 183.849 210.26 183.849 210.034C183.849 209.809 183.805 209.585 183.718 209.377C183.632 209.169 183.505 208.979 183.346 208.82L182.162 207.645C181.839 207.326 181.403 207.148 180.95 207.15C180.497 207.151 180.062 207.332 179.742 207.653Z" stroke="#131316" stroke-width="1.5" stroke-linecap="round" stroke-linejoin="round"/>
<path d="M180.807 213.23L177.766 210.188" stroke="#131316" stroke-width="1.5" stroke-miterlimit="10" stroke-linecap="round"/>
</g>
<g clip-path="url(#clip5_534_33)">
<path d="M177.811 338.15H171.145" stroke="white" stroke-width="1.5" stroke-linecap="round" stroke-linejoin="round"/>
<path d="M174.477 341.483V334.817" stroke="white" stroke-width="1.5" stroke-linecap="round" stroke-linejoin="round"/>
</g>
<defs>
<clipPath id="clip0_534_33">
<rect width="8" height="9" fill="white" transform="translate(535.876 146.275) rotate(60)"/>
</clipPath>
<clipPath id="clip1_534_33">
<rect width="8" height="9" fill="white" transform="translate(539.103 335.866) rotate(135)"/>
</clipPath>
<clipPath id="clip2_534_33">
<rect width="22.3066" height="18.2509" fill="white" transform="translate(163.57 267.983)"/>
</clipPath>
<clipPath id="clip3_534_33">
<rect width="20.2787" height="20.2787" fill="white" transform="translate(164.586 145.296)"/>
</clipPath>
<clipPath id="clip4_534_33">
<rect width="21.2927" height="21.2927" fill="white" transform="translate(164.586 205.118)"/>
</clipPath>
<clipPath id="clip5_534_33">
<rect width="8" height="8" fill="white" transform="translate(170.477 334.15)"/>
</clipPath>
</defs>
</svg>
